<svg xmlns="http://www.w3.org/2000/svg" viewBox="0 0 130.82 45.6"><defs><style>.cls-1{fill-rule:evenodd;}</style></defs><g id="Capa_2" data-name="Capa 2"><g id="Layer_1" data-name="Layer 1"><path class="cls-1" d="M72.34,27.59c.19-.08.76-.15.68-.24C72.83,27.43,72.26,27.5,72.34,27.59Z"/><path class="cls-1" d="M130.29,9c-.18-.74-.58-1.41-.83-2.13s-.34-1.66-.56-2.47C128.51,3,128,1.62,127.6.19c-.38,0-.54-.29-.79-.16a2.38,2.38,0,0,0-.63,1.24,6.1,6.1,0,0,0,.22,1.22c.14.79.19,1.54.32,2.37,0,.34.24.93-.35.9-.49-1.55-.78-3.82-1.33-5.15a3.15,3.15,0,0,0-1.43-.36c-.79,1.47.63,4.21.57,6.1-.53-1.4-1-3.34-1.61-4.81-.14-.31-.4-.94-.8-1-.23,0-.78.57-.83.87a11.51,11.51,0,0,0,.55,2.84,12.35,12.35,0,0,0,.34,1.46c.11.38.62,1.11,0,1.23-.65-1.84-1-3.65-1.78-5.45-.13-.26.4-.17.11-.41-.1-.31-.44-.22-.64-.36-1.68,1.17.2,4.52.39,6.79l-.4.11c-.2-1.08-.62-2.47-.9-3.72s-.65-2.63-1.71-2.8c-.75.67-.46,2-.21,3.21a32.2,32.2,0,0,1,.87,3.83l-.44.12a27,27,0,0,0-1.79-6.25c-.78-1-1.37-.15-1.3.93a27.72,27.72,0,0,0,1.38,5.72l-.6.16c-.28-1-.56-2.36-.92-3.81-.43-1.75-1-4.36-2.31-2.64a59.14,59.14,0,0,0,1.33,6.16c0,.19.3.72,0,.8s-.52-1.3-.61-1.7a43,43,0,0,0-1.72-5.58c-.18-.12-.55.09-.67-.14-.44.93-.16,2.33.19,3.69s.76,2.88,1,4.21l-.6.17A52.17,52.17,0,0,0,109,4.55c-.42-1.3-.68-2.22-1.74-2.1-.63,1.67.66,5,1.32,7.28.06.25.3.76,0,.82s-.31-.36-.44-.84c-.31-1.17-.6-2.25-.89-3.29-.41-1.57-.76-3-1.54-3.76-.93.58-.72,1.42-.49,2.75.29,1.67.94,3.45,1.3,5.05.06.24.28.72,0,.87-.32-.07-.3-.54-.38-.81-.25-.95-.46-1.92-.74-3a16,16,0,0,0-1.21-3.73c-.18-.26-.74-.8-1-.74s-.29.37-.47.44c.27,2.06,1,5.12,1.62,7.42.06.25.38.81-.08.93-.24.1-.23-.28-.26-.36-.43-1.28-.64-2.57-1-3.84a19.47,19.47,0,0,0-1-3.15c-.12-.23-.49-.5-.26-.78a1.56,1.56,0,0,1-.45-.26c-.12-.13-.48.15-.47-.19a4,4,0,0,0-.58.85c.33,2.68,1.32,5.48,1.91,8.3l-.6.16a62.29,62.29,0,0,0-2.32-8.24c-.29-.13-.44-.5-.78-.54-.14.24-.47.58-.51.89a6.12,6.12,0,0,0,.26,2c.47,2.11,1.3,4.61,1.56,6.42l-.35.09c-.6-1.73-1.15-4.37-1.76-6.37-.46-1.49-.83-2.68-2.15-2.41-.35.6,0,1.39.15,2.15.64,2.37,1.5,5,2.07,7.09l-.65.17c-.79-2.43-1.42-5.13-2.27-7.46-.24-.63-.57-1.9-1.19-1.82s-.44,1.29-.3,2.06c.47,2.49,1.46,5.55,2,7.7-.51.3-.55-.34-.64-.62s-.26-.84-.36-1.14c-.53-1.58-.81-3.17-1.26-4.69a9.21,9.21,0,0,0-.8-2.18c-.17-.24-.68-.7-1-.6-.46.16-.28,1.17-.2,1.65.42,2.56,1.25,5.52,2,8.18-.31,0-.53.26-.75.2-.32-1.34-.71-2.85-1.11-4.34a31.65,31.65,0,0,0-1.32-4.14,1.46,1.46,0,0,0-1.31-.88c-.14.24-.36.44-.51.68.6,3.17,1.86,6.21,2.57,9.19l-.65.17a29,29,0,0,0-1.16-4.12c-.43-1.35-.75-2.8-1.23-4.21-.2-.57-.55-1.36-.81-1.39-.87-.1-.73,2.07-.6,2.73.38,1.9,1,4.68,1.72,6.8.08.26.41.69.06.79s-.47-.79-.59-1.18-.34-.94-.47-1.37C86,11.58,86.08,10,85.25,8c-.33-.8-.73-1.86-1.65-1.59-.44,1.37.2,3.34.73,5.31l1.16,4.34c.1.34.5,1.06-.18,1.11-.78-2.52-1.43-6.1-2.47-8.79-.28-.75-.73-2-1.61-1.65-.35.15-.36.47-.41.86.81,3.39,1.73,6.84,2.39,10.09a73.52,73.52,0,0,0-2.59-7.85c-.46-1-.74-2.21-1.52-2.26.22,0,.31-.16.15-.26-.18-.26-.57.05-.7.19-.26.29-.13,1.45,0,2.34s.41,2,.6,2.83c.36,1.66,1.09,3.45,1.39,5.18,0,.31.2.52-.11.57s-.19-.05-.34-.45c-.61-1.69-.95-3.25-1.47-4.89s-1.14-3.95-2-5.07c-.29.11-.64.13-.79.21a14.37,14.37,0,0,0,.89,5.32,37.41,37.41,0,0,1,1.48,5.48l-.35.1c-.7-2.56-1.65-6.05-2.56-8.93-.21-.66-.69-2.42-1.14-2.43s-.46.57-.63.82c.19,3.34,1.51,7.44,2.38,11.06l-.7.19c-.33-1.77-1.06-3.36-1.43-4.75-.32-1.19-.51-2.39-.94-3.7-.29-.89-.82-3-1.48-3.13a.82.82,0,0,0-.68.45,12.75,12.75,0,0,0,.46,2.71c.2,1.06.36,2.05.59,3,.41,1.71,1.07,3.64,1.41,5.45.1.53.21.57-.11.61s-.26-.24-.36-.54c-1-3-1.4-6.18-2.54-8.88-.46-1.09-1.29-3.36-2.1-1.84.7,3.4,2.22,8,3.11,11.77l-.6.17c-.72-2.61-1.68-6-2.59-8.66-.5-1.45-.65-3.33-1.86-3.35a8.47,8.47,0,0,0,.14,3.7c.52,2.49,1.45,5.41,2.13,7.93.08.29.43.93,0,1s-.3-.54-.38-.8a41.1,41.1,0,0,1-1.49-5.37c-.63-1.28-1-3.4-1.59-4.92-.17-.46-.64-1.17-1-1.11-.58.09-.43.57-.45.71a8.32,8.32,0,0,0-.2,1,16.26,16.26,0,0,0,.74,3c.65,2.44,1.35,4.66,2,7,.1.39.49,1.12.07,1.27a23.83,23.83,0,0,1-1-3.63c-.8-1.53-1.44-4.51-2.18-6.52-.35-.93-.73-2.26-1.72-1.62a42.76,42.76,0,0,0,1.26,7.09c.4,1.49,1,3.41,1.26,4.89.07.39.18.52-.11.57s-.29-.3-.39-.65c-1-3.49-1.87-6.59-2.85-9.81-.31-1-.84-2.42-1.83-2.23-.2.63,0,.34.06,1a65.75,65.75,0,0,0,2.29,10.92c.08.31.57,1.43.12,1.46-.26,0-.14-.1-.26-.57-1-4.08-2.06-8.16-3.23-11.63-.29-.34-.52-.81-1-.86-1,1.58.11,4.1.67,6.5s1.31,5,1.9,7.07l-.6.16c-.85-3.09-1.66-6.66-2.64-9.65-.5-1.5-.85-3.12-1.78-3.64a4.79,4.79,0,0,0-1.07.18c-.12,1.92.7,4.44,1.33,6.75s1.35,4.86,2,7c-.24,0-.57.22-.76.15-.9-3.79-1.64-7.21-2.81-11-.23-.79-.76-2.85-1.64-2.55-.57.19-.23,1-.21,1.6,0,.13-.1.47-.09.67A22.7,22.7,0,0,0,51.28,17c.51,2.56,1.47,5.87,2.09,8.42,0,.1.27.56,0,.59s-.14-.15-.17-.44c-1-3.39-2.11-7.57-3.05-10.78a4.93,4.93,0,0,0-1.57-2.46c-.63.77-.48,1.95-.3,3.07.57,3.66,2.24,7.83,3,11.22l-.59.16c-.7-1.94-1-4.36-1.67-6.61S47.75,15.55,47,13.72a1.11,1.11,0,0,0-.59-.59l.3-.08c0-.11-.67,0-.82.12-.39.93,0,2.14.18,3.26.7,3.6,1.62,7.42,2.67,10.93l-.7.19c-1.14-3.8-1.91-7.83-3.11-11.56-.24-.76-.88-3.05-1.62-2.88-.39.09-.33.48-.33.78a27,27,0,0,0,.79,4.55c.52,2.79,1.28,5.67,1.9,8.46.09.39.55,1.29-.16,1.38-.88-4.55-2.4-10.91-4.25-14.83-.19-.13-.68.25-.73-.13-.74,1-.08,2.82.23,4.43.68,3.63,1.92,7.65,2.67,11.14l-.6.17c-.56-2.5-1.19-5.41-2-8.12C40.2,19,39.71,16.84,39,15.11c-.22-.55-.43-1.18-1-1.27a2.11,2.11,0,0,0-.49.77c0,2.29.88,4.81,1.46,7.41.5,2.27,1.14,4.63,1.72,6.81,0,.19.38.71-.05.81-.22.07-.15-.3-.1-.35.11-.22-.2.12-.16-.22-.78-2.52-1.42-5.41-2.28-8.09a33.8,33.8,0,0,0-1.93-5.58c-.25-.46-.49-1.09-1.08-1.05-.55,1.94.06,4.42.59,7,.63,3.08,1.75,6.35,2.33,9.09l-.4.11c-.87-3.66-2.18-7.74-3.2-11.54-.4-1.47-.9-4.38-2.1-4.24-.56.06-.57.74-.6,1.17a13.54,13.54,0,0,0,.68,3.72c1,3.86,2,8.16,2.84,11.58l-.55.15c-.59-3.48-2.21-7.55-3-11-.14-.64-.25-1.26-.44-1.86s-.53-1.11-.65-1.64c-.06-.24,0-.45-.08-.67a2,2,0,0,0-1.3-.88c-.09.21-.32.35-.44.54.4,0,0,.44,0,.69a22,22,0,0,0,.88,3.88c.72,3.57,1.87,7.36,2.79,10.79,0,.2.36.66,0,.85s-.26-.36-.3-.51c-.4-1.58-.72-3.28-1.16-4.92-.53-1.94-1.21-3.78-1.77-5.4-.38-1.08-.41-2.12-.85-3.36-.29-.8-.85-2.41-1.64-2.12-.48.17-.61,1.11-.61,1.5a18.74,18.74,0,0,0,.75,3.8c.93,3.81,2,8.2,3.09,11.73a1.73,1.73,0,0,0-.53.19c-1-4-2.28-9.56-3.77-13.83-.44-1.28-1.46-4.16-2.47-2.44.31.18-.11.88-.11,1.37a19.16,19.16,0,0,0,.69,3.77c.87,3.9,2.37,8.13,3.06,11.78-.09-.06-.27,0-.41.06-1.14-3.7-2.14-8.54-3.49-12.37-.42-1.19-.62-3-1.27-3.93-.18-.25-1-.74-1.16-.54s-.11.35-.06.76c-.26,1.23.28,3.08.69,4.73.95,3.92,2.32,8,3.23,11.85l-.55.15c-1-3.93-2.09-8.54-3.36-12.51-.63-2-1.1-4.41-2.61-4.75-.84.81-.29,2.52,0,3.94,1,4.34,2,8.76,3.35,13.05.07.23.45.74.08.89-.27-.07-.34-.51-.42-.75-1-3.07-1.48-5.91-2.48-9.06-.66-2-1.15-4.06-1.84-5.86-.27-.68-.69-1.78-1.21-1.71s-.8,1.13-.83,1.51a16.24,16.24,0,0,0,.9,4.14c1,3.81,2.11,7.86,3.11,11.56.07.26.36.71,0,1-1.8-5.33-3.16-11.75-5-16.61-.35-.2-.79-1.09-1.34-.82-.37.19-.26,1.21-.13,1.91,1,5.26,2.71,10.89,3.88,16.22l-.45.12c-.8-4.57-2.54-9.68-3.66-14.41-.25-1.08-1.1-3.93-2-3.79-.5.07-.85,1-.86,1.35a10.31,10.31,0,0,0,.4,2.08c.17.79.42,1.57.6,2.25,1.06,4,2.16,8.3,3.35,12.08.1.31.39.9.06,1s-.24-.3-.27-.41c-.51-1.52-.75-3-1.15-4.45C10.9,28,9.6,24.06,8.32,20c-.23-.71-.59-1.53-1.41-1.28-.68,2.59.66,6,1.4,9.4.64,2.94,1.58,6,2.36,8.77.07.26.46.88-.06,1-.46-1.36-.78-2.86-1.18-4.38s-.8-3-1.21-4.49C7.32,25.61,6.3,21.41,5,19.07c-.66-.2-1.26.56-1.31,1.1A10.25,10.25,0,0,0,4,22.38c.42,2.33,1.08,4.77,1.65,7.15.69,2.82,1.26,5.56,2.12,8.29.09.26.49.8-.07.93-1.45-5-3.16-11-4.88-15.79-.56-1.58-.71-3.57-2.43-3.08-.18.43-.45.71-.36,1.22.05.31.27.52.38.86a24.66,24.66,0,0,1,.66,3.24c.22,1.12.55,2.25.86,3.4a64.82,64.82,0,0,0,1.72,6.8C4.47,37.47,5.16,40,5.88,42a14.89,14.89,0,0,1,.82,2,.79.79,0,0,1-.07.55c.34.07.52.42.84.52.16.19,0,.38.34.5a5.58,5.58,0,0,0,1.28,0c.47,0,.94,0,1.32,0a33.48,33.48,0,0,0,6.41-1.4c3.69-1,7.48-2,11.18-3,4.94-1.33,9.8-2.74,14.54-4.17s9.68-2.43,14.59-3.54S67,31,71.94,29.67c2.43-.65,4.79-1.49,7.22-2.15,7.36-2,14.54-4.12,22.07-6.14,5-1.34,9.65-2.75,14.67-4.1,3.58-1,7.52-2.07,11.14-3.05,1.25-.33,3.07-.71,3.42-1.18.22-.29.07-.37.07-.77C131.17,11.63,130.6,10.24,130.29,9ZM5.89,38c-.69-2.58-1.47-5.26-2.22-7.69-1-3.13-1.88-6.45-2.66-9.7C3.12,26.31,4.76,33.2,6.69,39,6.06,39.35,6,38.51,5.89,38ZM128.94,8c.11,0,.07.2.13.28a1.38,1.38,0,0,0-.29-.08C128.72,8,129,8.06,128.94,8ZM128,5.37c-.25,0-.36.23-.55.15C127.31,4.39,127,3,126.92,2,127.28,3.17,127.69,4.19,128,5.37Zm0,1.27c0-.17.34-.36.51-.29.14.25-.25.34-.45.49s-.34.36-.52.46-.82.23-1.12.41-.28.3-.4.32c-.33.06-.6-.31-.87-.25C126.28,7.51,127.07,6.77,128.05,6.64Zm-6.34,5.23a7.39,7.39,0,0,0-1.15-.7c.88-.7,1.44-.1,2.1.29a5.63,5.63,0,0,0,1.18.59C123,12.7,122.42,12.28,121.71,11.87Zm.39.86c-.59.37-1.23-.2-1.74-.5s-.88-.54-1.21-.74c.71-.5,1.25.22,1.8.54A4.84,4.84,0,0,1,122.1,12.73Zm.29-2.11c0-.13.34-.11.48-.18a15.89,15.89,0,0,0,2.19,1.18c0,.12-.35.1-.42.22C123.87,11.45,123.14,11,122.39,10.62Zm1.51-.35c1-.59,1.72.7,2.66.78C125.67,11.74,124.64,10.47,123.9,10.27Zm1.59-.43a.09.09,0,0,1,0-.11,9.28,9.28,0,0,1,2.16.86C126.81,10.85,126.26,10,125.49,9.84Zm0-3.84-.59.16c-.21-1.41-.4-2.81-.66-4.26C124.67,3.21,125,4.69,125.47,6ZM122,2.29a29,29,0,0,1,1.37,4.29l-.5.13C122.54,5.24,122.36,3.82,122,2.29Zm-2.45,0A45.21,45.21,0,0,1,121,7.19l-.4.11C120.31,5.66,119.84,4,119.51,2.31ZM117.38,3.9a2.68,2.68,0,0,1-.09-1.52c.49,1.79.88,3.56,1.47,5.48l-.4.1C118,6.74,117.67,5.23,117.38,3.9Zm-2.57-1.18c.79,1.52,1.07,4,1.74,5.68-.08.12-.35.13-.53.2C115.72,6.7,114.93,4.51,114.81,2.72Zm-2.3.35c.69,1.78,1.14,4,1.75,5.94-.19,0-.48.2-.61.11A41.18,41.18,0,0,1,112.51,3.07Zm-2,1.22a35.08,35.08,0,0,1,1.58,5.3l-.3.08C111.46,7.92,110.94,5.93,110.54,4.29ZM108,3.75a37.23,37.23,0,0,1,1.89,6.44c-.14,0-.37.17-.46.07C108.89,8.06,108.31,5.84,108,3.75Zm-2.49.08a49.15,49.15,0,0,1,2,6.2c.06.23.3.61.07.84-.32.06-.2-.34-.24-.47C106.77,8.29,106,5.76,105.49,3.83Zm-1.43,2.63c.65,1.49,1.07,3.36,1.62,5a1,1,0,0,1-.65.18C104.89,10,104.33,8.16,104.06,6.46Zm-2.64-.89c.81,1.9,1.31,4.35,2,6.46-.13.15-.49.16-.73.25A52.38,52.38,0,0,1,101.42,5.57Zm-2.94-.39c.86,2.43,1.7,4.9,2.41,7.58-.14,0-.59.21-.51.09C99.82,10.33,99.16,7.64,98.48,5.18ZM96.41,6C97,8.23,98,10.52,98.49,13c0,.1.23.39,0,.44s-.29-.57-.4-.91A36.52,36.52,0,0,1,96.41,6Zm-2.64.34a11.57,11.57,0,0,1,1,3.42A28.74,28.74,0,0,1,93.77,6.34ZM95,10.81c-.16-.2-.34-.79,0-.85C95.19,10.35,95,10.54,95,10.81Zm.31.18c.12,1.07.72,2,.72,3.07-.3-.05-.36-.76-.47-1.16s-.29-1-.36-1.34S95,11.08,95.34,11Zm-1.42,3.64-.35.1c0-.13-.07-.27-.11-.4.12.07.24,0,.35-.09C93.85,14.37,93.88,14.5,93.92,14.63Zm-.53-1.77a1.2,1.2,0,0,1,.07,1.26,6.46,6.46,0,0,1-.39-1.24C93.19,12.85,93.24,12.93,93.39,12.86ZM92.12,9.35a10.45,10.45,0,0,1-.36-1.56c0-.15-.22-.63-.1-.56.18.71.43,1.3.64,2C92.2,9.22,92.27,9.35,92.12,9.35Zm.17.43c.4-.11.32.59.19.7A1.09,1.09,0,0,1,92.29,9.78Zm.24,1.06c.12,0,.08-.12.23-.12a.62.62,0,0,1,0,.66C92.58,11.32,92.6,11,92.53,10.84Zm.22.85c.12-.06.13.06.27,0a.83.83,0,0,1,0,.95C92.88,12.43,92.87,12,92.75,11.69ZM89.07,7.12c1,2.48,1.8,5.54,2.52,8.19-.16,0-.58.19-.48,0C90.48,12.54,89.34,9.65,89.07,7.12Zm-2.53-.07c.32.27.24.62.32,1,.5,2.52,1.63,5.57,2.15,8-.11,0-.31.15-.36,0A70.88,70.88,0,0,1,86.54,7.05Zm-2.42.55c1.08,2.88,1.77,6.11,2.86,9.06-.25,0-.53.27-.61.11C85.72,13.77,84.59,10.49,84.12,7.6Zm-2.37.31c.67.8.62,1.91.9,3,.56,2.14,1.47,4.38,1.91,6.53-.15,0-.41.18-.51.09C83.64,14.51,82.42,11.05,81.75,7.91Zm-2.45,1a11.3,11.3,0,0,1,1,2.84c.6,2,1.32,4.23,2,6.19-.29,0-.68.25-.91.19C80.69,15.08,79.68,11.83,79.3,8.94Zm-2.62.6c1,3,2,6,2.84,9.18-.21,0-.52.2-.66.12C78.19,15.77,77.2,12.52,76.68,9.54Zm-2.22.28c.82,3.19,1.94,6.2,2.82,9.5-.23,0-.55.21-.71.14C75.94,16.28,74.77,12.78,74.46,9.82Zm-.21,9c.15.4.31.78.44,1.22l-.75.2c-.09-.31-.17-.63-.26-.94C74.05,19.24,74.09,18.8,74.25,18.79Zm-.43-1.21c.15.1.14.47.23.68-.26.08-.34.28-.46.44-.13,0-.11-.3-.17-.43A2.27,2.27,0,0,0,73.82,17.58Zm-1.24-2.82s0,0-.06,0c-.46-1.63-.62-3.08-.93-4.62-.1-.8.12.39.15.55.29,1.31.77,2.64,1.13,3.81C72.82,14.59,72.62,14.62,72.58,14.76Zm.23.84c-.3-.28.13-.51.11-.77.13,0,.11.34.18.48C73,15.38,72.83,15.47,72.81,15.6ZM73,16.83a.9.9,0,0,1,.23-1.13A.85.85,0,0,1,73,16.83Zm.57,0c0,.13.07.26.11.4-.24.11-.3.33-.39.53C73,17.35,73.4,17,73.6,16.78Zm-4.21-5.55c1.16,2.75,2,6.52,2.87,9.49l-.2.05c-.07,0-.14.05-.16,0C71.19,17.65,70.13,14.25,69.39,11.23Zm.24,9.28a.82.82,0,0,1-.26,1c-.05-.16-.09-.33-.14-.49C69.45,20.88,69.41,20.62,69.63,20.51ZM69.07,20c.11-.1.15-.41.33-.35,0,.39-.22.6-.22,1a7.1,7.1,0,0,1-.48-1.37A.92.92,0,0,0,69,18.6C69.52,19,68.78,19.41,69.07,20Zm-1.61-5.39a16.39,16.39,0,0,1-.8-3.36C66.93,12.29,67.86,13.7,67.46,14.58Zm.39.06c.27.56-.07.78-.06,1.19C67.53,15.44,67.46,14.8,67.85,14.64ZM67.79,16c.24,0,.21-.25.34-.36.3.35-.09.66-.13.95C67.86,16.55,67.87,16.21,67.79,16Zm.5,1.63c-.38-.45,0-.86.11-1.15C68.8,17,68.35,17.27,68.29,17.67Zm.49-.13c.27.63-.13.87-.17,1.33A1,1,0,0,1,68.78,17.54Zm-1.37,4.05c.07.19,0,.29,0,.44l-.25.07C67.24,21.94,67.21,21.69,67.41,21.59Zm-.55.31c-.44-.54.14-.87.19-1.28C67.39,21.12,66.87,21.47,66.86,21.9Zm-.24-1.06c-.33-.44.13-.77.19-1.12C67.11,20.14,66.62,20.46,66.62,20.84Zm0-2c.17.47-.19.65-.21,1C66,19.49,66.41,19.13,66.58,18.88Zm-2.36-7.6c.42,1.19.81,2.86,1.22,4.16.19.6.48,1.12.21,1.55A35.59,35.59,0,0,1,64.22,11.28Zm1.65,6.56c-.12,0-.1-.31-.17-.44.16-.06.13-.24.3-.29C66.15,17.47,65.86,17.56,65.87,17.84Zm.26.95c-.29-.29,0-.59,0-.82C66.55,18.16,66.15,18.55,66.13,18.79Zm-1.17,4c0-.17.17-.27.2-.43C65.35,22.48,65.2,22.77,65,22.79ZM65,21.65c0,.48-.37.74-.5,1.14C64.41,22.42,64.8,22,65,21.65Zm-.68.45c-.13,0-.1-.28-.16-.39a4,4,0,0,0,.52-.83C64.84,21.26,64.37,21.66,64.35,22.1Zm.19-1.87c0,.46-.34.67-.34,1.11-.13,0-.11-.31-.18-.44C64.28,20.75,64.34,20.27,64.54,20.23Zm-2.62-8.17c.51,1.18.93,3.13,1.38,4.55.21.67.47,1.22.07,1.63C62.71,16.09,62.36,14.1,61.92,12.06Zm1.87,6c.32.7-.07,1,0,1.51.25.09.15-.32.38-.37.28.6-.2.78-.2,1.23C63.71,19.66,63.07,18.34,63.79,18Zm-2,5c-.06,0-.07-.08-.09-.13.1-.35.38-.59.49-.94C62.33,22.3,61.84,22.64,61.76,23Zm-.18-.86c-.14-.07-.13-.4-.21-.58a8.47,8.47,0,0,0,.54-.79C62.24,21.48,61.7,21.69,61.58,22.14Zm-.28-1c-.13,0-.11-.34-.18-.49.11-.27.35-.47.43-.76C62,20.38,61.39,20.72,61.3,21.1Zm-1.42-5.87c-.32-.92-.36-2-.6-3.05C59.49,12.94,60.27,14.43,59.88,15.23Zm.3-.08c.18.2.2.67.32,1a.37.37,0,0,0-.34.3C60,16.06,59.91,15.39,60.18,15.15Zm.31,1.14c.46.33,0,.83-.08,1.09C60,17,60.42,16.61,60.49,16.29Zm.34,1.09c.33.35-.13.62-.18.9C60.3,17.91,60.79,17.66,60.83,17.38Zm-.16,1.37a1.56,1.56,0,0,0,.41-.64c.38.47-.14.78-.23,1.13C60.72,19.2,60.74,18.9,60.67,18.75Zm.35,1.3c0-.12-.06-.23-.1-.35a1.7,1.7,0,0,0,.42-.64C61.65,19.46,61.21,19.8,61,20.05Zm-1.5,3.77c-.24-.26.2-.5.22-.75C60,23.31,59.55,23.57,59.52,23.82Zm-.15-.76c-.27-.27.15-.5.17-.74C59.74,22.55,59.42,22.83,59.37,23.06Zm-.78-2.68c-.68-2.61-1.21-4.88-1.7-7.34,0-.09,0-.12,0-.07.4,1.49,1,3.39,1.4,5,.23,1,.7,1.81.33,2.43C58.62,20.44,58.61,20.41,58.59,20.38Zm.12.45a.56.56,0,0,0,.29-.35c.34.39,0,.75.08,1.11.12.13.14-.23.3-.08.2.48-.12.66-.16,1A12.87,12.87,0,0,1,58.71,20.83Zm-3.77-3.32A20.38,20.38,0,0,0,54.16,13c1.4,3.54,2.3,8,3.53,11.77a1.54,1.54,0,0,1-.84.23C56.51,22.42,55.36,20.11,54.94,17.51Zm-2.78-1.17c0-.1,0-.2-.07-.3s0-.25,0-.07c1,3.14,1.85,6.45,2.8,9.62l-.7.19a1.15,1.15,0,0,1,0-.33C53.52,22.4,52.7,19.28,52.16,16.34Zm-.32,7.35c0,.07.09,0,.09-.08a25.32,25.32,0,0,1,.74,2.58,5.49,5.49,0,0,0-.78.27,22.41,22.41,0,0,0-.58-2.79,2.66,2.66,0,0,0,.34-.89C51.78,23,52,23.52,51.84,23.69Zm-2.51-7.56a3.69,3.69,0,0,0-.1-1,4.2,4.2,0,0,1,.47,1.15c0,.29-.13.53-.12.73C49.61,17.59,49.37,16.41,49.33,16.13ZM50,17a1.49,1.49,0,0,1,0,1.13C49.69,17.77,49.48,17.05,50,17Zm.26,2.17a1,1,0,0,1,0-1.12C50.58,18.49,50.18,18.84,50.21,19.21Zm.38,0c.45.45,0,1-.05,1.4C50.24,20.14,50.51,19.62,50.59,19.22ZM51,20.45c.36.53-.11.95-.1,1.42C50.46,21.3,51,20.9,51,20.45Zm.24,2.66c-.4-.59,0-1.1.18-1.49C51.66,22.31,51.22,22.58,51.21,23.11Zm-4.6-8C47.92,19,48.81,23,50.05,27c-.21.05-.49.28-.7.19C48.33,23.09,47.47,19.12,46.61,15.15Zm-2.69.51c.23.25.1.66.27,1C44,16.61,44,16,43.92,15.66Zm.73,3.12c1,2.77,1.81,5.92,2.67,9a1,1,0,0,1-.65.17C46.1,24.93,45.37,21.85,44.65,18.78ZM41,15.1c1.58,4.13,2.47,8.87,3.85,13.34-.27,0-.64.25-.86.18C43.32,24.28,41.86,19.51,41,15.1Zm-2.1,3.13C40,22,41,25.71,42.21,29.22c-.22,0-.54.21-.71.13C40.66,25.65,39.71,21.89,38.94,18.23Zm1,11.49a1,1,0,0,1-.65.33c.07-.34.37-.54.46-.87C39.88,29.24,39.87,29.56,39.94,29.72Zm-1.3.51c-.19-.88.56-1.45.82-1.93C39.76,28.93,38.87,29.76,38.64,30.23Zm.65-2.53c-.23.51-.58,1-.77,1.49-.55-.93.4-1.37.52-2.06A1.88,1.88,0,0,1,39.29,27.7Zm-1.07.18c-.47-.76.36-1.14.51-1.68C39.09,26.89,38.24,27.26,38.22,27.88ZM35.57,16a14.93,14.93,0,0,1,.87,2.81c.36,1.15,1,2.22.37,2.79A48.87,48.87,0,0,1,35.57,16Zm1.3,6c.29-.06.34-.25.42-.44.53.53.06,1.11-.14,1.49C36.92,22.83,37,22.41,36.87,22.05Zm.86.83c.47.71-.15,1-.3,1.47A1.14,1.14,0,0,1,37.73,22.88ZM38,24c.52.66-.2,1-.34,1.53C37.23,24.84,37.82,24.41,38,24ZM38,26.67c-.46-.71.3-1.09.42-1.61.13.14.17.44.28.62A3.2,3.2,0,0,0,38,26.67Zm-1.07,4a1,1,0,0,1-.38.15,5.09,5.09,0,0,1,.22-.54C36.85,30.27,36.82,30.54,36.88,30.65Zm-.33-1.25A1.85,1.85,0,0,1,36,31l-.18-.65C36.25,30.15,36.27,29.52,36.55,29.4ZM35.8,30c-.15-.14-.16-.55-.26-.79.44-.15.48-.54.69-.82C36.61,29.09,35.85,29.46,35.8,30Zm-.32-1A1.6,1.6,0,0,1,36,27.36C36.27,28.16,35.76,28.51,35.48,29Zm-.74-3.91a62.1,62.1,0,0,1-1.8-8.5c.55,2.54,1.46,5.23,2.28,7.89C35.22,24.76,34.75,24.78,34.74,25.08Zm.55-.15A1.39,1.39,0,0,1,35,26.71C34.7,25.88,35.1,25.47,35.29,24.93Zm.34,1.24c.49.71-.18,1.11-.33,1.59C34.85,27.08,35.39,26.6,35.63,26.17Zm-5.94-9.35a6.46,6.46,0,0,1,.52,1.94c1.1,4.14,2.55,8.44,3.71,12.79-.24,0-.37.26-.55.15C32.39,26.87,30.67,21.53,29.69,16.82Zm-2.6.64c1.24,4.73,3.05,9.79,4.55,14.76a1.77,1.77,0,0,1-.9.23C29.62,27.51,28,22.26,27.09,17.46Zm-2.95.37a42.18,42.18,0,0,1,2.27,7.45C27,28,27.9,30.56,28.53,33.16a6.12,6.12,0,0,1-.77.15c-.06,0-.14,0-.16,0C26.39,28.11,24.8,22.7,24.14,17.83Zm-2.53,2.49c1.33,4.47,2.73,9.2,4,13.51a.44.44,0,0,0-.31,0c-.07,0-.14,0-.16,0C24,29.31,22.64,24.68,21.61,20.32Zm-1.08,7.34c-.72-3-1.85-6.26-2-8.86,1.57,5.18,3.14,10.33,4.63,15.64a4.06,4.06,0,0,1-1.06.23C21.66,32.43,21.12,30.07,20.53,27.66ZM17.37,27a57.14,57.14,0,0,1-1.94-8.19,16.42,16.42,0,0,1,1.34,4c1.26,3.95,2.45,8.32,3.73,12.3-.33,0-.75.27-1,.22C18.81,32.64,18.11,29.8,17.37,27Zm2.09,9.59c.69-.19,1.42-.5,1.81-.22a1.14,1.14,0,0,1,.67-.5,40.38,40.38,0,0,1,4.31-1c.75-.2,1.45-.51,2.22-.71,2.1-.54,4.35-1.16,6.61-1.82,5.93-1.74,12.24-3.45,18.25-5.07,3.1-.83,6.09-1.82,9-2.63.72-.2,1.66-.51,2.1-.14.32-.56,1.41-.7,2.48-.93,1.83-.41,3.92-.93,5.83-1.35,2.94-.66,5.5-1.69,7.85-2.22a1.09,1.09,0,0,1,.8,0,1.7,1.7,0,0,1,.54-.36,29.72,29.72,0,0,1,3.49-.93,13.2,13.2,0,0,1,3.33-.74,6.67,6.67,0,0,1,2.2-.75c2.41-.68,5.1-1.61,7.45-2.11,1.22-.25,2.49-.84,3.73-1.05a2,2,0,0,1,.39-.11c.09,0,.15.18.2.16s.09-.21.15-.25.26-.06.35-.1a34.86,34.86,0,0,1,3.44-.92c1.12-.3,2.24-.65,3.37-1,2.32-.62,4.55-1.59,6.62-1.83.24,0,.33-.07.55.07.19-.42.81-.38,1.41-.54s1.48-.64,2-.44c1.22-.68,3-.84,4.39-1.34-.13.29.36.42.31.56-.55.35-.68-.22-1.17-.17-.15.16.26.48,0,.53-.46.24-.63,0-.89-.14-.29.1.15.38-.16.42-7.72,1.91-15.53,4.22-23.46,6.35C95.52,16.45,91,17.1,87.25,18.67c-.26.11-.47.36-.73.46a26.56,26.56,0,0,1-3.86.93c-2.57.57-5.14,1.31-7.74,2-1.23.34-2.34.89-3.51,1.26s-2.75.58-4.12.95c-3.94,1.06-8.18,2.14-12.33,3.25-5.73,1.54-11.8,2.51-17.32,4.34-3.11,1-6.3,1.73-9.41,2.74s-6.32,1.71-9.47,2.54c-.1,0-.16,0-.18-.06C18.46,36.75,19.08,36.71,19.46,36.61Zm82.23-18.29c-.93.08-1.55.65-2.23.65S97.78,17.68,97,17.55a26.17,26.17,0,0,1,4.12-1.37c.4.95,1.38,1.29,1.92,1.78l-.65.17a21.21,21.21,0,0,1-2.13-1.57C100.56,17.4,101.31,17.86,101.69,18.32ZM73.18,24.16c.12-.16.51-.16.73-.25a7.34,7.34,0,0,0,2.32,1.46c-.11.12-.35.16-.52.24C75,25.13,74,24.64,73.18,24.16Zm2.37,1.45a4.12,4.12,0,0,1-1,.31c-.78-.49-1.64-.85-2.4-1.38,0-.2.66-.26.72-.3A11.82,11.82,0,0,0,75.55,25.61Zm0-1a8.75,8.75,0,0,0-1.31-.72.46.46,0,0,0,.43-.38c.5.22.91.56,1.39.8s1,.47,1.47.68C76.85,25.44,76.19,24.93,75.6,24.63Zm-.2-1.17c.41-.5.81-.08,1.21.15.69.4,1.6.79,2.23,1.11l-.5.14C77.32,24.46,76.39,23.9,75.4,23.46Zm2.71.34-1.42-.69c.57-.43,1.28.27,1.91.55s1.09.43,1.55.6C79.38,24.73,78.73,24.09,78.11,23.8Zm1.45-.34c-.61-.26-1.13-.52-1.62-.69A17.21,17.21,0,0,1,80.71,22a3.48,3.48,0,0,1,1.41.63,10.75,10.75,0,0,1,1.29.83c-.92.12-1.58.59-2.3.62A5.41,5.41,0,0,1,79.56,23.46Zm2.18-1.66c.67-.42,1.33.15,1.88.46a8,8,0,0,1,1.23.79l-.75.2A23.68,23.68,0,0,0,81.74,21.8Zm1.41-.32c.5-.48,1.18.14,1.67.46a11.71,11.71,0,0,1,1.13.82l-.6.16A6.5,6.5,0,0,0,83.15,21.48ZM85.9,22s.77.35.83.53C86.36,22.47,86.19,22.11,85.9,22Zm-.76-1c.62-.45,1.16.27,1.65.57a5.2,5.2,0,0,0,1.27.56c-.07.15-.4.14-.58.22A10.1,10.1,0,0,0,85.14,21Zm1.11-.25c1.24-1,2,1.28,3.24.73-.47-.56-1.4-.74-1.77-1.23l.6-.16a11.11,11.11,0,0,0,2.19,1.39,15.72,15.72,0,0,1-1.93.57C87.92,21.63,87,21.2,86.25,20.7Zm2.68-.77c.1-.15.47-.15.68-.24A7.69,7.69,0,0,0,91.74,21c-.1.15-.48.15-.69.24C90.31,20.89,89.65,20.36,88.93,19.93Zm1.31-.3c.51-.56,1.11.19,1.57.49s.91.4,1.09.67l-.55.14A11.4,11.4,0,0,1,90.24,19.63Zm2.27.3-1.09-.67c1-.63,1.59.28,2.33.71.3.18.57.15.69.4C93.49,20.84,93.08,20.29,92.51,19.93Zm.5-1.1c.11-.15.48-.15.69-.24.56.51,1.37,1,1.83,1.44l-.5.13C94.37,19.69,93.7,19.25,93,18.83Zm1.35-.36c.71-.62,1.22.07,1.82.42a5.36,5.36,0,0,0,1.23.58,4.59,4.59,0,0,1-1.14.36C95.73,19.82,94.86,18.66,94.36,18.47Zm1.33-.41c.06-.28.59-.28.91-.41a23.82,23.82,0,0,0,2,1.55l-.64.17C97.18,19,96.49,18.43,95.69,18.06Zm5.59-1.88c.14-.16.54-.16.78-.26.47.89,1.48,1.24,2,1.76l-.49.13C102.8,17.29,102.06,16.7,101.28,16.18Zm2.3.61c-.51-.36-.87-.64-1.2-.9.1-.15.47-.15.68-.24a8.44,8.44,0,0,0,2.17,1.72C104.55,17.67,104.11,17.17,103.58,16.79Zm1.27-.23c-.47-.31-.89-.64-1.36-.92,0-.21.37-.15.52-.24.51.91,1.64,1.14,2.22,1.7C105.67,17.23,105.23,16.81,104.85,16.56Zm-.38-1.23c.07-.14.41-.13.58-.21a6.62,6.62,0,0,0,2.47,1.63c0,.13-.31.1-.43.17A29,29,0,0,1,104.47,15.33Zm2.25.62c-.56-.35-1-.62-1.3-.88.39-.39.67.11,1,.33.63.41,1.47.79,2.06,1.1C107.84,16.91,107.29,16.3,106.72,16ZM54.41,30.27c-.5-.29-.93-.52-1.32-.72.72-.59,1.38.12,2,.48a4.77,4.77,0,0,0,1.36.7C55.58,31.3,55,30.62,54.41,30.27Zm.66.84c-.06.13-.38.12-.54.19-1-.34-1.9-1-2.89-1.41.84-.53,1.43.15,2.06.51A6.67,6.67,0,0,0,55.07,31.11Zm.75-1.17c-.58-.33-1-.55-1.39-.8.77-.5,1.39.21,2,.54a10.11,10.11,0,0,0,1.42.69C56.94,30.92,56.48,30.32,55.82,29.94Zm-.08-1.1c0-.24.54-.19.77-.31.87.47,1.69,1.06,2.59,1.49-.13.16-.54.17-.78.27C57.47,29.78,56.61,29.31,55.74,28.84Zm1.49-.4c.18-.2.52-.06.8-.21a8.83,8.83,0,0,0,2.42,1.43c-.12.15-.51.16-.74.25C58.84,29.49,58.08,28.89,57.23,28.44Zm2.54.5a11.12,11.12,0,0,0-1.43-.75c.22-.22.59-.1.9-.24a8.64,8.64,0,0,0,2.63,1.44C61,29.83,60.48,29.31,59.77,28.94ZM36,33.67a13.92,13.92,0,0,0,3.33,2c-.18.18-.67.17-.87.34a33.39,33.39,0,0,0-3.19-2.13C35.37,33.76,35.76,33.76,36,33.67ZM20.29,38.31c.61-.52,1.46.32,2,.59a5,5,0,0,0,1.56.65c-.12-.48-.66-.72-1.06-.95a5.68,5.68,0,0,1-1.21-.74l.55-.15c.85.54,1.88,1.16,2.63,1.65l-1.84.49C22,39.38,21.18,38.78,20.29,38.31ZM22.24,40c-.94.56-1.37,0-2-.42s-.91-.63-1.25-.89c.62-.57,1.29.24,1.86.57A10.43,10.43,0,0,0,22.24,40Zm.62-2.47c.61,0,1,.45,1.47.73a3.83,3.83,0,0,0,1.5.61c-.51-.76-1.6-.92-2.06-1.53.64-.14,1.14.36,1.61.64s1,.59,1.4.85c-.58.06-.93.38-1.39.37A11,11,0,0,1,22.86,37.51Zm3.35.33a14,14,0,0,1-1.33-.76c.16-.2.51-.12.74-.2.83.63,1.79,1,2.67,1.58C27.35,38.82,26.84,38.21,26.21,37.84Zm1.42-.27c-.6-.33-1.06-.55-1.44-.79.13-.16.54-.17.78-.27.78.62,1.86,1.11,2.57,1.61C28.7,38.52,28.24,37.9,27.63,37.57Zm-6.88,2.86-1.39.37c-1-.49-1.92-1-2.86-1.48.39-.35,1.32-.39,1.92-.62A13.47,13.47,0,0,0,20.75,40.43ZM10,40.8c.69-.19,1.51.34,2.15.65a8.15,8.15,0,0,0,1.59.75c-.07.14-.41.13-.58.21C12.11,41.88,11.08,41.31,10,40.8Zm2.41,1.81c-.91.38-1.74-.41-2.34-.76s-1.19-.66-1.7-.93c.17-.13.56,0,.84-.07C10.21,41.53,11.53,42,12.42,42.61Zm-.91-2s.05,0,.08-.07a4.39,4.39,0,0,1,1.63.68,11.94,11.94,0,0,1,1.44.79c-.33.13-.58-.18-.83-.31C13.1,41.32,12.28,41,11.51,40.61Zm2.76.54-1.65-.78c0-.23.44-.17.62-.27a9.12,9.12,0,0,0,2.6,1.54C15.26,41.93,14.73,41.38,14.27,41.15Zm.86-.39a11.65,11.65,0,0,1-1.39-.8L15,39.63c0,.1-.18.11-.08.28.64.68,1.74.94,2.31,1.47C16.36,41.65,15.76,41.09,15.13,40.76Zm0-1.11c.86-.55,1.5.26,2.14.6a14.29,14.29,0,0,0,1.57.65c-.14.16-.54.16-.79.26C17,40.73,16.15,40,15.09,39.65Zm3-2.35a6.43,6.43,0,0,1-1.19.37.77.77,0,0,0,.26-.45l.75-.2C18,37,18,37.3,18.1,37.3ZM13.39,21c1.38,4.75,2.69,10,4,15l-.3.08c-.07,0-.14,0-.16,0C15.57,30.94,14.38,25.9,13.39,21Zm-3.21-1.22c.72,1.31.94,3.3,1.42,5.07,1,3.79,2.38,8,3.33,11.82l-.4.11c-.07,0-.14,0-.16,0C13.09,31.06,10.94,25.09,10.18,19.76ZM7.75,21.05c1.51,5.35,3.37,10.57,4.84,16.23l-.75.2c-.07,0-.14,0-.16,0C10.27,31.94,8.68,26.31,7.75,21.05Zm3.43,17.73c.24,0,.27.3.46.35s.18-.32.24-.49l4.49-1.2c.22,0,.21.33.48.19-1.43.54-3.24.95-4.84,1.46a14.1,14.1,0,0,1-3.32.57C9.1,39.12,10.37,39.09,11.18,38.78ZM9.71,38.1l-.5.14c.22-.27.3-.62.58-.85C9.93,37.72,9.76,37.88,9.71,38.1ZM9.5,36.51c0,.72-.6,1.14-.69,1.83-.16-.13-.16-.54-.26-.78C9.09,37.37,9.17,36.68,9.5,36.51ZM8.67,37a4.31,4.31,0,0,1,.47-1.42C9.41,36.13,8.78,36.52,8.67,37Zm-.42-1c-.47-.82.44-1.21.52-1.85C9,34.84,8.31,35.39,8.25,36ZM4.64,20.23c.74,1.69,1.4,4.36,2,6.25a2.71,2.71,0,0,1,.21.58c0,.45-.47.76-.49,1.15C5.9,25.78,5.08,22.79,4.64,20.23Zm2.28,7.29c.43.7-.24,1.13-.29,1.69C6.17,28.49,7,28.14,6.92,27.52Zm.33,1.2c.33.61-.31,1-.39,1.55C6.48,29.63,7.19,29.25,7.25,28.72Zm-.33,2.17c.25-.36.41-1,.69-1.2a11.18,11.18,0,0,1-.52,1.64C7,31.3,7,31,6.92,30.89Zm.92-.35c.38,1-.41,1.31-.47,2.05C7,31.77,7.6,31.14,7.84,30.54Zm-.12,3.34C7.1,32.82,8,32.26,8,31.45,8.63,32.49,7.91,33.15,7.72,33.88ZM8,35c-.48-.87.42-1.3.48-2C8.75,33.8,8.11,34.39,8,35Zm.39,4.44c.07,0,.06.18.19.11-.13.18-.44,0-.62.06C8,39.52,8.24,39.55,8.37,39.48Zm-.71,2.11c.85.32,1.78,1.15,2.75,1.51-.23.1-.5-.12-.71-.24C9.06,42.49,8.33,42,7.66,41.59Zm94.92-22.34c-7.71,2.44-16.1,4.28-24.28,6.85-1.71.53-3.46.87-5.2,1.34-5.23,1.4-10.66,2.65-15.9,4.27-6.9,2.13-13.9,3.73-20.6,5.85-2.14.68-4.36,1.21-6.56,1.82-1.05.29-2.06.73-3.09,1-3.26,1-6.54,1.72-9.81,2.47-2.81.65-5.82,1.54-8.22,1.41C15,43,23.16,41,29.62,39c.57-.18,1.15-.52,1.59-.22.22-.07-.09-.25,0-.32,1.07-.29,2.19-.93,3.27-1.15.32-.06.63,0,.84-.23-.48-.48-1.33,0-2,.16s-1.52.34-2.17.48a4,4,0,0,1-.8.21,5.65,5.65,0,0,1-1.54-.76c-.52-.27-1-.56-1.39-.8,2-.64,4.21-1.17,6-1.93a13.79,13.79,0,0,0,4.22,2.39c0-.48-.69-.35-.89-.72-1-.53-2.16-1.28-3.08-1.74.35-.12.62-.39,1-.38.22,0,.6.4.84.58.81.57,1.87,1.18,2.59,1.65-.13,0-.2.08-.23.17.93.1,2.51-.59,3.37-.8-.05-.28.7-.34.91-.4-.63-.4-1.57.33-2.2.38s-1.45-.7-1.86-.95a17.06,17.06,0,0,1-1.67-1.05c.33-.1.57-.06.91-.19A11,11,0,0,0,40.77,35c-.05-.3-.42-.4-.67-.52-.75-.36-1.66-.73-2.4-1.17,4.33-.87,8.85-2.1,13.38-3.32.82.56,1.92,1,2.65,1.53a27.71,27.71,0,0,0-5.57,1.92c2.47-.3,5.6-1.5,8-1.94,1.71-.54,4-1.29,5.77-1.77.41-.11,1,0,1.19-.37-.15-.26-.55-.08-.87,0-.89-.51-2-1-2.79-1.44.89-.1,1.46-.55,2.16-.53a9.18,9.18,0,0,1,1.6.8,7.13,7.13,0,0,0,1.64.74c-.59-1-1.93-1.09-2.63-1.65.83-.44,1.16,0,1.71.23a11.92,11.92,0,0,0,2.69,1.05c-.26-.45-1-.63-1.52-.88A8,8,0,0,0,63.42,27c2.27-.6,5.27-1.43,7.5-2.13a3.23,3.23,0,0,1,.68-.24c.29,0,.74.54,1,.7.46.31,1,.5,1.42.74-2.28.63-4.59,1.26-6.8,1.93,1.11.41,2.48-.26,3.75-.57,2.35-.58,5-1.36,7.51-2.08a8.94,8.94,0,0,1,3.23-.7c.22,0,.09-.29.28-.35A14.93,14.93,0,0,1,83.44,24a29.45,29.45,0,0,1,3.85-1c.24,0,.4.13.63.15s.11-.3.33-.36c7.14-2,14.68-4.21,21.32-5.78C107.37,17.91,105,18.5,102.58,19.25Zm6.56-2.83c-.93-.49-1.84-1-2.73-1.61.11-.16.48-.15.69-.24a11.37,11.37,0,0,0,2.63,1.64C109.66,16.35,109.32,16.34,109.14,16.42ZM109,15.34l-1.35-.87c0-.13.34-.11.48-.18.58.88,1.67,1.24,2.3,1.79A3.38,3.38,0,0,1,109,15.34Zm2.39.53c-1-.48-1.87-1.1-2.79-1.65,0-.05,0-.1.07-.13.63,0,1.13.51,1.65.79a11.28,11.28,0,0,1,1.52.87Zm-.18-1.07A10.85,10.85,0,0,0,109.5,14c0-.26.62-.21.87-.34A18.59,18.59,0,0,0,113,15.43C112.29,15.6,111.74,15.08,111.22,14.8Zm1.13-.36L111,13.58c.72-.66,1.55.35,2.1.66a6.33,6.33,0,0,1,1.44.79C113.58,15.49,113,14.82,112.35,14.44Zm1.45-.39a5.12,5.12,0,0,1-1.37-.91c.9-.42,1.54.3,2.15.65a10.71,10.71,0,0,0,1.53.71C115.12,15.09,114.57,14.5,113.8,14.05Zm1.33-.41c-.52-.3-1-.61-1.39-.8.68-.54,1.21.17,1.67.46a14,14,0,0,1,1.74.92C116.35,14.55,115.7,14,115.13,13.64Zm1.31-.3c-.5-.29-1-.59-1.34-.81.74-.5,1.39.25,2,.59a6.75,6.75,0,0,1,1.28.78C117.64,14.18,117,13.65,116.44,13.34Zm1.25-.33a8.3,8.3,0,0,0-1.28-.78c0-.22.4-.16.57-.26a8.5,8.5,0,0,0,2.44,1.53C118.91,13.83,118.16,13.29,117.69,13ZM120,14.26a.92.92,0,0,1,.65-.18A1,1,0,0,1,120,14.26Zm-1.07-1.59a10.9,10.9,0,0,1-1.34-.81c.17-.17.61-.18.88-.29.78.62,1.69,1,2.51,1.57C120,13.61,119.6,13.06,118.93,12.67ZM121.14,14c.2-.22.89-.45,1.1-.3A2.62,2.62,0,0,1,121.14,14Zm1.37-.48a1.3,1.3,0,0,1,1.27-.23C123.48,13.4,122.75,13.67,122.51,13.47Zm1.49-.24c-.17.07-.06-.27-.28-.24.63-.31,1.36-.61,1.85-.28C125.14,12.94,124.45,13,124,13.23Zm1.72-.94c.42-.43.85,0,1.28,0A1.13,1.13,0,0,1,125.72,12.29Zm1.89-.13a.93.93,0,0,0-.57-.33c.33-.43,1-.34,1.43-.22C128.31,11.86,127.9,12,127.61,12.16Zm.6-1.93c-.6-.22-1.14-.55-1.71-.82.83-.59,1.4.35,2.17.33C128.62,10,128.33,10.05,128.21,10.23Zm.84-.86c-.46.14-.86-.4-1.35-.44.26-.51.91-.41,1.29-.19C129.05,9,129.15,9.23,129.05,9.37Z"/></g></g></svg>