<svg xmlns="http://www.w3.org/2000/svg" viewBox="0 0 80.12 72.15"><defs><style>.cls-1{fill-rule:evenodd;}</style></defs><g id="Capa_2" data-name="Capa 2"><g id="Layer_1" data-name="Layer 1"><path class="cls-1" d="M24.38,14.75a9,9,0,0,0-1.83-.93s-.09,0-.13.09,0,.12.06.18c.22.16.46.38.67.52.37.24,2.44,1.72,2.67,1.39S24.74,15,24.38,14.75Z"/><path class="cls-1" d="M23.17,10.41A6.87,6.87,0,0,0,22.43,8a15.44,15.44,0,0,0-1.16-2.57s-.05,0-.08,0A8.59,8.59,0,0,0,22,8,5.9,5.9,0,0,0,23.17,10.41Z"/><path class="cls-1" d="M24.3,13.29c-.38-.23-.83-.51-1.08-.43l-.06.08a15.5,15.5,0,0,0,3.09,2.25C26.52,14.52,24.94,13.66,24.3,13.29Z"/><path class="cls-1" d="M15.68,26.91c-.46-.39-.92-1.06-1.29-.92a7.08,7.08,0,0,0,2.21,1.83c.29.51-.06-.2-.29-.42S15.9,27.1,15.68,26.91Z"/><path class="cls-1" d="M21.56,16.33l.13.09a18.78,18.78,0,0,0,1.91,1.34c.29.18.67.49.94.26a14.14,14.14,0,0,0-2.84-1.79C21.65,16.28,21.6,16.25,21.56,16.33Z"/><path class="cls-1" d="M21.64,17.52c.51.4,1.4,1.3,2,1.26A3.62,3.62,0,0,0,21.64,17.52Z"/><path class="cls-1" d="M24,7.1c.73.19.64.91,1.22,1.2.14-.28-.1-.54-.22-.77A37.23,37.23,0,0,0,22,2.25s-.06,0-.08,0a31.32,31.32,0,0,0,2.12,4.37A.47.47,0,0,0,24,7.1Z"/><path class="cls-1" d="M25.8,12.9a3.85,3.85,0,0,0-1.72-.72l-.07.09A21.73,21.73,0,0,0,26.55,14C26.86,13.55,26.22,13.19,25.8,12.9Z"/><path class="cls-1" d="M24.16,9.64a2,2,0,0,0-.3-1.43A42.63,42.63,0,0,0,21.76,4l-.08-.06s-.05,0-.08,0a13.84,13.84,0,0,0,1.1,2.92A9.77,9.77,0,0,0,24.16,9.64Z"/><path class="cls-1" d="M26.89,12.87a4.42,4.42,0,0,0-1.53-1.31.31.31,0,0,1-.14.1A2.62,2.62,0,0,0,26.89,12.87Z"/><path class="cls-1" d="M20.17,3.89c.22.13.51,0,.75-.29C20.88,2.4,19.29,3.35,20.17,3.89Z"/><path class="cls-1" d="M17.89,16.92a4.63,4.63,0,0,1,.91,0C18.94,15.64,16.69,15.84,17.89,16.92Z"/><path class="cls-1" d="M16.17,11.78a1.09,1.09,0,0,0-.7-.74c-.57.08-.67.82,0,1.09C15.73,12.05,16,12.1,16.17,11.78Z"/><path class="cls-1" d="M17,15.26a.38.38,0,0,0-.56.3C16.32,16.24,17.63,15.69,17,15.26Z"/><path class="cls-1" d="M16.15,25.53c-.52-.5-1-1-1.48-1.47l-.1.13A10.59,10.59,0,0,0,17.33,27C17.38,26.43,16.63,26,16.15,25.53Z"/><path class="cls-1" d="M20,11.85a4.22,4.22,0,0,0-.57-2.38A2.3,2.3,0,0,0,20,11.85Z"/><path class="cls-1" d="M21.41,11.13A8.19,8.19,0,0,0,20.6,9C20.73,9.66,20.69,10.77,21.41,11.13Z"/><path class="cls-1" d="M17.87,13.22c.26-.13.71-.28.82-.64C18.51,11.43,16.67,12.6,17.87,13.22Z"/><path class="cls-1" d="M19.68,7.13c-.67.35.06,1,.34.59C20.17,7.53,20.05,7.22,19.68,7.13Z"/><path class="cls-1" d="M21.53,8.55c-.26-.56-.33-1.34-.8-1.75A8.08,8.08,0,0,0,22,10.53c.29-.2-.06-.62,0-.91C22.57,9.31,22,8.62,21.53,8.55Z"/><path class="cls-1" d="M23.92,15.87a8.13,8.13,0,0,0-1.82-.94l-.1.13a10.54,10.54,0,0,0,3.31,2C25.46,16.4,24.47,16.18,23.92,15.87Z"/><path class="cls-1" d="M11.09,10.21c0-.19-.29-.34-.48-.5C9.83,9.82,10.77,10.85,11.09,10.21Z"/><path class="cls-1" d="M12.31,12a1.09,1.09,0,0,0-.63-1C9.87,11.07,11.38,13.66,12.31,12Z"/><path class="cls-1" d="M9.82,16.38c.58-.05.86-.83.07-1.14C9.31,15.26,9.09,16.08,9.82,16.38Z"/><path class="cls-1" d="M13.58,8.45c.25-.08.28-.4.3-.57C13.2,6.86,12.52,8.18,13.58,8.45Z"/><path class="cls-1" d="M13.16,9.26c-.12-.4-.2-.76-.54-.95-.79-.43-1.22,1-.57,1.43C12.36,9.94,12.85,9.8,13.16,9.26Z"/><path class="cls-1" d="M10.68,13.7s0-.07,0-.11c0-.21-.38-.47-.6-.53s-.32.47-.37.65C10.09,14,10.4,14,10.68,13.7Z"/><path class="cls-1" d="M9.11,18.25c.23.11.59-.17.9-.12C10.21,16.9,8,17.72,9.11,18.25Z"/><path class="cls-1" d="M8.39,27.19c.09-2,.55-4.11.19-6.08,0,0,0-.07-.07,0a45.45,45.45,0,0,0-.31,5.44C8.21,26.78,8.25,27.21,8.39,27.19Z"/><path class="cls-1" d="M8,18.81c-.15-.5-.9-.63-1-.06C7.13,19.26,7.91,19.4,8,18.81Z"/><path class="cls-1" d="M20,6.37a1.42,1.42,0,0,0-.79-.81.89.89,0,0,0-.76.82C18.81,7.08,19.73,7.22,20,6.37Z"/><path class="cls-1" d="M7.57,20.87a.5.5,0,0,0-.08-.93C6.72,19.6,6.52,20.92,7.57,20.87Z"/><path class="cls-1" d="M17.05,7A.68.68,0,0,0,16.7,6C15.91,6.17,16.63,6.94,17.05,7Z"/><path class="cls-1" d="M17.19,5.41l.22-.29a.75.75,0,0,0-.49-.58C16.39,4.75,16.75,5.43,17.19,5.41Z"/><path class="cls-1" d="M15.23,9.18l.46.36c.32-.11.73-.13.91-.58C16.32,7.94,14.85,8.2,15.23,9.18Z"/><path class="cls-1" d="M13.31,10.11c-1,.4.27,1.46.58.72C14,10.57,13.69,10.25,13.31,10.11Z"/><path class="cls-1" d="M17.54,8.35a.78.78,0,0,0,.82,0C18.6,7.27,16.79,7.68,17.54,8.35Z"/><path class="cls-1" d="M13.84,18.54c.31-.12.44.19.74-.1C14.73,17.61,13.13,17.78,13.84,18.54Z"/><path class="cls-1" d="M13.36,11.69c-1.14.19.18,1.74.62.94C14.13,12.34,13.8,11.85,13.36,11.69Z"/><path class="cls-1" d="M14.85,6c.42-.07.87-.49.27-.87C14.66,5.1,14,5.64,14.85,6Z"/><path class="cls-1" d="M14.68,6.76c-.69.64.48,1.09.78.46A.71.71,0,0,0,14.68,6.76Z"/><path class="cls-1" d="M3.47,28.88a4.77,4.77,0,0,0,.36,1c.13.3.26.93.73.7A3.28,3.28,0,0,0,3.47,28.88Z"/><path class="cls-1" d="M9.44,21.3a26.86,26.86,0,0,0-.26,3.55c-.7-.13-.54.84,0,1,.1.11,0,.49.2.35-.11-.35.15-.38.4-.69a.51.51,0,0,0-.28-.42c.13-.93-.13-1.8.31-2.76C9.44,22.06,9.72,21.32,9.44,21.3Z"/><path class="cls-1" d="M10.18,25.29a12.1,12.1,0,0,0,.17-3.35A17.23,17.23,0,0,0,10.18,25.29Z"/><path class="cls-1" d="M10.84,19.65c-.24-.37-1-.33-1.1.22C10.1,20.65,11.2,20.17,10.84,19.65Z"/><path class="cls-1" d="M53.48,39.22c.26-.72.71-1.47.56-2.11-1.11,1-1,2.47-1.9,3.76-1.78,2.6-4.15,4.63-5.24,7a77.12,77.12,0,0,0,5.61-6.51A9.19,9.19,0,0,0,53.48,39.22Z"/><path class="cls-1" d="M79.5,49.28a1.15,1.15,0,0,0-.71-1.61c-.3-.72-1.3-1.21-2.12-1.84-.29-.22-.53-.51-.76-.58-.45-.13-.87.33-1.28,0-2.15.5-4.27,1.27-6.5,1.15a26.69,26.69,0,0,0-2.29-3.71c-1-1.19-1.9-2.44-2.9-3.63-2.14-2.56-5.41-4.57-8.15-4.87a5.54,5.54,0,0,0-.16-3.53c-.12-.23-.41-.44-.62-.75a11.24,11.24,0,0,0-.59-1.05c-.66-.71-1.65-1.06-2.36-1.81-.58,0-1.17-.12-1.79-.11a7.81,7.81,0,0,1-1.72.07c-.21-3.21-2.77-6.37-4.3-9.45A19.67,19.67,0,0,0,41.52,15c-1.24-1.74-2.38-3.42-3.69-5.11A32.39,32.39,0,0,0,33.51,4.8,14.92,14.92,0,0,0,31.7,3.67C30.71,3,30,2.3,29.07,1.79A16.37,16.37,0,0,0,26.53.57a7.14,7.14,0,0,0-2-.57c-.38,0-.88.12-1.38.14a13.76,13.76,0,0,1-1.37.22c-.22,0-.43-.16-.63-.14A9.66,9.66,0,0,0,19.8.54,9.57,9.57,0,0,0,18.46,1a24.42,24.42,0,0,0-2.6,1.47c-.46.24-.95.37-1.4.6a20.28,20.28,0,0,0-4,2.9,27.13,27.13,0,0,0-5.18,5.44c-.69,1-1.28,2.46-2,3.77a28.75,28.75,0,0,0-1.76,3.59A16.29,16.29,0,0,0,1.12,21C1,21.79.78,22.53.7,23.27S.58,24.74.43,25.54A10.28,10.28,0,0,0,0,27.82c0,.2.25.4.31.64s.08.85.16,1.26c0,.22.11.44.13.63a3,3,0,0,0,0,.68,5.58,5.58,0,0,0,.57.91A16.26,16.26,0,0,0,3.59,35c.72.7,1.6,1.23,2.45,2a14.18,14.18,0,0,0,1.6,1.49c1,.68,2.14,1.19,3.21,1.81s2.16,1.1,3.24,1.62c6.39,3.1,13,5.16,18.72,4.78a12.46,12.46,0,0,0,.85,3.06c.77.37,1.21,1.09,1.9,1.53a5.34,5.34,0,0,0,4.41.52c.1.21.43.09.61.07a16,16,0,0,0,7.25,7.18,36.54,36.54,0,0,0,8.9,2.77,15.47,15.47,0,0,1,.06,3.66c0,.44-.17.86-.18,1.27a3.89,3.89,0,0,0,.89,2.15,6.84,6.84,0,0,0,5.14,3.22,8.3,8.3,0,0,0,6-2.67c.88-.94,1.91-1.79,2.81-2.78a41.5,41.5,0,0,0,6.9-10.27,23.48,23.48,0,0,0,1.38-3.35C80.1,51.72,80.46,50.12,79.5,49.28ZM76.62,47.8A3.24,3.24,0,0,1,78,49.32c-.46-.07-.95-.32-1.4-.34A11.7,11.7,0,0,1,76.62,47.8Zm-.16,1.61a6.23,6.23,0,0,1,1.67.43c.12.21,0,.44.09.66-.63-.08-1.29-.43-1.91-.47A2.08,2.08,0,0,1,76.46,49.41Zm-.29,1a7.38,7.38,0,0,1,2.24.66l-.29.37c-.72-.26-1.41-.32-2.13-.63C76.06,50.66,76.1,50.53,76.17,50.39Zm-.28.79c.69.33,1.33.35,2,.69-.19.17-.18.32-.31.49-.67-.21-1.34-.39-2-.61C75.78,51.55,75.68,51.39,75.89,51.18Zm1.45,1.52c.07.18-.16.39-.27.6a17.3,17.3,0,0,0-1.92-.55c0-.21.18-.45.33-.68A13.16,13.16,0,0,0,77.34,52.7Zm-3.28,1.82a2.2,2.2,0,0,1,.35-.53c.68.28,1.33.38,2,.6.06.12-.25.29-.17.4A10.92,10.92,0,0,1,74.06,54.52Zm1.9.92a4.75,4.75,0,0,0-.47.78,5,5,0,0,0-.62-.14c-.16-.22-.1-.47-.13-.7a1.82,1.82,0,0,0-.38.58c-.35-.16-.67-.14-1-.33a2,2,0,0,0,.61-.79C74.63,55.12,75.28,55.17,76,55.44ZM74.6,53.73c0-.22.24-.48.36-.73.67.3,1.31.42,2,.66a1.66,1.66,0,0,0-.24.48C76,54.14,75.29,53.79,74.6,53.73Zm-2.92-6.46c-.44.51-1.21,1-1.76,1.59a2.14,2.14,0,0,0-.39-.7A14.15,14.15,0,0,1,71.68,47.27Zm-1.77,4.66a6.75,6.75,0,0,0,0-1.1c0-.49.26-.92.17-1.34.58-.51,1.24-1.15,2-1.69a5.66,5.66,0,0,1,2-1.18,1.93,1.93,0,0,1,1.07.36c.25.26.23,1.29.2,1.56-.22,1.93-2.07,4.61-3.5,6.8A57.57,57.57,0,0,1,66,62.86h0l-.39.44c-.21-.24.13-.6.39-.44h0a.7.7,0,0,1,.12-.5c.49-.91,1.41-1.8,2.06-2.76,1.64-2.42,3.47-4.46,4.55-6.79a12.55,12.55,0,0,1,.88-2c-.5-.09-.56.42-.78.74a105,105,0,0,1-7.36,9.91c-.3-.71-.39-1.46-.66-2.18a20,20,0,0,0,3.1-3.5A12.26,12.26,0,0,0,69.91,51.93Zm-6,7.91a1.66,1.66,0,0,0,.43-.47A16.49,16.49,0,0,0,65,62C64.57,61.3,64.29,60.57,64,59.84Zm.74,6.59c0,.1,0-.41-.11-.55C64.79,65.89,64.68,66.27,64.69,66.43ZM62.26,64.9c-.58-1-1.07-2-1.62-2.93.2-.09.4-.15.6-.26.3.75.55,1.56.92,2.37C62.26,64.3,62.62,64.63,62.26,64.9Zm.07,1.65-.25-.19c.07-.16.18-.18.26-.26C62.41,66.24,62.55,66.37,62.33,66.55Zm-.17-11.42c-.25-.4-.39-.81-.61-1.21a17.89,17.89,0,0,1,2.6.79l-.61.8C63.08,55.41,62.61,55.2,62.16,55.13Zm1.15.68-.58.75c-.74-.22-1.47-.43-2.2-.62-.25-.35-.33-.73-.56-1.1A33.83,33.83,0,0,1,63.31,55.81Zm.94.25a2.43,2.43,0,0,0,.62.15c0,.26-.4.56-.57.83a2.07,2.07,0,0,1-.63-.22Zm.23-.29c.42-.65.66-1,1.24-.58l-.61.8C64.89,55.88,64.69,55.86,64.48,55.77Zm.79-1.13A9.36,9.36,0,0,0,66,53.43c.25-.17.56,0,.82,0-.16.46-.56,1-.76,1.42A1.38,1.38,0,0,1,65.27,54.64ZM66.11,53c.13-.23,0-.43.25-.67a3.42,3.42,0,0,0,1,.09,3.55,3.55,0,0,1-.46.85A4.35,4.35,0,0,1,66.11,53Zm-.46,0c-1.2-.26-2.39-.37-3.59-.62-.12-.18-.15-.36-.26-.54,1.49.2,3,.3,4.46.55C66.06,52.54,65.85,52.72,65.65,52.93Zm-.28.38a9.39,9.39,0,0,0-.92,1.1c-.46-.12-1-.34-1.54-.52-.93-.27-1.73-.21-1.9-1.26A37.83,37.83,0,0,1,65.37,53.31Zm-4.29.45c.25.39.4.8.68,1.19-.63-.09-1.28-.37-1.91-.47-.19-.36-.28-.74-.49-1.11A9,9,0,0,1,61.08,53.76Zm-1.11,2c-.23.08-.49-.12-.74-.16-.2-.33-.25-.68-.43-1C59.53,54.4,59.67,55.27,60,55.71Zm-.73.78c-.53.06-.79-.47-.94-.86C58.83,55.57,59.06,56.11,59.24,56.49Zm2.56,1.1c.06.18-.22.18-.29.38-.88-.41-2.23-.19-2.73-1.23C59.74,56.93,60.75,57.32,61.8,57.59Zm-3.3-.4c-.52-.1-.91-.28-1-.82A.81.81,0,0,1,58.5,57.19ZM57.3,55.8a1.89,1.89,0,0,0-.19-.55c.61-.09.78.46,1,.9C57.71,56.29,57.65,55.81,57.3,55.8ZM57,54.92l.33-.42c.12.18.15.36.26.54C57.44,55.11,57.24,55,57,54.92Zm.1,1.62c.08.11.22.22.13.36a.52.52,0,0,0-.35-.07C56.83,56.67,57.08,56.67,57.13,56.54Zm-.49-.32c0-.11.16-.22.28-.11C56.83,56.15,56.75,56.34,56.64,56.22Zm-.26-.53c0-.19.2-.17.29-.38.08.06,0,.12.14.17C56.67,55.58,56.55,55.83,56.38,55.69Zm.18,1.41c.07.13.25.25.17.4-.15-.16-.25,0-.4-.18C56.4,57.22,56.49,57.25,56.56,57.1Zm.62.94c-.28.07-.94-.24-1.36-.24C56.09,57.59,56.76,58,57.18,58Zm-.1-.74c.23-.13.56.13.73.36.11.06.12-.16.08-.2a31.79,31.79,0,0,1,3.26.9c-.08.17-.19.11-.27.26-.84-.21-1.75-.56-2.71-.82C57.71,57.68,57.3,57.78,57.08,57.3Zm1.4,1.14a7.53,7.53,0,0,1,1.93.62c-.37.12-.79-.16-1.17-.3s-.82-.32-1.2-.45C57.93,58.2,58.32,58.4,58.48,58.44Zm2.06,1.92c-.09.16-.49.51-.76.29A1,1,0,0,1,60.54,60.36Zm-1.71,3.09c0-.08.09-.05.15,0,.47,1,1,2,1.59,3a20.55,20.55,0,0,1-1.81-2.59C58.75,63.69,58.85,63.57,58.83,63.45Zm.9.3c-.24-.45-.76-1-.42-1.53.49,1,.77,2,1.29,2.93A8.92,8.92,0,0,1,59.73,63.75Zm.07-1.55c.13-.05.27-.05.4-.1.57,1,1,2.09,1.69,3.11-.11.21-.25.21-.37.39C60.81,64.48,60.39,63.33,59.8,62.2Zm1.32-2.59a1.4,1.4,0,0,1,.34-.28,1.41,1.41,0,0,1,.4.18,3.05,3.05,0,0,1-.44.32ZM59.41,56c.56-.22,1,.62,1.38.73.07-.15,0-.27-.09-.4a15.81,15.81,0,0,1,1.8.52c-.14.24-.32.26-.46.51C61.17,56.89,59.78,57.12,59.41,56Zm2.75,2.59c.16,0,.32.14.47.09,0,.16-.23.35-.33.42a1.18,1.18,0,0,0-.43-.13C61.81,58.79,62.09,58.77,62.16,58.6Zm.37-.39.22-.29a1.93,1.93,0,0,1,.59.19C63.11,58.46,62.83,58.37,62.53,58.21Zm.53-.52c0-.17.28-.39.38-.58.2.16.36.07.56.23a1.81,1.81,0,0,1-.43.47C63.41,57.8,63.22,57.64,63.06,57.69Zm4.6-10c.13-.08.08.16.25.2-.15.14-.33-.05-.49,0C67.33,47.82,67.76,47.9,67.66,47.72ZM64.1,43.05c.45,0,.54.52.79.8a8.88,8.88,0,0,1-1-.05A5.43,5.43,0,0,1,64.1,43.05Zm-9.67-7.51a20.06,20.06,0,0,1,5.3,2.94c-.1.2-.52.05-.89.12a5.31,5.31,0,0,0-1.16.37,3.65,3.65,0,0,0-2.13,1.64A14.64,14.64,0,0,0,56,38.32c-.4-.15-.42.41-.56.64-.73,1.26-2.36,2.82-3.48,4.53a23.42,23.42,0,0,1-2.22,3c-.07.06-.06.29-.29.12,0,.39-.65,1.15-1.07,1.65a40.67,40.67,0,0,1-2.93,3,6.58,6.58,0,0,1-.88-1.81A45,45,0,0,0,54.43,35.54ZM52.2,45.66a1.74,1.74,0,0,0,.29-.38c.33,0,.4.55.62.41,0,.18-.06.38,0,.57A2.16,2.16,0,0,1,52.2,45.66ZM53,46.77a4.14,4.14,0,0,1-.17.74l-1.26-1,.39-.51C52.26,46.32,52.6,46.44,53,46.77Zm0-1.59L52.76,45c0-.19.28-.42.41-.62C53.24,44.64,53,44.92,53,45.18Zm-2.39,2.5a2.24,2.24,0,0,0,.38.37c-.15,0-.34-.16-.5-.13S50.55,47.76,50.58,47.68Zm-1.4,1.73-.13-.09c.14-.24.29-.3.43-.48a62.29,62.29,0,0,0,6.58,4.66c-.13.22-.28.17-.41.36-.21,0-.38-.48-.47-.09,0-.22-.18-.16-.29-.23C53.08,52.31,51.08,50.83,49.18,49.41Zm5.53,4.8c-.24.12-.24-.31-.39-.44C54.61,53.75,54.61,54,54.71,54.21ZM52.24,52.9c-.08.09.13.14.18.21-.93-.51-1.89-1.34-2.83-2a1.85,1.85,0,0,1,1.29.58c-.12-.21-.34-.29-.25-.46-.28-.27-.64-.31-.8-.61-.06,0-.31-.23-.14-.17,1.52,1.14,2.76,2,4.25,3A1.6,1.6,0,0,1,52.24,52.9Zm.81,1.9c-.09.08-.22-.14-.32-.18C52.94,54.57,53,54.61,53.05,54.8Zm-9.42-7.39c-.15-.08,0-.19-.11-.28a2.27,2.27,0,0,1,1,.28.35.35,0,0,0-.2.17A7.12,7.12,0,0,0,43.63,47.41Zm.3.57c-.08.15-.19.09-.27.26a.29.29,0,0,1,0-.37C43.73,48,43.81,47.88,43.93,48Zm-.53-1.74c.24,0,.45.11.46.35A.37.37,0,0,1,43.4,46.24Zm.8-.52a.45.45,0,0,1,.57.3A.45.45,0,0,1,44.2,45.72Zm.87,1.13a.42.42,0,0,1-.52-.2C44.71,46.48,45.08,46.68,45.07,46.85Zm-1,3a15.84,15.84,0,0,0,.91,1.77c-.1.16-.22.19-.34.27C44.31,51.23,43.74,50.6,44,49.86Zm.51,3.33c1,.49,2,.64,3.08,1a5.67,5.67,0,0,1-3.47-.87C44.26,53.23,44.41,53.33,44.53,53.19Zm2,.23A6.73,6.73,0,0,1,45,53C45.41,52.56,46.11,53,46.56,53.42Zm-.19-1.49.13-.17c.11,0,.29.27.5.39C46.81,52.24,46.59,52.05,46.37,51.93Zm1,.74c.25-.15.59.32.89.49C48,53.23,47.64,52.89,47.34,52.67Zm0-1c.41,0,.88.61,1.32.88C48.28,52.55,47.8,52,47.36,51.69Zm.12-.77c0-.12.23-.22.33-.42.49.41.93.83,1.37,1.25A2.68,2.68,0,0,1,47.48,50.92Zm1.43.49c0-.11.47.33.66.45C49.3,51.94,49.2,51.55,48.91,51.41Zm1.85,1.69c-.48,0-1-.6-1.52-.9C49.8,52.08,50.28,52.82,50.76,53.1Zm-2.54-3c.13-.23.28-.29.42-.47.51.35.76.73,1.24,1.09,0,.05,0,.11-.06.08A5.54,5.54,0,0,1,48.22,50.14ZM49,53.85c.25-.06.56.23.84.38C49.63,54.37,49.33,54.08,49,53.85Zm.43,1c-.12.13-.29-.12-.44-.21S49.35,54.83,49.47,54.85Zm-.1-1.68c.2,0,.45.2.68.32C49.85,53.57,49.6,53.34,49.37,53.17Zm1.47,1.73c-.24.11-.51,0-.79-.27C50.28,54.52,50.55,54.64,50.84,54.9Zm-.6-1.13c.27-.14.63.39.92.45C50.89,54.33,50.55,54,50.24,53.77Zm2,2a1.12,1.12,0,0,1-1.15-.42C51.47,55.24,51.88,55.53,52.28,55.81Zm-.84-1.18c.26-.12.57.11.88.34A1,1,0,0,1,51.44,54.63ZM50,52.37c.58,0,1.25.72,1.88,1.11C51.25,53.66,50.62,52.9,50,52.37Zm4.13,1.84c-.22.08-.49-.29-.74-.43a2.12,2.12,0,0,1,.56,0C54.07,53.89,54,54.06,54.11,54.21Zm.11.82a5.77,5.77,0,0,1-.72,0c-.11-.13-.15-.26-.24-.38C53.54,54.47,53.88,54.75,54.22,55Zm-9.14-9.84c.1-.19.25,0,.37,0,.12.12.09.26.16.39A.54.54,0,0,1,45.08,45.19Zm.6.86-.13.17c-.08,0,0-.12-.14-.17C45.49,45.93,45.59,46,45.68,46.05ZM46,44.32c.15.15.13.33.21.5A.28.28,0,0,1,46,44.32Zm.65-.77c.21.16.16.36.26.54C46.58,44.12,46.22,43.88,46.6,43.55Zm.89-1.32c.28.05.43.77.41,1.12A2.94,2.94,0,0,1,47.49,42.23Zm2.45-4.06c.31.44.88,1.17.47,1.83a7.1,7.1,0,0,1-.68-1.46C49.78,38.42,50,38.27,49.94,38.17Zm2.82-2.45c-.27.58-.52,1.15-.79,1.73-.21-.56-.3-1.14-.57-1.7.15,0,.45.76.9.82.1-.65-.59-1.2-.95-1.8l.29-.37A14.81,14.81,0,0,1,52.76,35.72ZM51.85,34c0-.07.14-.14.08-.2.42.13.69.92,1,1.31A5.47,5.47,0,0,1,51.85,34Zm-.45,2.93c.11.43.39.94.17,1.34-.17-.85-1.09-1.59-.66-2.52C51.22,35.86,51.28,36.45,51.4,36.88ZM51,39.12c-.09-.65-.9-1.21-.51-1.93C50.7,37.83,51.39,38.41,51,39.12Zm-1.22,1.67c-.11-.55-.87-1-.4-1.64C49.5,39.7,50,40.19,49.79,40.79Zm-.47.71c-.12-.49-.81-.9-.49-1.45C49,40.53,49.41,41,49.32,41.5Zm-.49.63A4.68,4.68,0,0,1,48.26,41,1.62,1.62,0,0,1,48.83,42.13ZM53,30.59c.08-.11.08,0,.12,0a9,9,0,0,1,.4,2.52c-.35-.26-.54-.86-.84-1.25A10.56,10.56,0,0,0,53,30.59Zm-.6,2c.44.49,1.11,1.27.82,2-.39-.29-.59-.93-1-1.33C52.24,33,52.45,32.79,52.43,32.59Zm-.33-3.13a2.39,2.39,0,0,0-1.28-1.38C51.49,28,52.56,28.72,52.1,29.46Zm-7.25-3.1a1.38,1.38,0,0,1-.46-1C44.68,25.41,44.9,26.07,44.85,26.36ZM44,27.5c.18-.07.16.2.34.26a1.6,1.6,0,0,1-.16-1.19c.24-.13.38.49.66.7a8.42,8.42,0,0,1-.22,2.38A1.84,1.84,0,0,1,44,27.5ZM44.65,32a2.08,2.08,0,0,1-.1.73A.79.79,0,0,1,44.65,32Zm-.93-2.18c.32.28.92.65.64,1.16-.44-.11-.28.59-.42.81-.1-.14-.15,0-.21.1C43.36,31.27,43.82,30.52,43.72,29.84ZM34.6,41.07a2.51,2.51,0,0,1-2.14-.24,12.08,12.08,0,0,1,1.16-.38c.14.1-.18.27,0,.38.32-.06.56-.74.9-.65.11-.16-.17-.13-.11-.21s.23,0,.35.07A3.35,3.35,0,0,0,34.6,41.07ZM29.28,42c.44-.23,1,.27,1.46.46C30.3,42.66,29.77,42.18,29.28,42Zm2.06,1.85c-.2.15-.42,0-.6.34-.62-.21-1.23-.37-1.85-.55C29.47,43,30.51,43.49,31.34,43.84Zm-16.88-8c4.83,2.16,9.71,3.77,14.59,5.88-.35.25-.75-.08-1-.2-2.46-1-5-2-7.51-2.84a82.39,82.39,0,0,1-8.67-3.59c-.07,0,0-.1-.09-.14a35.32,35.32,0,0,0,3.12-2.41,62.44,62.44,0,0,0,16.79,7.37c-.1.2-.55.23-.79.33-5.09-1.68-10.29-4.2-15.43-6.26A78.92,78.92,0,0,0,30.17,40.4c.08.16-.18.09-.23.22a2.7,2.7,0,0,1,1.3.14,7.28,7.28,0,0,1-1.4.59c-4.35-1.84-8.71-3.36-13-5-1.44-.56-2.86-1.18-4.34-1.67A6.33,6.33,0,0,0,14.46,35.8ZM28,42.15c-5.8-1.68-11.59-3.31-17.58-6.5a4.82,4.82,0,0,1,.84-.49C17,38.46,22.43,39.71,28,42.15ZM31.54,7.7a1.92,1.92,0,0,1,1.19,1.92l.39-.5c2.09,2,3.71,4.15,5.5,6.23a5.94,5.94,0,0,1-.06,1,45,45,0,0,0-7.17-7.53C31.32,8.48,31.63,8.06,31.54,7.7ZM40.68,23a13.93,13.93,0,0,0-.3,1.77c-.75-.34-.41-1.15-.41-1.72,0,0,0-.07,0-.11-.2.23-.14.77-.34,1.13a111.94,111.94,0,0,0-9-9.14c.16-.53.55-1.1.5-1.61l-.16.21a10.33,10.33,0,0,1,.51-1.28A132.34,132.34,0,0,1,40.68,23Zm-1.63-3.53c.51.7,1.38,1.35,1.3,2.14C40,21.08,38.8,20.11,39.05,19.49ZM42.71,25a1.4,1.4,0,0,1-.41-1.12C42.63,24.06,43,24.57,42.71,25Zm-.27-2.34c.25,0,.59.57.56.83C42.7,23.36,42.51,22.9,42.44,22.64Zm.66,10c-.22,0-.25-.27-.46-.36a2.56,2.56,0,0,1,.53-1.13C43.21,31.64,43,32.15,43.1,32.64Zm-.52.59c.05,0,.13.05.19.09-.12.09,0,.16-.12.24C42.47,33.47,42.69,33.33,42.58,33.23Zm.12,1.84c.14.25,0,.73.37.82,0,.24-.38.56-.55.71a7.63,7.63,0,0,1-.2-1C42.59,35.42,42.53,35.34,42.7,35.07Zm-.1-9.51c-.16.42-.26.84-.45,1.27-.25-.52.09-1.12,0-1.67C42.38,25.14,42.45,25.45,42.6,25.56ZM40.84,36.18l-.75-.58c.16-.11.27-.6.48-.37-.13-.24.5-1.07.77-1,.11-.17.08-.32.17-.48l.42.32C42,34.77,41.33,35.5,40.84,36.18ZM41.31,38a1.35,1.35,0,0,0-.46-.28l.46-.59C41.33,37.43,41.61,37.68,41.31,38Zm-1.6-1a1.4,1.4,0,0,1-.53-.27c.08-.14.19-.06.31,0,.06-.1-.18-.15-.15-.25.19-.23.37-.47.55-.71.27.15.55.35.82.5-.26.26-.49.83-.79.86-.06-.28.29-.62.52-.94C40.18,36.43,40,36.85,39.71,37Zm0,.57-.35.46C39.36,38,39.55,37.49,39.74,37.61Zm-3.38.4a6.83,6.83,0,0,1,.12-.77c.15.13.38.1.42.25s-.29.26-.22.37.29-.46.49-.29-.28.43-.37.65A1.35,1.35,0,0,1,36.36,38Zm0,.71a2.35,2.35,0,0,1-.19.25.58.58,0,0,1,.07-.35Zm-4,1.2c.23-.15.49-.18.72-.32.14.06,0,.15.1.22a1.12,1.12,0,0,0,.33-.35,2.65,2.65,0,0,0,.53.27C33.73,40.32,33,40.26,32.41,39.92Zm.53.27a1.49,1.49,0,0,1-1.76.12A2.08,2.08,0,0,1,32.94,40.19Zm-1.58-3.42c.1-.12.19-.25.29-.38a4.54,4.54,0,0,1,.81.43c-.15.14-.14.27-.25.41C31.93,37.05,31.65,37,31.36,36.77Zm.5.92c0,.1-.1.21-.18.33-.35-.11-.71-.39-1.05-.47-.06-.19.22-.21.29-.38C31.24,37.38,31.54,37.45,31.86,37.69Zm8.9-14.34c.93.36.35,1.56.3,2.3C40.26,25,41,24.1,40.76,23.35Zm.84,4.46a.65.65,0,0,1-.4-.78C41.48,27,41.71,27.56,41.6,27.81ZM41.33,26c0-.55.17-1.13.16-1.68.74.28.18,1.38.19,2C41.54,26.22,41.52,26.09,41.33,26Zm.21,2.51A8,8,0,0,1,41,29.93c0-.59.11-1.2.11-1.79C41.23,28,41.38,28.41,41.54,28.5Zm-.6-1.4a.77.77,0,0,1-.41-.85A.69.69,0,0,1,40.94,27.1Zm-.06.69c-.13.85-.15,1.68-.2,2.52-.23,0-.27-.29-.5-.39,0-.85.16-1.71.23-2.56C40.61,27.35,40.67,27.68,40.88,27.79Zm-.8,3.13c.08-.14.52.26.28.41A.49.49,0,0,1,40.08,30.92Zm.05,3c.07.2-.24.44-.29.65C39.77,34.34,40,34.11,40.13,33.89Zm.35-.46a1.65,1.65,0,0,1-.27.45C40.21,33.56,40.83,32.86,40.48,33.43Zm-.36-7.17a1,1,0,0,1-.38-.82C40.08,25.39,40.37,26,40.12,26.26Zm0,.65c-.12.88-.14,1.75-.3,2.64a1.84,1.84,0,0,0-.43-.39c.09-.85.21-1.69.28-2.53,0-.06.06-.07.1-.06C39.94,26.68,39.91,26.81,40.09,26.91Zm-2.22,8.45c.09-.24,0-.46.06-.69s.41.25.61.34a2.87,2.87,0,0,0-.31.56A.48.48,0,0,1,37.87,35.36ZM38.23,37c0,.39-.34.44,0,0Zm-.22-1-.16.21c-.09-.1-.05-.22,0-.33Zm.64-1.51c.24.1.09-.27.27-.27s-.15.42-.21.45a3,3,0,0,0-.7-.48c0-.19.05-.38,0-.56.22,0,.47.34.71.47C38.68,34.17,38.57,34.31,38.65,34.43Zm-.12-5c.21-.11.54.38.38.56l-.38-.29C38.53,29.63,38.61,29.53,38.53,29.45Zm.34,1.47c-.14,0-.53-.28-.47-.43S38.87,30.79,38.87,30.92Zm-.44,5.27c.11.13.23,0,.25.2s-.22,0-.35-.07Zm.23-.22c.21-.17.36-.71.61-.53s-.25.49-.35.73C38.78,36.19,38.83,36.05,38.66,36Zm.42-2c-.33-.2,0-.5-.1-.74.12-.06.28.19.41.25C39.26,33.63,39.26,33.78,39.08,34ZM39,32.83a2.45,2.45,0,0,0,.08-.8c.19,0,.42.29.62.4a1.68,1.68,0,0,1-.23.83C39.27,33.12,39.25,33,39,32.83Zm.16-1.68c.12-.13.7.29.51.46C39.51,31.45,39.22,31.32,39.17,31.15ZM39.41,35c.1-.12.16.09.32-.08.09.07-.12.19-.15.28C39.54,35.14,39.33,35.09,39.41,35Zm-.16-4.93c.23.06.59.43.51.65C39.51,30.67,39.2,30.3,39.25,30.08Zm.23-4.64c-.32-.05-.29-.47-.28-.68C39.59,24.8,39.47,25.22,39.48,25.44Zm-.24,1.88c-.06.51-.17,1-.22,1.5-.14-.11-.16-.23-.35-.33.18-.89.19-1.76.45-2.66C39.46,26.25,39.29,26.84,39.24,27.32ZM39,24.9a111.1,111.1,0,0,0-8.81-9c.13-.15.2-.48.31-.49,2.72,2.49,5.44,5.62,7.85,8.31C38.58,24,39.23,24.37,39,24.9Zm-.19.59c0,.9-.25,1.83-.36,2.74a89.83,89.83,0,0,0-10.32-8.75c.6-1.05,1.29-2.31,1.88-3.23A110.14,110.14,0,0,1,38.77,25.49Zm-1.44,4.05c.27.15,1,.57.84.91l-.88-.68A.22.22,0,0,0,37.33,29.54Zm.14-.7c0-.14,0-.28,0-.42.28,0,1,.65.85,1C38,29.37,37.74,29,37.47,28.84Zm-.85-1.33c.33.31.86.6.75,1.11-3.11-2.54-6.4-5.39-10-8a3.87,3.87,0,0,0,.36-.65c0-.05.05,0,.08,0A108.74,108.74,0,0,1,36.62,27.51Zm.61,2.15c-.29-.08-.64-.47-.95-.67,0-.1.08-.21,0-.3C36.69,28.85,37.34,29.31,37.23,29.66ZM35.4,27.78c.31.26.83.54.78,1-3.11-2.15-6.53-4.86-9.56-7,.14-.22.42-.46.44-.67,0,0,.08,0,.11-.05C30,23.26,32.8,25.54,35.4,27.78Zm.53,1.75c.17.28-.09.62,0,.9.17-.21.11-.59.25-.68.73.69,2.17,1.28,1.93,2.09.18-.13,0-.42.21-.44.68.3.4.93.35,1.2C34.33,29.27,30.12,26,25.82,23l.49-.63C29.5,24.6,32.71,27,35.93,29.53Zm1.93,2.88c.44.3,1.1.58.87,1.21-4.57-3.11-9.17-6.4-13.73-9.43-.3-.15.42-.55.56-.9C29.53,26,33.72,29.65,37.86,32.41Zm-.52.67c.18.15.69.36.4.71-.15.15-.47-.19-.77-.39C32.9,30.69,28.51,27.72,24.39,25c-.06,0-.13-.09-.1-.14l.42-.55C28.69,27.23,33.3,30,37.34,33.08Zm.2,2.09-.76-.58c.14-.23,0-.42.18-.66.25.24.46.25.7.47C37.61,34.66,37.72,34.9,37.54,35.17Zm-.19.33c-.08,0-.16.11-.23.22s-.27-.12-.39-.1c-.06-.16,0-.47.08-.54Zm-3.5,1.25a1.39,1.39,0,0,1-.61-.34l.39-.5a1,1,0,0,1,.58.38Zm.35.94c-.16.14-.14.27-.25.41-.14-.08-.42-.17-.45-.28s.23-.15.33-.35C34,37.62,34.07,37.54,34.2,37.69Zm-.54-2.42c-.25-.19-.65-.28-.78-.47l.23-.3a4.58,4.58,0,0,1,.81.43ZM33.57,34c0-.23.35-.5.51-.75.28.27.54.31.83.58-.16.21-.34.29-.5.55C34.15,34.36,33.85,34.09,33.57,34Zm.71-1.19c.15-.15.11-.29.28-.45.66.4,1.32.84,2,1.33a.92.92,0,0,1-.09.73C35.75,33.8,34.86,33.38,34.28,32.8Zm.21-.44c-.38.64-.91,0-1.28-.25-3.05-2.09-6.45-4.3-9.48-6.36-.06,0-.12-.08-.09-.14l.32-.42C27.46,27.66,31.12,29.9,34.49,32.36Zm-.74.7c-.2.32-.43.41-.62.72a97.48,97.48,0,0,1-11.15-7c-.08-.51.8-.64,1.12-.94C26.48,28.14,30.22,30.58,33.75,33.06Zm-1,1.27c-.27.53-1-.08-1.4-.27-3.28-1.74-6.87-4-10.2-6.11-.07-.05-.13-.09-.1-.14.2-.22.38-.59.6-.68A78.88,78.88,0,0,0,32.71,34.33Zm-.22,1c.28.19.54.26.81.43l-.42.54a3.93,3.93,0,0,1-.81-.42Zm-.39,2.51a2.6,2.6,0,0,1,.73.36l-.26.33c-.24-.22-.45-.16-.69-.4Zm.4-.43.29-.38a3.33,3.33,0,0,1,.64.3l-.29.37C32.93,37.62,32.71,37.45,32.5,37.38Zm.64.9a3.32,3.32,0,0,0,.53.27c0,.12-.12.35-.22.37-.21-.19-.39-.13-.6-.34A.93.93,0,0,0,33.14,38.28Zm.63.75.26-.34a2,2,0,0,0,.53.27c-.13.12-.13.22-.19.33A1.92,1.92,0,0,1,33.77,39Zm.82-3.32a2.86,2.86,0,0,1-.57-.3l.23-.3c.19,0,.4.2.59.27Zm.41.85-.45.59c-.12-.13-.22-.12-.33-.18l.45-.59C34.79,36.51,34.89,36.5,35,36.56Zm-.34-2c.13-.22.23-.44.37-.65a4.21,4.21,0,0,1,.66.44,2.71,2.71,0,0,0-.5.48A2.65,2.65,0,0,0,34.66,34.57Zm1.12-.15c.23.21.66.3.68.59-.23.42-.53.21-.83,0C35.72,34.83,35.61,34.65,35.78,34.42Zm1,2.37a2.78,2.78,0,0,0,.26-.34c.14.07.27.11.4.17-.05.15,0,.28-.13.44A4.44,4.44,0,0,1,36.76,36.79Zm.62,2.41c.12-.19.29,0,.42.06l-.45.59C37.28,39.64,37.42,39.41,37.38,39.2Zm.32-.5.54-.71a.84.84,0,0,1,.41.17l-.55.72A1.27,1.27,0,0,1,37.7,38.7Zm.84-1.09.29-.37c.13,0,.29.15.43.13,0,.2-.29.45-.43.47C38.71,37.69,38.55,37.74,38.54,37.61ZM42,36.1c.09.25.11.51.21.76-.1.15-.21.29-.32.43C41.89,36.9,41.55,36.55,42,36.1Zm-.28-2.76.13-.17.37.29c0,.11,0,.24,0,.34C42.11,33.8,41.87,33.48,41.76,33.34Zm.47-.17a.36.36,0,0,0-.18-.21,1.83,1.83,0,0,1,.13-.16C42.34,32.9,42.27,33,42.23,33.17Zm0-10.73c-.18-.26-.55-.51-.37-.82C42,21.89,42.38,22.13,42.19,22.44ZM42,23.87a1.07,1.07,0,0,1-.35-.94C41.91,22.93,42.17,23.56,42,23.87ZM40.41,19.8a5.67,5.67,0,0,1,1.34,1.9A4.06,4.06,0,0,1,40.41,19.8Zm.17,1.6c.33.57,1.09,1.07.9,1.7-.31-.2-.69-.71-.56-1.1-.12-.05,0,.18-.12.25a1.69,1.69,0,0,1-.4-.52C40.53,21.61,40.52,21.51,40.58,21.4Zm-8.93-9.68c.1-.2.09-.38.19-.58C33.53,13,35.36,15,37,17c.75.89,1.63,1.7,1.74,2.61C36.63,17.1,34.2,14.3,31.65,11.72Zm6.48,5c.23.3.63.67.44,1.08q-3-3.59-6.37-7.1c-.15-.13-.05-.15,0-.23-.46,0-.78-.64-1.15-.95a.87.87,0,0,0,.14-.44s0,0,.07,0A69.61,69.61,0,0,1,38.13,16.77ZM31.74,11l-.32.42c-.34-.21-.44-.47-.73-.69a2.65,2.65,0,0,1,.23-.56C31.27,10.43,31.4,10.73,31.74,11Zm-.64.84c-.59.78-1,1.72-1.47,2.35l-.55-.42a20,20,0,0,0,1.37-2.56C30.75,11.4,30.85,11.63,31.1,11.83ZM29.52,14.5c-.17.21-.17.4-.34.61a4.73,4.73,0,0,0-.66-.44A3.08,3.08,0,0,1,29,14C29.2,14.16,29.25,14.34,29.52,14.5Zm-.49.89c-.53,1.16-1.13,2.31-1.74,3.48a6.08,6.08,0,0,1-.91-.64c.7-1.1,1.33-2.39,2.05-3.36C28.68,15,28.75,15.23,29,15.39Zm-2,4c-.16.24-.24.46-.4.7l-1-.75c.24-.24.25-.46.48-.7A7.63,7.63,0,0,1,27.05,19.35Zm-.68,1.15a3.92,3.92,0,0,1-.54.78,5.84,5.84,0,0,1-.95-.66,10,10,0,0,1,.53-.86Zm-.86,1.21a3.91,3.91,0,0,0-.56.63c-.25-.13-.69-.3-.83-.57.05-.24.37-.52.54-.79A4.82,4.82,0,0,0,25.51,21.71Zm-.86.94-1.23,1.59c-.24,0-.53-.37-.79-.53l1.26-1.64Zm-1.49,1.93c-.14.15-.27.43-.43.47l-.67-.51a1,1,0,0,1,.42-.55C22.6,24.2,22.93,24.38,23.16,24.58Zm-.69.81c-.13.38-.85.73-.87,1.13-.26-.25-.49-.27-.74-.51l.87-1.13C22,24.92,22.23,25.23,22.47,25.39ZM21.31,26.9l-.61.8-.8-.62a4.24,4.24,0,0,0,.66-.76Zm-.9,1.17c0,.2-.39.46-.37.66.25.21.39-.45.62-.46a126.16,126.16,0,0,0,11.47,6.89l-.38.51a116.91,116.91,0,0,1-12.83-7.4,9.43,9.43,0,0,1,.69-.81C19.87,27.67,20.14,27.87,20.41,28.07Zm9.42,7.39a4.83,4.83,0,0,1,1.43.83c-.34.55-1.14-.12-1.6-.35-3.74-1.95-7.82-4.27-11.6-6.46l-.13-.1c.21-.29.45-.43.66-.77A85.92,85.92,0,0,0,29.83,35.46Zm.79,1.67c-.22.36-.56.11-.8,0a117.39,117.39,0,0,1-12.36-7c-.1,0-.13-.14-.05-.1.08-.12.17-.23.25-.34C22,32.59,26.46,34.76,30.62,37.13Zm2.67,2.26c-.16.2-.44.18-.65.24A2.31,2.31,0,0,1,31,39.4c-2.41-.9-4.84-1.76-7.24-2.76a64.57,64.57,0,0,1-8.55-4.44c.64-.6,1.27-1.28,1.91-1.88A125,125,0,0,0,33.29,39.39Zm-3,2.2a2.9,2.9,0,0,1,3-.19c-.61.27-1.22.49-1.84.73A10.37,10.37,0,0,0,30.33,41.59Zm4-3.35c.1-.13.2-.25.29-.38.14.11.27.09.41.25-.11.15,0,.28-.13.43C34.7,38.48,34.37,38.37,34.31,38.24ZM35,35.89c.14-.13.06-.22.18-.33.12.13.08.29,0,.45Zm.26,4.34c-.11.13-.06.24-.21.37C35,40.48,35,40.05,35.25,40.23Zm-.11-.55c0-.41.26-.44.59-.15,0,.1-.1.21-.19.33C35.41,39.79,35.27,39.75,35.14,39.68Zm.15-.89c0-.14.18-.3.28-.45a2.67,2.67,0,0,1,.36.14c-.06.2,0,.38-.11.59A3,3,0,0,0,35.29,38.79Zm.18-1.19c-.15-.24.07-.52,0-.75.15-.08.34.1.52.19C35.8,37.2,35.66,37.56,35.47,37.6Zm.29-1.32c.08-.12.17-.23.25-.34.11.13.19.07.29.15-.11.15,0,.27-.13.43C36,36.38,35.9,36.44,35.76,36.28Zm.29,3.7c.11,0,.32.06.51-.14.13.06.26.1.4.17-.06.15,0,.28-.13.43-.28-.09-.57-.26-.85-.38Zm3.18-.23c.15.06.28.06.43.13,0-.11-.22-.19-.3-.29.45-.59.92-1.06,1.37-1.7.18.15.33.08.51.2a26.1,26.1,0,0,1-6,6,1.35,1.35,0,0,0-.46-.28A31.37,31.37,0,0,0,39.23,39.75Zm-.09,6.55c-.29.22-.55.6-.84.83-.15-.81-.13-1.65-.32-2.45A5.34,5.34,0,0,1,39.14,46.3ZM39,44.7c.31.08.58.58,1,.67,0,.18-.18.15-.27.33A4.17,4.17,0,0,0,39,44.7Zm-.09-1.27a1.66,1.66,0,0,1,.66-.7c.07-.09,0-.17-.14-.24a1.18,1.18,0,0,0,.37-.31c0,.59.94,1.25,1.62,1.64-.36.36-.71.78-1.06,1.19A7.26,7.26,0,0,1,38.88,43.43Zm1-1.35a24.35,24.35,0,0,0,3.15-3.66c.59.35,1.2.86,1.78,1.17-1.05,1.19-2.08,2.64-3.13,3.81A6.56,6.56,0,0,0,39.91,42.08Zm3.44-4,.36-.46a6.69,6.69,0,0,0,1.85,1.16c-.15.24-.32.26-.46.51C44.51,38.8,44,38.55,43.35,38Zm.81-4.26c-.55-.25-.56-.91-.19-1.41A4.8,4.8,0,0,0,44.16,33.78Zm-.24,3.43a2.41,2.41,0,0,1,.35-.53,5.83,5.83,0,0,0,2.21,1c-.18.22-.35.45-.52.67A6.42,6.42,0,0,1,43.92,37.21ZM43.63,35a4.21,4.21,0,0,0-.36.65,2.73,2.73,0,0,1,0-1.74C43.53,34,43.39,34.69,43.63,35Zm-.36-4.83a1.18,1.18,0,0,1-.45,1.19A5.64,5.64,0,0,1,43.27,30.16Zm-.11-7.77c-.61-1.21-2.11-2.5-2.75-3.72a4.23,4.23,0,0,1-.18-1.15C41.37,19,42.93,20.69,43.16,22.39ZM40,19.63c-.33-.56-1.11-1.07-1-1.68C39.34,18.36,40.14,19,40,19.63ZM39.83,18c-.53-.63-1.09-1.27-.87-2A2,2,0,0,1,39.83,18ZM27.88,2.47A46.18,46.18,0,0,1,39.76,15.69,92.71,92.71,0,0,0,33.32,8.6c-.16-.39,0-1-.46-1.23-.34-.11-.28.43-.36.47-.25-.33-.72-.46-1-.85s-.17-1.29-.73-1.76c-.13-.11-.29-.16-.45-.28s-.26-.4-.44-.55c-.43-.33-1.05-.45-1.48-.87-.28-.27-.34-.72-.66-1C27.77,2.45,27.83,2.52,27.88,2.47Zm-.46,1.12a6.61,6.61,0,0,1,2.36,1.62c-.52-.23-1-.44-1.56-.67A8.63,8.63,0,0,1,26.68,4c-.36-.26-.33-.79-.67-1.12.74,0,.89.71,1.36,1.18C27.62,4,27.52,3.75,27.42,3.59Zm.24-.49c-.68-.05-.93-.76-1.22-1.2C27.25,1.71,27.33,2.61,27.66,3.1Zm-1.6-1.22c.19.22.2.47.39.7a1.14,1.14,0,0,1-1.07-.69A1.12,1.12,0,0,1,26.06,1.88Zm-1.22-.07c.43.66.71,1.34,1.21,2-1,.14-1.17-1.34-1.7-2C24.51,1.77,24.68,1.85,24.84,1.81Zm-1.13,0c.62,1,1.12,2,1.74,3-.12.1-.29-.09-.4.09a2.24,2.24,0,0,1,1.07,1c-.22.12-.48,0-.72,0A27.06,27.06,0,0,0,23,1.9C23.19,1.72,23.47,1.87,23.71,1.8ZM8.27,12.92c.18,0,.35,0,.53,0-.09.15,0,.26,0,.39-.53.38.17.9,0,1.36-.08,0-.26-.34-.52-.46A11.24,11.24,0,0,0,8.27,12.92Zm-.75-1.71a3.3,3.3,0,0,1,.62-.73c-.12.6.06,1.15-.29,1.78a5,5,0,0,1,0,1.77c-.52.25-.76.86,0,1.17a3.94,3.94,0,0,1-.06,1,1.2,1.2,0,0,0-.57-.31C7.28,14.31,7.4,12.76,7.52,11.21ZM5.08,16A3.62,3.62,0,0,1,6,13.14c-.12,1.46-.09,2.89-.12,4.33-.91-.51-.8,1,.07.86.08.33,0,.68.25,1,.28-.46,0-.84.17-1.27a23.84,23.84,0,0,1,.11-5.53l.61-.8c0,2.23-.44,4.51,0,6.68.36-.56,0-1,.21-1.57,1.25.78.82-.95.9-1.52a.85.85,0,0,0,.51-.4c.14.74-.12,1.55.18,2.28.31-.41.15-1,.15-1.5s0-1,0-1.51c0-.16.36-.17.32-.42-.47-.72-.17-1.54-.15-2.32a.47.47,0,0,0,.46.35c1,0,.35-1.74-.45-.88,0,0,0,0,0,0s0-.45-.21-.61a6.86,6.86,0,0,0-.16,1.95c-.2,0-.26-.28-.49-.31a5.35,5.35,0,0,0,0-1.74c.34-.28.66-.68,1-1a.49.49,0,1,0,.71-.66,5.37,5.37,0,0,1,.54-.53c.4.4.92-.06.62-.45a26.3,26.3,0,0,0,2.16-2.21A11.94,11.94,0,0,1,18,3a24,24,0,0,1,4.72-1.19A41.68,41.68,0,0,0,24.86,5.7c-.15.18-.36-.07-.51.14.42.43.87.23,1.2.86.24,0,.15-.3.06-.42A9.1,9.1,0,0,1,29.72,7.9c-.23-1.29-2.33-1.71-3.33-2,.15-.17-.09-.29,0-.45,1.11.43,2.41,1,3.4,1.48C29.17,5.64,27.29,5.39,26.16,5a1.49,1.49,0,0,1-.36-.75c.22.16.62.1.72.36,1.14.08,2.36.89,3.55,1.39A12.61,12.61,0,0,1,29.59,9a14.57,14.57,0,0,1-1.4,3.13,56.79,56.79,0,0,1-6,9.69.52.52,0,0,0-.11-.28,8.6,8.6,0,0,0-1.69-1c-.34-.18-.75-.5-1.11-.39.13.44.7.64,1.14.88.6.31,1.14.51,1.78.9-.19.25-.39.5-.58.76-1.09-.32-2.27-1.33-3.34-1.57A9.55,9.55,0,0,0,21.37,23c-.19.25-.39.5-.58.76-.75-.45-1.5-.86-2.25-1.34-.12.36.42.63.71.82a5.67,5.67,0,0,0,1.33.69c-.43.75-1.16,1.54-1.62,2.29-.09.19-.22.07-.32.16s.08.24-.1.39c-1.48,1.53-3,3-4.45,4.47-.84-1.12-2.7-2.29-3.63-3.27-.35.48.75,1.28,1.24,1.69.75.64,1.63,1.17,2.21,1.64-.15.34-.63.55-.9.91-1.61-1.15-2.64-2.58-3.95-3.64a15.6,15.6,0,0,0,3.67,3.83c-.13.21-.29.25-.44.39C11,31.74,9.78,30.48,8.64,29.38c-.26-.24-.52-.67-.92-.64A23.18,23.18,0,0,0,12,33.07a4.58,4.58,0,0,1-.51.41A43.59,43.59,0,0,1,7.28,29.4c.15,0,.32.14.45,0s-.37-.44-.54-.61a15.8,15.8,0,0,1-1.28-2.06c0-.85-.07-1.68,0-2.54.24.2.43.06.63,0a1,1,0,0,1-.24,1c.6.8.13,1.94.52,2.88A39.5,39.5,0,0,0,7,22.42c.23,0,.34.34.62.41a22.68,22.68,0,0,0,0,4.2,24.77,24.77,0,0,0,.18-5.88,2.16,2.16,0,0,0-.11.65A.57.57,0,0,0,7,22a5.25,5.25,0,0,0-.2-1.3,17.61,17.61,0,0,0-.26,2.68c-.25-.35-.58-.11-.67-.25-.06-.33.24-.51.27-.79s-.16-.33-.23-.58c-.13-.51.11-1.18-.17-1.6a4.74,4.74,0,0,0-.14,1.23c-.18.17-.41-.06-.59.15,0-.34-.24-.65.13-1C5.14,19.06,5,17.59,5.08,16ZM5,23c.66-.1.49.3.49.84,0,.69.12,1.77.15,2.32C4.62,25.35,5.17,24,5,23ZM3.62,18.7c.86.58,1.34-.78.28-1.05.31-.79.59-1.57.86-2.35.16.06.07.29.06.45a23.63,23.63,0,0,0,.11,4c-1-.5-1,.8,0,1-.21.38.12.86-.35,1.14C3.61,21.1,4.29,20,4,19.11a4.05,4.05,0,0,0-.14,1c-.21,0-.43-.16-.61,0A12.31,12.31,0,0,1,3.62,18.7Zm.45,4c-.12-.13,0-.3-.06-.44.14-.09.33.21.45-.06.57.87.16,1.87.32,2.79-.25-.08-.52-.35-.74-.17,0-.24-.1-.46,0-.72.13.14.24.07.35.07C4.53,23.69,4.87,23,4.07,22.72Zm-1-1.95c.18-.14.42.14.61.07.09.55-.17,1.13,0,1.67a1.86,1.86,0,0,0-.65.57C3,22.32,3.16,21.53,3.1,20.77Zm-.51,1.35c.19.09,0,.42,0,.68s0,.55,0,.8c0,.51.19,1.21-.26,1.46A7.65,7.65,0,0,1,2.59,22.12ZM7.53,34.81c-1.25-.84-2.23-2-3.26-2.71.1.63.9,1.16,1.51,1.69a18.8,18.8,0,0,0,1.69,1.37c0,.14-.5.12-.6.35C5.15,34.14,3.55,33,2.74,31.4A16.53,16.53,0,0,1,1.5,28.84c-.39-1.35.2-2.84.43-4.29a31.2,31.2,0,0,0,.4,5.12c.43-.1.44.55.91.64,0-.56-.45-1-.73-1.57A20.85,20.85,0,0,1,2.42,26c.4.33.35,1,.39,1.57a10,10,0,0,0,.26,1.67,12.41,12.41,0,0,0,0-3.1,1,1,0,0,0,.33-.34c.14-.31-.14-.56-.37-.82,0-.41,0-.81,0-1.21a4.42,4.42,0,0,0,.62.41c.16,1.16.09,2.35.3,3.51-.86.27,0,1.42.57,1.17.51-.65-.73-1.09-.34-1.73a10.59,10.59,0,0,0,.67,1.65c.27.52.56,1.2,1.1,1.45a3.45,3.45,0,0,0-.58-1.51,6,6,0,0,0-1.18-1.78,2.72,2.72,0,0,1,0-1.24c.24.21.48.39.66.18.11.58,0,1.18.19,1.75A4.77,4.77,0,0,0,5,25.81c.24.37.44,1.08.73,1.57-.72-.27-.91.82-.25,1A.53.53,0,0,0,6.08,28a22.29,22.29,0,0,0,5,5.74,1.71,1.71,0,0,1-.42.28c-1.52-1.17-3-2.85-4.35-3.82a3.78,3.78,0,0,0,1,1.34c.89.88,1.9,1.8,3,2.7a3.59,3.59,0,0,1-.63.39C7.82,33.15,6.31,31.41,4.68,30c-.12.39.29.73.55,1a42.24,42.24,0,0,0,4.08,3.82,2.24,2.24,0,0,1-.75.29c-.64-.51-1.36-1.18-2-1.82a13,13,0,0,0-1.81-1.73c-.07.32.32.62.57.91.64.71,1.34,1.39,2.05,2.11C7.35,34.6,7.85,35,7.53,34.81ZM25.68,43.9a50.74,50.74,0,0,1-10.84-3.73,35.57,35.57,0,0,1-7.13-4c-.17-.14.24,0,.33-.08a3.52,3.52,0,0,1,.43-.13,1.07,1.07,0,0,1,.45.21c-.16-.43.31,0,.49-.22.27.1.49-.17.75-.1,6.54,4,12.71,5.18,19,7.27-.19.14-.5.13-.55.45A113.54,113.54,0,0,1,8.52,36a12.22,12.22,0,0,0,2.86,1.6,122,122,0,0,0,19.68,7h0C29.85,45,27.21,44.24,25.68,43.9Zm5.53.37c.38-.18.75-.4,1.19-.08A1.05,1.05,0,0,1,31.21,44.27ZM31,42.76c.49-.22,1.08.34,1.62.58C32.1,43.5,31.5,42.9,31,42.76Zm2.14,1c-.08,0-.18-.22-.24-.12,0-.18.27-.19.41,0C33.23,43.74,33.16,43.71,33.11,43.8Zm.27-.79A11.41,11.41,0,0,1,32,42.32a10,10,0,0,1,2.25-.74c.12.23-.45.56-.35.8.66-.26,1.2-1.4,1.82-1.94a6.45,6.45,0,0,1,.91.3C35.53,42,34.62,42.84,33.38,43Zm.81,5.64a6,6,0,0,1,.1-2.14,2.14,2.14,0,0,0,.22-.1A15.8,15.8,0,0,1,34.8,49,1.37,1.37,0,0,1,34.19,48.65Zm-.1-4.3c-.07-.14.2-.14.26-.26a4,4,0,0,0,.61.26C34.72,44.72,34.36,44.23,34.09,44.35Zm1.11,3.33c-.06-.62-.09-1-.14-1.38a.2.2,0,0,0,.14-.09c.13.89.31,1.77.42,2.66C35.12,49.09,35.26,48.26,35.2,47.68Zm.93,1a12.76,12.76,0,0,1-.49-2.58l.13-.17a7.88,7.88,0,0,1,.26,1.4C36.12,47.83,36.39,48.35,36.13,48.73Zm.5-3.16c.23.87.3,1.77.57,2.65-.1.11-.22.11-.31.22-.18-.89-.33-1.79-.47-2.69C36.48,45.6,36.57,45.69,36.63,45.57Zm10.61-8.41c-.22-.23-.37,0-.54.18-.07-.08,0-.18-.15-.24a5.38,5.38,0,0,1-2.1-.82,4.57,4.57,0,0,1,.47-.71,8,8,0,0,0,2.28,1c.1-.13,0-.23.14-.37-.57-.48-1.38-.39-2.1-1,.19-.17.18-.32.31-.49.62.35,1.25.83,1.79.64,0-.65-1-.43-1.46-1.06.19-.22.19-.4.41-.62.55.62,1.25.41,1.57,1,.29-.65-1.14-1-1.4-1.41,0-.09.24-.21.16-.29.2-.13.24.23.49.32a2.22,2.22,0,0,0-.31-.64,6.52,6.52,0,0,1,.83-1.43c.54-.75.26-1.4.46-2.25a3.55,3.55,0,0,1,1.47-.08,3.74,3.74,0,0,1,1.52.37,4.23,4.23,0,0,1,.63,2.22,7.59,7.59,0,0,1-.94,2.35C48.09,38,43.75,43.16,40.59,47a9.25,9.25,0,0,1-3.86,2.58A53.76,53.76,0,0,0,47.24,37.16Zm-4,10.72c0,.12.09.24,0,.38-.62-.26-1.19-.19-1.8-.45a1,1,0,0,0,.72-.32A4.54,4.54,0,0,1,43.27,47.88Zm-.54-1c.18,0,.53.15.35.41a2.08,2.08,0,0,0-.54-.08C42.46,47.09,42.68,47,42.73,46.85ZM40.81,49c-.19.15-.42.07-.61.2-.07-.16.2-.15.25-.34C40.58,48.93,40.69,48.91,40.81,49Zm.75,1.38c-1.2.74-2.57.11-3.75.26-.21-.53.12-.36.48-.1.08-.14-.34-.21-.27-.34A10.32,10.32,0,0,0,41,50.11a1.17,1.17,0,0,1,.64,0C41.64,50.21,41.48,50.3,41.56,50.37Zm-.7-1.88c.11-.21.25-.21.37-.38a4.05,4.05,0,0,0,1.22.4C42.11,48.82,41.39,48.66,40.86,48.49ZM42.2,52.4a.88.88,0,0,1,0-1.21,6,6,0,0,0,.41,1.12C42.48,52.44,42.34,52.39,42.2,52.4Zm1.14-2A5.34,5.34,0,0,0,44,52c-.18.08-.33,0-.31.22C43.52,51.7,43,50.9,43.34,50.4Zm0,3c.14-.1.31,0,.45-.06.23.5.9.7,1.31.81-.21.12-.78,0-1.13,0C43.68,53.93,43.26,53.71,43.35,53.42Zm.92,1a13.23,13.23,0,0,1,2.77.32c0-.06,0-.1-.1-.14.48,0,.93-.21,1.47.26a33.15,33.15,0,0,1-3.59,0A1,1,0,0,1,44.27,54.4Zm4.69.86.63.48c-.55,0-1.17,0-1.82,0-.92,0-1.83.18-2.57-.64C46.46,55.21,47.71,55.26,49,55.26Zm-.64,2.05-.3-.23a4,4,0,0,1,1.93.28C49.43,57.57,48.81,57,48.32,57.31ZM50,56.57c-1,0-2.29.49-3.43-.5,1.36.22,2.66-.11,4.06.37C50.51,56.67,50.18,56.55,50,56.57Zm-.05-1.25c.28-.07.62.3.93.45C50.57,56,50.23,55.54,49.91,55.32ZM50.69,57a.59.59,0,0,1,.73,0C51.19,57.13,50.92,56.93,50.69,57Zm.76,1.45c-.13,0,.28-.28.39-.17C51.72,58.37,51.58,58.36,51.45,58.45Zm-.28-2.16a.81.81,0,0,1,.78.2A.71.71,0,0,1,51.17,56.29Zm.8,1.83c.17-.06.33-.25.51-.22C52.47,58,52.14,58.21,52,58.12Zm-.41-4.33a1.19,1.19,0,0,1,1.3.4C52.47,54.4,52,54.23,51.56,53.79Zm1,1.64c.26,0,.74-.08.83.31C53.17,56,52.86,55.64,52.57,55.43ZM53.94,57a31.77,31.77,0,0,0,2.45-2.39,5.19,5.19,0,0,0,1.2-2.09,9.07,9.07,0,0,1-1.31.74c-2.21-1.6-4.42-3.25-6.6-4.54a5.56,5.56,0,0,1,.7-.74A40.4,40.4,0,0,0,57,52.59a11.72,11.72,0,0,0-2.32-1.85c-.18-.12,0-.05.09-.2a37.22,37.22,0,0,1-4.06-3,4.53,4.53,0,0,0,.59-.69c.63.55,1.72,1,1.51,1.7.22,0,.1-.27.25-.41a19.55,19.55,0,0,0,1.73,1.13c0-.59-1.16-1-1.67-1.56.07-.23.06-.62.24-.75.35.25.7.59,1,.52,0-.36-.63-.63-.95-.94a2,2,0,0,1,.15-.55,10.7,10.7,0,0,1,1,.59c.13-.38-.6-.65-.92-1a2.22,2.22,0,0,1,.29-.71c.43.24.89.67,1.27.51-.24-.39-.77-.51-1.13-.87a2,2,0,0,1,.27-.53c.19,0,.41.23.6.26.09-.24-.19-.43-.46-.62a19.47,19.47,0,0,1,2.35-3.14c1-1,2.35-1.07,3.25-1.78,1.15,1,2.55,1.63,3.07,2.7.35.71,0,1.43.23,2.12-.14.24-.4.5-.28.72s.37-.07.55-.19c.63.36,1.51-.11,1.85.63-.67.1-1.39-.26-2,0a5.13,5.13,0,0,0,2.32.46,5.94,5.94,0,0,1,.5.65,16,16,0,0,0-2.76-.06c.38.41,1,.32,1.52.37.7.07,1.45,0,1.89.59-1,.1-2-.25-3-.15a9.38,9.38,0,0,0,3.14.62c.2.22,0,.5.25.72-1.34-.07-2.7-.26-4.05-.38.33-.48.57-1,.13-1.3-.68-.43-1.79,1.69-1.66,2.33.53.32.93-.34,1.36-.82a26.59,26.59,0,0,0,3.86.63c.62.07,1.71-.16,1.7.84-1-.09-1.91-.25-2.88-.35A14.88,14.88,0,0,0,63,48.67a44,44,0,0,0,5.71.85,4,4,0,0,1-.26.67c-2.3-.25-4.63-.77-6.92-.91a3.73,3.73,0,0,0,1.62.51c1.67.28,3.51.48,5.2.79a1.68,1.68,0,0,0-.15.55c-2.23-.07-4.52-.65-6.75-.71a3.13,3.13,0,0,0,1.61.43c1.59.26,3.27.51,4.88.62,0,.2-.29.44-.37.65-.35-.08-.68,0-1-.13l.17-.21c-.1-.07-.16.17-.24.22-1.93-.16-3.9-.54-5.82-.6.49.28,1,.21,1.12.79-.68.24-1.15-.33-1.48-.93a1.16,1.16,0,0,0,.18.8c-.08.14-.19.06-.28.19a1.27,1.27,0,0,1,.72,1.15c-.57-.33-1.51-.07-1.75-.67-.16,0-.28.36-.44.39a2.1,2.1,0,0,1,.54,1.22.85.85,0,0,0-.51-.13,3.36,3.36,0,0,1-.28-.68c-.14,0-.48.29-.28.45-.12.13-.28,0-.39.17,0,.18.38.08.55.23,0,.36.35.69.33,1-.18-.14-.34-.07-.52-.19a4.77,4.77,0,0,0-.39-1A3.47,3.47,0,0,0,55.93,56c-.07,0-.17-.11-.23,0a10.7,10.7,0,0,1-2.31,1.43C53.44,57.16,53.74,57.12,53.94,57Zm.3,1.78c.16-.06.31-.2.46-.25,1.3.38,3,.83,4.06,1.25C57.25,59.38,55.76,59.12,54.24,58.73Zm4.08,8.68s-.08,0-.11,0c-.13-.12-.06-.27,0-.41C58.28,67.12,58.43,67.25,58.32,67.41ZM58.24,63c-.13-.34.08-.74,0-1.09C58.55,62.08,58.43,62.64,58.24,63Zm.36,3.36c.2.13.41.6.6.86A2.41,2.41,0,0,1,58.6,66.36Zm-.08-1.73c.52.41.79,1.18,1.29,1.72-.11.16-.25.06-.35.2C59.08,65.92,58.41,65.32,58.52,64.63Zm1.13,2.27c.13-.11.26-.19.41-.09C59.94,67,59.82,67.09,59.65,66.9ZM60,69.27c.24-.06.25-.31.52-.33a4,4,0,0,0,2.25,1.32,2.89,2.89,0,0,0,.08.6A3.33,3.33,0,0,1,60,69.27Zm2.6-1.82c0,.17.14.32-.06.5C62.36,67.82,62.47,67.64,62.64,67.45Zm.27-1.39c-.15-.08-.12-.19-.19-.28C62.83,65.72,63,66,62.91,66.06Zm-.12-1.76c-.47-.9-.82-1.81-1.26-2.71.22-.19.45-.25.66-.42a10,10,0,0,0,.92,2.71Zm.66,1.31c-.26-.17-.11-.49.15-.62.15.07.12.16.22.23C63.7,65.4,63.56,65.4,63.45,65.61Zm.13-2.17a8.6,8.6,0,0,1-1-2.48c.34-.38.71-.53,1.06-.86.17.4.22.85.36,1.28s.51.8.31,1.24C64,62.24,64,61.49,63.53,61c-.17.55.25,1.36.41,2C63.94,63.09,63.7,63.23,63.58,63.44Zm.85.72c.14.09.06.19.19.28a1.84,1.84,0,0,1-.39.43C63.94,64.68,64.18,64.31,64.43,64.16Zm.16,4.93c-.15-.18-.36-.13-.38-.29.16-.13.37.13.51-.14C64.9,68.85,64.81,69,64.59,69.09Zm.33-5a.38.38,0,0,1,.15-.62c0,.1.18.18.19.28A1.09,1.09,0,0,1,64.92,64.13Zm.38,2.3c.36.07.17.73.14.85C65.22,67,65.39,66.71,65.3,66.43Zm.14,2a1.77,1.77,0,0,1-.07-.52C65.56,67.89,65.55,68.25,65.44,68.41Zm.17,1.26a.39.39,0,0,0-.26-.19,1,1,0,0,1,.31-.23l.26.2A1.6,1.6,0,0,0,65.61,69.67Zm.61-3.13c-.23-.13,0-.63-.12-.89C66.27,65.77,66.16,66.27,66.22,66.54Zm0,1.17a1.36,1.36,0,0,1,0-.75A1.13,1.13,0,0,1,66.18,67.71Zm.19,1.41-.26-.19.17-.21C66.73,69,66.79,68.71,66.37,69.12Zm.81-.71c-.11-.13-.19-.07-.28-.15s.17-.16.25-.34C67.19,68.08,67.27,68.24,67.18,68.41Zm-.38-2.29c.12-.06.28.18.41.25a.75.75,0,0,1-.31.76A8.63,8.63,0,0,1,66.8,66.12Zm1-1a.14.14,0,0,1,.15,0c.35.29.29.64-.06,1C67.73,65.81,67.87,65.45,67.77,65.13ZM68,67.74c-.17-.2-.1-.43.14-.69A.44.44,0,0,1,68,67.74Zm.85-.75c0-.21-.18-.4,0-.64A1.17,1.17,0,0,1,68.81,67Zm.74-1-.21-.17c0-.11.08-.27.23-.29C69.54,65.72,69.65,65.86,69.55,66Zm.55-.45c0-.23-.2-.43.06-.69A1.27,1.27,0,0,1,70.1,65.58Zm.57-.83c-.12-.24,0-.51.27-.79C71.1,64.19,70.93,64.46,70.67,64.75Zm.71-.93a.65.65,0,0,1,.21-.7A.62.62,0,0,1,71.38,63.82Zm.75-.89a.55.55,0,0,1,.11-.65C72.28,62.48,72.4,62.68,72.13,62.93Zm.69-.81a.7.7,0,0,1,.19-.85C73.25,61.51,73.06,61.94,72.82,62.12Zm.82-.63c-.11-.39-.28-.88.22-1.24C73.92,60.65,74.12,61,73.64,61.49ZM74,56.42c-.89,1.12.28,2-.5,3.08-.26,0-.2-.53-.22-.83s-.07-.73-.1-1c-1,.88.25,1.8-.46,2.78a17.07,17.07,0,0,1-.19-2c-1,1-.07,1.79-.44,2.73-.31-.44-.08-1.27-.24-1.85-1,1,.06,1.78-.51,2.74-.16,0-.16-.51-.18-.8a5,5,0,0,0,0-1c-.86.85.27,1.78-.52,2.75a16.25,16.25,0,0,1-.21-2c-.85,1-.1,1.72-.34,2.61-.23-.08-.1-.56-.12-.89s-.11-.73-.09-1c-1,.76.13,1.83-.55,2.79-.09-.69,0-1.4-.19-2.09-.82.88.1,1.81-.4,2.77-.18-.69-.07-1.42-.23-2.12-.77.44-.22,1.29-.42,1.75-.48-.29-.2-.68-.28-1a4.57,4.57,0,0,0-.88.53c.5.48.29,1,.25,1.6-.65-.4-.22-.93-.41-1.39-.16.19-.62.36-.53.6-.12-.11-.28.07-.4-.18-.39.26-.12.88-.31,1.1-.34-.27-.25-.59-.23-.91a.43.43,0,0,1,.32-.16A70.85,70.85,0,0,0,73.23,56a4.26,4.26,0,0,0,1.14.35c.07.65.49,1.27-.16,2C74.11,57.69,74.14,57,74,56.42Zm.41,4a1.45,1.45,0,0,1,.34-1.48A1.43,1.43,0,0,1,74.41,60.41Zm.43-3.95a.5.5,0,0,1,.43.13c-.18.18-.17.33-.31.5C74.88,56.88,74.93,56.66,74.84,56.46Zm.48,2.5c-.28-.2-.18-.78.11-1.18C75.7,57.84,75.56,58.59,75.32,59Zm.42-.81c-.46-.25.1-.9.44-1.53.24-.43.39-1.27.83-.9C76.54,56.54,76.2,57.34,75.74,58.15Zm1.37-2.82c-.09-.12-.15,0-.24-.12.1-.14.14-.38.32-.42s.12.1.16.06C77.43,55,77.23,55.16,77.11,55.33Zm.45-.85c-.06,0-.16-.12-.23,0,0-.23.17-.82.51-.48A2.1,2.1,0,0,1,77.56,54.48Zm.53-.94a.46.46,0,0,1-.39-.1c.14-.18.07-.33.27-.52.12.12.21,0,.33.18A1,1,0,0,0,78.09,53.54Zm.35-.8a1.13,1.13,0,0,0-.37-.22c.1-.19.07-.51.26-.6C78.54,52.18,78.45,52.46,78.44,52.74Z"/><path class="cls-1" d="M11.31,18c.28-.36-.08-.9-.62-1C9.44,17.35,10.75,18.75,11.31,18Z"/><path class="cls-1" d="M74.41,48.51a1,1,0,0,0-.66-.71c0,.08-.12.05-.17.13a8.91,8.91,0,0,1,0,1.86C74.21,49.77,74,49,74.41,48.51Z"/><path class="cls-1" d="M13.81,26.74a.26.26,0,0,1-.14.1,8.1,8.1,0,0,0,2.3,2C15.79,28.05,14.46,27.44,13.81,26.74Z"/><path class="cls-1" d="M13,27.42s-.09,0-.14.09a9,9,0,0,0,2.48,2.18C15.21,28.89,13.56,28,13,27.42Z"/><path class="cls-1" d="M12,13.68c.09.13.22.37.39.37,0-.2.11-.42-.15-.58C12.11,13.48,12,13.58,12,13.68Z"/><path class="cls-1" d="M12.15,25.6a29.62,29.62,0,0,0,.38-4.06s-.11-.06-.15,0A10.9,10.9,0,0,0,12.15,25.6Z"/><path class="cls-1" d="M11.3,25.48c.25-.92-.06-1.78.37-2.73-.18-.19-.17-.6-.28-.68a.23.23,0,0,1-.05.23c-.77-.15-1.1,1.21-.17,1.27C11.4,24.16,11,25,11.3,25.48Z"/><path class="cls-1" d="M13.38,29c-.76-.58-1.59-1.26-2.14-1.65a1.77,1.77,0,0,0-.16.22,13.28,13.28,0,0,0,3.48,2.68C14.59,29.68,13.89,29.34,13.38,29Z"/><path class="cls-1" d="M12.62,14.39c-1.14.19-.3,1.48.52,1.41C13.92,15.36,13.23,14.54,12.62,14.39Z"/><path class="cls-1" d="M13.21,21.27a5.36,5.36,0,0,0,.09,2.4,8.21,8.21,0,0,0,.06-2.42C13.3,21.21,13.25,21.18,13.21,21.27Z"/></g></g></svg>