<svg xmlns="http://www.w3.org/2000/svg" viewBox="0 0 111.76 114.88"><defs><style>.cls-1{fill-rule:evenodd;}</style></defs><g id="Capa_2" data-name="Capa 2"><g id="Layer_1" data-name="Layer 1"><path class="cls-1" d="M20.87,70.34c.39.61-.06,2.59,1,2.36a2.27,2.27,0,0,0-.16-1.45A1.73,1.73,0,0,0,20.87,70.34Z"/><path class="cls-1" d="M26.28,87.78c-.07,0-.08-.07-.16,0S26.3,87.89,26.28,87.78Z"/><path class="cls-1" d="M23.5,75.66a1.16,1.16,0,0,0-.41-1.26C22,74.6,22.38,76.59,23.5,75.66Z"/><path class="cls-1" d="M19,60.33c-.21,0-.18.15-.26.23s-.3-.21-.6-.12a1.08,1.08,0,0,0-.13,1.3c.57.86,1.9.08,1.49-1.07C19.43,60.45,19.3,60.38,19,60.33Z"/><path class="cls-1" d="M19.42,68.88a1.55,1.55,0,0,0-.15.87C20,70.51,20.54,68.71,19.42,68.88Z"/><path class="cls-1" d="M17.5,70a.68.68,0,0,0,.49.08.28.28,0,0,1,.15-.17,3.12,3.12,0,0,0-.35-1.28C17.16,68.63,17.35,69.71,17.5,70Z"/><path class="cls-1" d="M19.43,73c-.43,0-.51,1.14-.12,1.3C19.88,74.53,20.1,72.92,19.43,73Z"/><path class="cls-1" d="M16.16,49c0,.51.13.89.7.76C17.42,49.29,16.58,48.31,16.16,49Z"/><path class="cls-1" d="M12.72,40.46c-1.37-.77-1.56,1.68-.63,1.88C13.34,42.62,13.22,41.16,12.72,40.46Z"/><path class="cls-1" d="M111.76,105.75a3,3,0,0,0-.63-1.25c-.29-.34-.47-.73-.77-1-.9-.9-2.33-1.18-3.32-2a.85.85,0,0,1-.37-.67c-.28.32-.26.21-.53.14a10.66,10.66,0,0,1-1.29-.67c-1.3-.59-2.82-1.08-4.21-1.6-1.87-.7-3.67-1.57-5.55-2.21s-3.75-1.39-5.64-2.09C85.65,93,82,91.56,78.2,90.2s-7.59-2.61-11.45-4a35.38,35.38,0,0,0-4.36-1.42c-.5-.12-1-.42-1.38-.5s-1-.05-1.47-.12a9.6,9.6,0,0,0-1.4-.06c-1.2.47-2.76,1.16-3.68,1.54,0-.24-.18.1-.2.18a15.55,15.55,0,0,1-3.85.43c-2.95,0-5.73-1.27-8.23-1.86-1.82-.44-3.52-1.06-5.33-1.42s-3.65-.77-5.58-1.13c-.79-6.42-2.54-12.54-3.63-19S26,49.41,25.52,42.23c-.15-2.2-.39-4.38-.61-6.54H22.74s0,.06,0,.09l-.1-.09h-.75c.43.38,1.13.64.89,1.33-.3-.46-1.14-.72-1.18-1.33H19.92a1.63,1.63,0,0,1-.09.62L19,35.69h-.92c.57.35,1.68,1,1.79,1.31s-.14.92,0,1.25c-1.2-.77-2.45-1.65-3.67-2.56h-.93C16.77,36.82,18.3,38,19.85,39c.16,4.88.74,10.08,1.22,14.6-.09,0-.13-.11-.17-.15-1.66-1.36-3.67-2.73-5.8-4.19-1.36-.94-3-2-4.41-3-.5-.36-1.29-.77-1.43-1.09-.37-.84-.23-2.56-.3-3.65-.14-2-.25-3.95-.29-5.79H7.84c0,3.12.22,6.56.46,8.8-.94-.34-.84-1.18-.93-2.52-.14-2.12-.22-4.24-.26-6.28H4A122,122,0,0,0,5.22,49.94c.49,3.54,1,7.05,1.63,10.41a65.59,65.59,0,0,0,5.87,17.78c-3.5,0-8.81-.15-11.28,1.59a4.32,4.32,0,0,0-1.42,2,3.68,3.68,0,0,0,2.8,4A41.94,41.94,0,0,0,7,85.6a19.85,19.85,0,0,1,3.49.62,26.46,26.46,0,0,1,6.15,2.22A12.41,12.41,0,0,1,19.31,90a1,1,0,0,1,.11.1A9.91,9.91,0,0,0,22,92.82a6.55,6.55,0,0,0,4.26.79c.46-.08.64-.35,1.11-.35a10.35,10.35,0,0,1,2.07,1c2.17,1,4.33,1.81,6.55,2.62,3,1.1,6.1,2.3,9,3.21,3.13,1,6,2.2,9,3.27s6.19,1.88,9.36,2.76c6.25,1.73,12.31,3.79,19,5.27,3.25.72,6.42,1.53,9.92,2.18,1.69.31,3.34.46,5.29.72a25.71,25.71,0,0,0,4.17.25c.81,0,1.2-.26,1.37.28.35,0,.36-.22.34-.51a7.68,7.68,0,0,0,2.85-1,19.52,19.52,0,0,0,2-1.76c1.23-1.11,2.53-1.95,2.76-3.86,0-.38.29.12.37-.19C111.36,106.9,111.79,106.28,111.76,105.75ZM6.35,38.9c0,1.33.17,2.86.07,4.21a27.35,27.35,0,0,1-.37-4.67C6,38.83,6.29,38.8,6.35,38.9Zm0,4.54A21,21,0,0,1,6.69,47,23.38,23.38,0,0,1,6.39,43.44ZM7,49.76a19.59,19.59,0,0,1-.23-2.46A13.48,13.48,0,0,1,7,49.76Zm.11.81c0-.15-.1-.66,0-.55S7.21,50.67,7.1,50.57ZM95.16,99c-1.34,3.27-2.29,6.89-3.5,10.28-.35-.17-.74-.28-1.06-.47,1.16-3.3,2-6.88,3.13-10.2C94.25,98.71,94.66,98.92,95.16,99Zm-1.93-.57c-1,3.38-1.94,6.89-3,10.29-.35-.15-.75-.25-1.11-.41,1.14-3.35,2.18-6.78,3.36-10.1C92.77,98.28,93,98.38,93.23,98.45ZM92,98.05c-1.09,3.34-2.14,6.71-3.13,10.14h-.11c-.29-.15-.73-.12-.94-.36,1-3.4,2.12-6.74,3.31-10A3.26,3.26,0,0,1,92,98.05Zm-1.91-1.11c-.16,0-.37,0-.44-.19A.93.93,0,0,1,90.05,96.94Zm-5.54-2.21c1.72.48,3.13,1.34,4.82,1.88,0,.07,0,.13-.1.11a46.88,46.88,0,0,1-4.81-1.66A.46.46,0,0,0,84.51,94.73Zm4.59,2.44c-1.06,3.38-2.23,6.68-3.25,10.1-1.55-.37-3.29-1-4.9-1.5,1.21-3.3,2.39-6.64,3.34-10.16C85.94,96.08,87.44,96.71,89.1,97.17Zm-5.16,12.12a6.16,6.16,0,0,0-1.1-.36c-.15-.44-.22-1-.37-1.38.45.06.79.26,1.21.35C83.7,108.38,84.12,109,83.94,109.29Zm-1.55-.49c-.31-.16-.72-.21-1-.36a8.39,8.39,0,0,0-.3-1.33,7.38,7.38,0,0,1,1.1.3C82.16,107.88,82.57,108.49,82.39,108.8ZM35.5,94a7.94,7.94,0,0,0-.78-.33,36.22,36.22,0,0,0-2-4.77,11.92,11.92,0,0,1,2,.67c.73,1.59,1.44,3.22,2.16,4.82h-.11a7.36,7.36,0,0,0-.71-.22c-.31-.84-.64-1.77-1-2.63s-.72-1.81-1.4-2.17C34.06,91,35.08,92.38,35.5,94Zm-.4-4.3c.37.1.68.27,1,.36.65,1.6,1.37,3.1,2.05,4.67,0,0,0,.06-.11.06-.25-.14-.6-.15-.88-.27A49,49,0,0,0,35.1,89.65Zm1.55.6c.37.12.7.27,1.05.41.48,1.14,1.09,2.45,1.65,3.51.17.32.29.87.71.86-.49-1.5-1.2-2.75-1.8-4.13A89,89,0,0,1,48,95.62c.2.89.62,1.83.72,2.65-3.36-1.15-6.62-2.41-10.11-3.41C38,93.28,37.37,91.72,36.65,90.25Zm7.54.56c.36.13.45,1.18.27,1.55a2.83,2.83,0,0,0-.28-.2A6.72,6.72,0,0,1,44.19,90.81Zm.81.81c.14.16.28.9.08,1.07A2.16,2.16,0,0,1,45,91.62Zm.63.55a.84.84,0,0,1,.34,1c-.09-.09-.24-.11-.33-.19C45.65,92.72,45.52,92.34,45.63,92.17Zm.86.7c1,.65,2.24,1.33,3,2-1-.45-2-1-3-1.41C46.52,93.26,46.51,93.06,46.49,92.87Zm2.1,3a4.83,4.83,0,0,1,.88.32,18,18,0,0,0,.93,2.47c-.41,0-.71-.19-1.1-.25C49.13,97.46,48.82,96.71,48.59,95.85Zm1.44.6a4.2,4.2,0,0,1,.83.38c.1.7.6,1.55.52,2.07-.14-.12-.44-.08-.6-.18C50.59,97.9,50.22,97.28,50,96.45Zm1-2.28c.22-.58.56-1.06.75-1.67,1.56,1.76,3.29,3.64,4.79,5.28A29.33,29.33,0,0,1,51.06,94.17Zm10.6-4.29c.24.06.35.26.47.45a10.84,10.84,0,0,1-.71,1.45c-.07-.21-.27-.27-.36-.46A8.39,8.39,0,0,0,61.66,89.88ZM61.39,89c-.22-.35-.52-.61-.76-.93.48,0,.77-.2,1.28-.19A2.16,2.16,0,0,1,61.39,89Zm16,12.49c.89.37.65,1.37.3,2.14C76.94,103.07,77.1,102.44,77.42,101.53Zm.23,2.63c0,.66-.62.32-1,.18,0-.41.22-.65.25-1A2.91,2.91,0,0,1,77.65,104.16Zm.24.31c.16,0,.39.32.35.41a1.13,1.13,0,0,0-.39-.14C77.8,104.59,77.92,104.59,77.89,104.47ZM78,104a9.43,9.43,0,0,0,.39-1.27c.42.28.66.76,1,1.07a6.29,6.29,0,0,1-.45,1.37C78.69,104.75,78.31,104.4,78,104Zm.23-2.12c-.92-.62-.41-1.65-.07-2.64A51.16,51.16,0,0,0,79.87,94c.33.12.74.16.94.42C79.86,96.83,79.1,99.38,78.25,101.85Zm-1-1.28c-.49-.65-1-1.27-1.53-1.94a9.14,9.14,0,0,0-1.54-1.95A13.32,13.32,0,0,0,76.34,100c.24.31.74.76.78,1.08s-.4.78-.35,1.27a25.65,25.65,0,0,1-2.06-2.51c-.21-.27-.33-.72-.7-.76A13.71,13.71,0,0,0,75.28,101c.61.85,1.74,1.75,1.06,3-.7-1.36-1.94-2.33-2.63-3.7-.11-.23,0-.58-.37-.68-.31.46.14,1,.37,1.32a22.16,22.16,0,0,0,2.59,3.28s0,.06,0,.06c-2.37-.65-4.77-1.25-7.1-2,1.31-3.49,2.62-7,4-10.47,2.07.8,4.52,1.16,6.46,2.1C78.7,96.05,78,98.37,77.24,100.57Zm-8.46,1.66a6.45,6.45,0,0,1-.94-.26c1.23-3.57,2.69-6.94,4-10.47a2.33,2.33,0,0,1,.89.26C71.24,95.13,70.09,98.75,68.78,102.23Zm-1.27-.39a6.61,6.61,0,0,1-1.27-.35c1.32-3.62,2.92-7,4.24-10.6.33.14.75.18,1,.48C70,94.76,68.74,98.28,67.51,101.84Zm2.18-9.92c-1.23,3.18-2.55,6.33-3.72,9.48a6.36,6.36,0,0,1-.66-.17c1.33-3.39,2.87-6.79,4.32-10.06.08-.16.13-.53.4-.52C70.18,91.1,69.84,91.52,69.69,91.92Zm-4,7.07c-.63-.67.25-1.78.58-2.57.89-2.11,1.78-4.35,2.54-6.22.29,0,.39.21.66.22C68.31,93.36,67,96.15,65.69,99Zm0,.11a3.9,3.9,0,0,1-.52,1.17c-.54-.39-.08-1.11.17-1.52C65.39,98.89,65.47,99.06,65.65,99.1Zm-.56,1.39c0,.2-.15.33-.17.55-.25.07-.27-.11-.5-.07a3,3,0,0,1,.32-.89A4.47,4.47,0,0,1,65.09,100.49Zm-.66-1c-.14-.27-.4-.4-.53-.67a3.91,3.91,0,0,0,.42-1,1.37,1.37,0,0,1,.58.61A5.2,5.2,0,0,1,64.43,99.46Zm-.27-2.41a7.89,7.89,0,0,1-.76-.87c.1-.41.3-.74.4-1.16a4.8,4.8,0,0,1,.88,1A4.54,4.54,0,0,1,64.16,97.05Zm-5.66.12a3,3,0,0,1,.38-.79c.09.22.33.28.41.52-.18.2-.17.55-.38.72C58.81,97.43,58.56,97.41,58.5,97.17Zm.28,1c-.09.56-.55.67-.9.23.23-.17.22-.55.44-.74C58.45,97.86,58.69,97.93,58.78,98.17Zm.28-2.28a6.83,6.83,0,0,0,.42-1c.68.21.24,1,0,1.35C59.36,96.12,59.16,96.05,59.06,95.89Zm.66-1.4c.13-.34.28-.66.41-1a.78.78,0,0,1,.41.41,5.4,5.4,0,0,1-.47,1C60,94.72,59.76,94.72,59.72,94.49Zm2,.62a2.28,2.28,0,0,1-.46,1.06c-.23-.33-.57-.51-.76-.87a3.08,3.08,0,0,1,.47-1A9.59,9.59,0,0,0,61.75,95.11Zm-.62-1.2a8.43,8.43,0,0,1,.62-1.28c.88.54.57,1.33.14,2.09A6.5,6.5,0,0,0,61.13,93.91Zm-.79,1.83c.28.33.61.58.87.92-.23.23-.16.73-.47.89-.2-.39-.66-.48-.82-.91A5.3,5.3,0,0,1,60.34,95.74ZM61.62,97c.23.29.52.52.75.81-.2.22-.11.7-.42.84a5.91,5.91,0,0,1-.76-.82A4.65,4.65,0,0,1,61.62,97Zm.13-.39a3.53,3.53,0,0,1,.47-1.06c.2.29.48.49.7.76-.2.3-.18.79-.47,1C62.22,97.08,62,96.85,61.75,96.62Zm.6-1.45c.1-.46.39-.77.46-1.27a2.06,2.06,0,0,1,.7.76c-.21.36-.2.91-.52,1.17C62.79,95.6,62.57,95.39,62.35,95.17Zm1.29-1a6.84,6.84,0,0,1-.65-.76,15.75,15.75,0,0,1,.65-1.5c.16.29.45.45.6.77C64,93.2,63.88,93.76,63.64,94.22Zm-.43-3.15c-.11-.31-.43-.37-.49-.72.29-.73.62-1.42.88-2.17.27,0,.43.12.71.11A18.08,18.08,0,0,1,63.21,91.07Zm-.09.38A6.65,6.65,0,0,1,62.53,93c-.19-.3-.5-.47-.65-.82a12.22,12.22,0,0,0,.6-1.38C62.8,90.9,62.94,91.2,63.12,91.45Zm-2.4,2c-.7-.4,0-1.13.16-1.68C61.69,92.08,60.89,92.94,60.72,93.45Zm-.81-.81c-.9-1-1.88-2-2.75-3.1.52-.13.84-.42,1.31-.57a26.38,26.38,0,0,1,2.06,2.39C60.3,91.77,60.23,92.32,59.91,92.64Zm-.13.39a6.15,6.15,0,0,1-.46,1.11c-1.14-1.23-2.43-2.64-3.51-3.86-.12-.14-.34-.3-.31-.52l1.24-.08C57.75,90.8,58.72,92,59.78,93Zm-.65,1.56a3,3,0,0,1-.47,1c-1.58-1.65-3.35-3.49-4.84-5.18-.22-.24-.53-.52-.48-.72a11.05,11.05,0,0,0,1.57.11C56.24,91.45,57.75,93,59.13,94.59Zm-.65,1.55c-.13.24-.16.57-.38.73a63.06,63.06,0,0,1-5.55-6.09,4.16,4.16,0,0,1,.43-.9C54.7,92.09,56.62,94.09,58.48,96.14ZM58,97.42c-.22.22-.19.65-.38.89-1.84-2.11-3.88-4-5.61-6.25a3.2,3.2,0,0,0,.33-.73C54.2,93.37,56,95.49,58,97.42Zm-6.33-5.67c-.17-.31-.43-.51-.6-.82a2.74,2.74,0,0,0,.33-.78,1.63,1.63,0,0,1,.64.77C51.86,91.17,51.87,91.56,51.65,91.75Zm7.89,8.75a8.45,8.45,0,0,0,.22.9h-.11c-2.45-.93-5.16-1.56-7.72-2.38a8.34,8.34,0,0,1-.51-2C54.26,98.05,56.4,99.85,59.54,100.5Zm-.65-1.58a1,1,0,0,0,.18-.44c.35.25,1.08.63,1,1C59.71,99.25,59.21,99.19,58.89,98.92Zm.42-1a5.26,5.26,0,0,0,.33-.72,3,3,0,0,1,1,.9c-.14.24-.18.56-.33.78C60,98.61,59.63,98.31,59.31,98Zm.89,2.75A2.6,2.6,0,0,0,61,101c.1.33.23.63.34,1a9.44,9.44,0,0,1-.94-.32C60.38,101.29,60.06,101,60.2,100.72Zm.71-2.26a2.5,2.5,0,0,1,.91.8c-.13.23-.11.6-.32.77A1,1,0,0,1,60.91,98.46ZM62,101.3c0,.38.21.72.13,1-.41-.13-.44-.69-.62-1.09A3.17,3.17,0,0,1,62,101.3Zm-.18-1.17c0-.27.19-.41.22-.67a3.69,3.69,0,0,1,.92.75c-.15,0,0,.25-.1.22A8.36,8.36,0,0,0,61.78,100.13Zm1.29,1.47c0,.38.37,1,.23,1.12l-.66-.28c0-.38-.23-.59-.23-1A4.55,4.55,0,0,1,63.07,101.6Zm0-1.94c-.23-.29-.59-.44-.76-.81.14-.25.18-.59.38-.78a6.5,6.5,0,0,1,.76.81C63.28,99.13,63.24,99.47,63,99.66Zm-.24-2a3.62,3.62,0,0,1,.46-1.06c.21.37.59.52.77.92a7.68,7.68,0,0,1-.48.95Q63.19,98.07,62.8,97.68Zm1,1.5c.16.23.45.32.58.6-.21.23-.15.69-.43.84-.13-.27-.41-.38-.53-.66C63.55,99.68,63.59,99.35,63.82,99.18Zm3.44,3.75a.49.49,0,0,1,.07.32c.28-.31,1.06,0,1.22.35.14-.12.12-.19.36-.13,3.92,1.21,8,2.24,11.8,3.56,0,.5.32.94.25,1.33-5.65-1.88-11.82-3.16-17.1-5.46,0-.44-.39-.79-.3-1.17C64.79,102.13,66,102.52,67.26,102.93ZM82.85,94.2a8.09,8.09,0,0,1,1.37.39A.91.91,0,0,1,84,95a12.16,12.16,0,0,1-1.28-.5A.42.42,0,0,0,82.85,94.2Zm1.05,1.22c-1,3.5-2.05,7-3.34,10.21a8.24,8.24,0,0,0-1.16-.35c.06-.4.23-.71.3-1.1.31-.14.35.48.74.44-.07-.32-.51-.51-.55-.88a7.9,7.9,0,0,1,.71-2.16c.73-2.17,1.45-4.58,2-6.56C83.1,95.11,83.45,95.32,83.9,95.42Zm-2.27-1.68c.24.19.69.13.89.37-.1.58-.75.12-1.08,0C81.55,94,81.51,93.81,81.63,93.74Zm.56,1.09c-.88,2.86-1.73,5.74-2.65,8.55-.29-.42-.69-.72-.94-1.17.81-2.61,1.75-5.11,2.66-7.63C81.65,94.57,81.85,94.78,82.19,94.83Zm-10-4.49c3,1,5.79,2.32,8.91,3.22,0,.16,0,.37-.24.39a71.67,71.67,0,0,0-7.67-2.49,5.39,5.39,0,0,1,0-.71c-.16.2-.23.47-.44.63a4.25,4.25,0,0,0-.83-.27C72.08,90.85,72.14,90.59,72.22,90.34Zm-1.33-.5c.39,0,.62.26,1,.31,0,.32-.19.5-.27.77-.38,0-.58-.26-.94-.31C70.68,90.29,70.88,90.15,70.89,89.84Zm-.28-.2c-.1.25-.24,1-.55.63C70.22,90.06,70.18,89.47,70.61,89.64Zm-.55-.18c-.23.2-.24.57-.49.74-.23,0-.42-.14-.66-.17,0-.27.25-.55,0-.82a24.89,24.89,0,0,0-2,4.35c-.63,1.49-1.27,3-1.9,4.45,0,0,0,.06,0,.06a5.86,5.86,0,0,1-.54-.67c.26-.42.36-1.06.73-1.24-.13-.07-.09-.12-.07-.26a54,54,0,0,0,2.68-7.31A14,14,0,0,1,70.06,89.46Zm-5-2.08c.91.24,1.64.7,2.49,1a67.58,67.58,0,0,1-2.79,7.27c-.18-.45-.56-.67-.77-1.08.19-.51.37-1,.59-1.5a3.32,3.32,0,0,0,.7.65,7.37,7.37,0,0,0-.61-1,20.79,20.79,0,0,0,1.48-4.37c-.83,1.13-1.17,2.69-1.83,4a4.12,4.12,0,0,0-.59-.71c.31-1.08.79-2,1.08-3.1.16,0,.42,0,.42-.14s-.24-.15-.29-.3A.86.86,0,0,0,65.06,87.38Zm-2.15-.61c.67.14,1.26.37,2,.46a2.43,2.43,0,0,1-.43.73c-.27-.24-.69-.29-.91-.59-.2.23-.46-.05-.8,0C62.76,87.15,62.88,87,62.91,86.77Zm.2,1.34c-.31.58-.54,1.24-.85,1.83-.12-.17-.33-.27-.41-.5.26-.47.43-1,.65-1.51C62.72,88,63,87.94,63.11,88.11Zm-4.59-2.39a4.4,4.4,0,0,1,2.19.45,13.11,13.11,0,0,0,1.7.42c0,.33-.16.47-.22.72-.76,0-1.63,0-1.73.66-.37-.57-1.18-1.13-1.2-1.7-.13,0-.17-.08-.33,0,0,.72.67,1.17,1.09,1.65a15.91,15.91,0,0,1,1.29,1.58,11.2,11.2,0,0,1-.65,1.45c-.61-.74-1.29-1.38-1.88-2.14.17-.26.64-.52.6-.8a4.4,4.4,0,0,0-1.06.35c-.5-.65-1.11-1.16-1.58-1.84A4.16,4.16,0,0,1,58.52,85.72Zm-1.82.94a18,18,0,0,0,1.36,1.85,9.93,9.93,0,0,1-1.36.58c-.42-.57-1-1-1.35-1.58A6,6,0,0,0,56.7,86.66Zm-1.66,1a16.36,16.36,0,0,1,1.23,1.48c-.56,0-.94.09-1.4.09-.3-.48-.73-.82-1-1.27C54.27,87.87,54.6,87.71,55,87.64Zm-1.43.53c.3.32.54.7.83,1-.46.06-.74-.08-1.19,0A4.3,4.3,0,0,1,53.61,88.17Zm-1.45.1c.34,0,.79-.13,1-.07-.21.24-.19.68-.42.89-.1-.1-.16-.24-.34-.25s0,.26-.09.28-.41,0-.44-.13C52,88.8,52,88.46,52.16,88.27Zm.36,1.32a1.31,1.31,0,0,1-.37.83c-.13-.32-.61-.5-.55-.87C51.85,89.42,52.21,89.61,52.52,89.59Zm-1.59-1.24.75,0c0,.28-.16.43-.22.66a1.33,1.33,0,0,1-.65-.06C50.67,88.69,50.85,88.52,50.93,88.35Zm-1-.2c.13.19.34.27.37.57s-.41.06-.7.1A1.25,1.25,0,0,1,49.94,88.15ZM50,89.28c-.2,1.16-.9,2.17-1,3.3.8-.84.85-2.32,1.56-3.24,1,.3.15,1.29-.13,2.06A5.65,5.65,0,0,0,50,93.16c.44-.5.56-1.29.95-1.84.19.24.38.49.59.71a17.85,17.85,0,0,1-.83,2,26.08,26.08,0,0,1-2.47-2.1c.42-.88.78-1.81,1.16-2.72C49.65,89.19,49.77,89.31,50,89.28ZM49.4,88a2,2,0,0,1-.33.73,22.21,22.21,0,0,1-4.07-1,2.64,2.64,0,0,0-1.2-.29,12.71,12.71,0,0,0,5.13,1.64,23.33,23.33,0,0,1-1.06,2.61c-1.74-1.61-3.69-3.4-5.47-4.91-.26-.22-.66-.37-.63-.61C44.46,86.62,46.83,87.43,49.4,88ZM39,86.21c0-.39-.43-.66-.39-.95a42.55,42.55,0,0,1,7.35,6.35c-.62-.35-.93-1.06-1.71-1.23-.15-.14-.13-.47-.3-.57l-.38,0a12.11,12.11,0,0,0-2.16-1.58.66.66,0,0,0-.68-.38c.49.85.21,2.58.83,3.29.07,0,0-.21.09-.22a1.8,1.8,0,0,1,.69.6c.66-.18,1.22.64,1.53,1.08a43.17,43.17,0,0,0-5.95-2.56,31,31,0,0,0-6.51-2,2.74,2.74,0,0,1,.07-.6,14,14,0,0,1,3.08.81c1.1.36,2.69.57,3.43,1.23.19,0,.12-.16.32-.08.74.38,1.75.46,2.44.91,0-.59-.07-1.49-.16-2.2,0-.31,0-.73-.27-.85a6.25,6.25,0,0,0,.13,2.64c-.16,0-.18-.11-.33-.09-.37-1-.53-2.94-1.6-2.86a6.38,6.38,0,0,1,1.2,2.51,6.42,6.42,0,0,1-.85-.48,15.85,15.85,0,0,0-1.73-4C38.2,84.85,38.26,86.14,39,86.21Zm4.27,3.91c.41-.12.59,1.13.37,1.54C43.06,91.49,43.34,90.75,43.23,90.12Zm-.48,1c-.08-.06-.14-.15-.28-.15,0-.52-.07-1-.1-1.55C42.82,89.35,42.8,90.62,42.75,91.13ZM42,90.69c-.15,0-.35,0-.42.08,0-.79-.17-1.46-.26-2.19C41.94,88.62,42,89.8,42,90.69ZM31.43,85.05c.16.51.37,1,.54,1.48h-.16C31.77,86.18,31.23,85.67,31.43,85.05Zm.88.91c0,.29.37.54.27.79C32.35,86.72,32.25,86,32.31,86Zm.94-.44c.33-.11.21.21.29.36a10,10,0,0,1,.68,1.25s0,.06-.1.06C33.61,86.89,33.54,86.07,33.25,85.52Zm3,.82a.85.85,0,0,0,.44.13c.09.56.63,1.2.49,1.64-.09-.1-.27-.12-.39-.19C36.62,87.39,36.29,86.77,36.22,86.34Zm1,.31c.42,0,.56.49.71.81s.27.81.4,1.16c0,0,0,.07,0,.06C37.56,88.41,37.59,87.3,37.21,86.65Zm0-.43c-.84-.23-1.26-.94-1.68-1.67C36.51,84.56,36.94,85.54,37.18,86.22Zm-1.66-.64a3.9,3.9,0,0,0-.77-.27,8.14,8.14,0,0,0-.62-1.09C35,84.21,35.3,85.07,35.52,85.58Zm.2.63c0,.63.45,1.12.44,1.59a.42.42,0,0,0-.33-.08c-.33-.51-.27-1.78-1.08-1.55.16.44.34.85.47,1.32-.7-.22-.75-1.19-1.15-1.76C34.63,85.89,35.2,86,35.72,86.21ZM33.36,84c.2.33.77.85.67,1.14-.61-.06-.76-.67-1-1.17C33.2,83.92,33.2,84.05,33.36,84Zm0,2.86a.08.08,0,0,1-.1.06c-.47-.29-.46-1.14-.76-1.62C33,85.55,33.05,86.35,33.34,86.86Zm-.57-2.06a1,1,0,0,0-.44-.13c-.16-.32-.32-.65-.5-.94C32.48,83.63,32.79,84.52,32.77,84.8Zm-1.35-.72c0,.18.19.25.25.42-.13,0-.13-.1-.27,0C31.42,84.34,31.3,84.11,31.42,84.08Zm.7,4.65c.73,1.52,1.47,3,2.1,4.66,0,0,0,.06-.1.06a2.12,2.12,0,0,0-.78-.27,36.74,36.74,0,0,0-2-4.67A4.11,4.11,0,0,1,32.12,88.73Zm-1.29,0A24.44,24.44,0,0,1,32.9,93a2.18,2.18,0,0,1-.61-.17c-.27-.57-.44-1.16-.71-1.79C31.23,90.25,30.64,89.58,30.83,88.76Zm-.28,1.48a6.74,6.74,0,0,1,1.08,2.41c-.63-.32-1.43-.44-2.05-.78A1.84,1.84,0,0,0,30.55,90.24Zm-2.28-4.92c0-.18,0-.36,0-.54.57.62,1.76,1.22,1.36,2.39C29,86.52,29,85.7,28.27,85.32ZM29,86.78a3.73,3.73,0,0,0-.68-.38c0-.13,0-.26,0-.38A2.71,2.71,0,0,1,29,86.78Zm.57-1.12c-.42-.81-1.54-1.12-1.41-2.38a4.5,4.5,0,0,0,1.38,1.2A5.3,5.3,0,0,1,29.59,85.66Zm-.1-1.45c-.38-1-1.75-1.27-1.59-2.75C28.39,82.39,29.77,82.59,29.49,84.21Zm-4.74,3.24c-.73.19-1.2-.21-1.13-.73C24,87,24.54,87,24.75,87.45Zm-1.28-1.31c.16,0,.21.11.28.19C23.62,86.31,23.47,86.31,23.47,86.14Zm.57-.31c.31.46,1,.43,1.06,1.22A3.55,3.55,0,0,1,24,85.83Zm.69-1.77a7,7,0,0,1-.7,0c-.56-.08-1.08-.61-1.57-.86,0-.76-.89-.89-1.34-.67a.92.92,0,0,1-.34-.94c2.35,1.24,4.62,2.58,7,3.78-.08.29.3.58.05.7-.74-.16-.94-.85-1.43-1.2-.12-.08-.3,0-.44-.13C25.51,84.5,25.31,84.09,24.73,84.06ZM8.35,52.26A14,14,0,0,1,9.54,53c.36,1.52.7,3.05,1.12,4.51,0,.12-.19,0-.27.08.56.22.49,1.17.72,1.78-.18,0-.26-.22-.39-.08.58.43.63,1.16.9,2a66.32,66.32,0,0,0,3.16,9.06c-.77.55-.33,2.43.72,2,0,.36.33.67.28.9a24.94,24.94,0,0,0-2.31-1.35C11.39,65.77,9.3,59.67,8.35,52.26Zm5,22.65c-.2.07-.16-.13-.33-.09a2,2,0,0,1,.25-1A1.49,1.49,0,0,1,13.36,74.91Zm-.44-1.76c-.06-.15-.3-.08-.29-.3a.52.52,0,0,1,.18-.39C12.78,72.72,13.17,73,12.92,73.15ZM11.87,52.51c1.29.85,2.71,2,3.92,2.85.16.12.49.18.41.41a1.68,1.68,0,0,0-.53.09c-.2.13-.13.49-.34.61-1.63-1.18-3.27-2.35-5-3.43a10.68,10.68,0,0,1-.3-1.87C10.61,51.67,10.81,52.58,11.87,52.51Zm-.51-2c.14.22.47.2.47.56l-.32,0C11.48,50.94,11.24,50.7,11.36,50.54Zm.48-.89c.5-.34.75.65.5,1C12.15,50.33,12,50,11.84,49.65Zm1.66.64c1.43.9,2.82,1.86,4.19,2.84-.5,0-.64.28-.94.44-1.05-.78-2.18-1.47-3.28-2.2A2.54,2.54,0,0,0,13.5,50.29Zm3.34,3.87c.17.43.48,1,1.08.73a8.49,8.49,0,0,0,1.07.69,2.08,2.08,0,0,0-.57,1.11c-1.94-1.47-4-2.85-5.91-4.34.29-.14.44-.39.72-.53C14.47,52.56,15.61,53.41,16.84,54.16Zm9.91,25.55c-.75-.23-.7-.87-.88-1.83-1.32-6.9-3.13-14-3.53-21.51.24,1.44.55,2.92.84,4.37A28.07,28.07,0,0,1,23.91,65c.49,1.52.77,3.27,1.15,5,.17.82.38,1.71.55,2.55A7.82,7.82,0,0,1,26,75.82,18.87,18.87,0,0,1,26.75,79.71Zm-2.27,1.5c-.5.05-.84-.37-1.28-.56,0-1.33-1-1.15-1.72-1.39-.08.06-.1.18-.14.28a7.18,7.18,0,0,1-1.12-.63c0-.33-.13-.78,0-1q2.19,1.34,4.44,2.61c.05.7.62,1.16,1.3.77a11.84,11.84,0,0,0,1.17.62,3.16,3.16,0,0,1,.25,1.17A19.45,19.45,0,0,1,24.48,81.21Zm3.21,3.56c-.1,0-.11.07-.21.07a15,15,0,0,0-2.3-1.36c.14-.27.53-.34.48-.79C26.51,83.19,27.75,83.23,27.69,84.77ZM24.33,83c-.52-.38-1.19-.6-1.69-1,.37-.1.47-.43.66-.69C23.88,81.56,24.87,82.16,24.33,83Zm-9.46-5c.46.28.57,1,.81,1.51-.15,0-.32-.08-.38.08a2.8,2.8,0,0,1,1.08,1.49,1.76,1.76,0,0,0-.47.25c-.29-.62-.51-1.31-.83-1.89C15.4,78.88,14.74,78.6,14.87,78Zm-.35-3.59c1.51,1,3.11,1.87,4.62,2.87-.41,0-.47.4-.78.53a17.72,17.72,0,0,0-1.57-1A7.83,7.83,0,0,1,15.27,76,8,8,0,0,1,14.52,74.45Zm.08,2.85c-.16,0-.21-.1-.33-.13,0-.18.11-.25.08-.44C14.56,76.79,14.64,77.13,14.6,77.3Zm2.48-1.73a12,12,0,0,1-.48-1.43c1.41,1,2.93,1.81,4.4,2.72,0,.39.06.7.37.73s.19-.27.41-.29A1.79,1.79,0,0,1,23,79.1C21,77.9,19.09,76.69,17.08,75.57Zm-1.21,1.32c.61.63,1.8.86,2.48,1.5.32.31.36.62.75.76.16.06.32,0,.49,0,.63.15,1.06.75,1.69,1-.05.35.19,1,0,1.13A16.31,16.31,0,0,1,19,79.75c-.17,0-.1.16-.27.13a22,22,0,0,0-2.25-1.36A9.7,9.7,0,0,1,15.87,76.89Zm7.78,2.54c.58,0,.77-.24,1.11-.4.38.28.94.36,1.14.84a.91.91,0,0,0-1.23.25C24.39,79.82,24,79.71,23.65,79.43Zm3.46,2.41c-.33-.56-1.19-.52-1.18-1.49.2.06.12-.39.23-.55C26.92,79.9,27.22,81.13,27.11,81.84ZM25.73,79a1.49,1.49,0,0,1-.79-.49c.4-.79.09-2-.74-2.16a1.34,1.34,0,0,0-1.61.92c-.3-.21-.66-.36-1-.58-.08-.49-.2-.92-.71-.92-.07.33.36.37.1.59-1.6-1-3.21-1.92-4.79-2.91-.13-.52-.34-.93-.48-1.43.21-.53.08-1.6-.6-1.63a86.65,86.65,0,0,1-3.09-9.77c.18,0,.35.13.5.24A81.83,81.83,0,0,0,21.39,67c-2.94-2.59-6.33-4.67-9.49-7-.1-.44-.18-.92-.31-1.33a18.15,18.15,0,0,1,2.74,2.19,8.91,8.91,0,0,1,1.93,1.32,29.27,29.27,0,0,0,6,3.74c-2.3-1.8-4.84-3.33-7.15-5.12a1.12,1.12,0,0,0,.11-.81c-.11-.27-.34-.14-.56-.29s-.15-.5-.41-.35,0,.45-.22.61A10.1,10.1,0,0,1,12.75,59c-.34-.24-1.12-.57-1.31-.93A6.73,6.73,0,0,1,11.21,57c-.26-1.12-.45-2.09-.7-3.2,3.89,2.62,7.62,5.43,11.65,7.89C22.9,68,24.51,73.27,25.73,79ZM17,57.6c.4-.07.4-.75.24-1.15a53.41,53.41,0,0,0,4.63,3c0,.73.24,1.5.2,2.09C20.51,60.13,18.72,58.91,17,57.6Zm-7.07-7a2.72,2.72,0,0,1-.13-1.13c.09.12.28.11.29.31C9.92,50,10.06,50.4,10,50.64Zm.34-1.32a6.91,6.91,0,0,0-.62-.44c-.09-.42-.11-.92-.2-1.34a10.1,10.1,0,0,1,1.7,1.18C10.77,48.82,10.69,49.2,10.3,49.32Zm3.33,26.32c.24,0,.25.18.44.19a2.33,2.33,0,0,1-.22.72C13.74,76.26,13.51,76,13.63,75.64Zm0-3.4c.55.66,2,1,2.49,1.66a4.1,4.1,0,0,1,.59,1.48c-.79-.58-1.7-1-2.54-1.56A9.24,9.24,0,0,1,13.66,72.24Zm2.4,12.09c0,.22.34.38.25.52a24.75,24.75,0,0,0-4.1-1.5,35.74,35.74,0,0,0-7.3-1.06C9.46,81.78,12.77,83.2,16.06,84.33Zm.1-2.44c.1-.15.13-.35.41-.35.11.35.48.72.45,1C16.75,82.34,16.33,82.26,16.16,81.89Zm.95,1.28c-.07.09-.08.24-.19.29a5.59,5.59,0,0,0-.38-.73C16.77,82.84,17,82.93,17.11,83.17Zm-.21-3.92c.7.53,1.51.93,2.25,1.41a4.64,4.64,0,0,1-.33.67c-.48-.31-1-.59-1.52-.87C17.25,80,16.88,79.6,16.9,79.25Zm2,2.62a.81.81,0,0,0,1.35.77,2.18,2.18,0,0,0,.78.43c0,.58.11,1,.46,1.21a1.33,1.33,0,0,0,1.06-.4c.16.22.51.23.67.44A2,2,0,0,0,22,85.48c-.54-.29-1.08-.62-1.68-1a6.44,6.44,0,0,1-1.69-1c-.52-.62-.51-1.56-1-2.35C18.08,81.36,18.41,81.69,18.86,81.87ZM27.64,80c.55.66,1.58,1.08,1.6,2.16A6.22,6.22,0,0,1,27.64,80Zm-.08-1.13A4.28,4.28,0,0,1,29,80.47,4,4,0,0,1,27.56,78.89Zm-.15-1.44c.31.66,1.29.86,1.25,1.75C28.3,78.59,27.41,78.27,27.41,77.45Zm1,.41c-.51-.7-1.49-1.18-1.35-2.44C27.49,76.21,28.56,76.59,28.4,77.86Zm-.33-1.7c-.38-.59-.82-1.1-1.24-1.64-.25-2-.79-4-1.06-5.86.26.26.43.63.76.81-.27-.74-.88-1.08-1.05-1.93.15-.14.35.22.52.4s.43.45.58.61C27,71.18,27.76,73.64,28.07,76.16ZM26.3,67.7c-.38-.58-1.19-1-1.1-1.92C25.61,66.33,26.45,66.7,26.3,67.7ZM26,65.89c-.41-.53-1.21-.93-1.1-1.87C25.24,64.6,26.08,64.94,26,65.89Zm-.33-1.7c-.46-.58-1.28-1-1.12-2.14C25,62.64,25.77,63.12,25.63,64.19Zm-.35-1.92c-.33-.53-1.15-.81-1-1.66C24.62,61.09,25.4,61.41,25.28,62.27ZM25,60.67c-.33-.54-1.22-.73-1-1.72C24.32,59.52,25.17,59.76,25,60.67Zm-.21-1.5c-.39-.54-1.25-.85-1.05-1.87C24.07,57.92,25,58.17,24.8,59.17Zm-.21-1.5c-.43-.57-1.18-.77-1.16-1.86C23.82,56.16,24.85,56.58,24.59,57.67Zm-.16-1.55c-.53-.56-1.44-1-1.23-2.18C23.59,54.65,24.7,54.84,24.43,56.12Zm-.18-1.72c-.47-.65-1.38-.8-1.37-2C23.39,53,24.45,53.21,24.25,54.4Zm-.91-9.32c.24,2.06.53,6,.69,7.67-.29-.52-.89-.67-1.26-1.1-.33-2.82-.65-5.93-.72-8.86.27.28,1,.62,1.21,1.11A6.76,6.76,0,0,1,23.34,45.08ZM22,41.61c.35.07.66.68,1.14.79a3.9,3.9,0,0,1,.1.74C22.73,42.7,22.05,42.5,22,41.61Zm-.08-1.18c.37.34,1.28.58,1.24,1.59C22.7,41.51,21.89,41.43,21.89,40.43Zm-.06-.92c.29.25,1.08.73,1.16,1.22C22.65,40.27,22,40.12,21.83,39.51Zm1,.2c-.35-.52-1.25-.69-1.09-1.6.34.56,1,.74,1.19,1.49A.16.16,0,0,1,22.87,39.71Zm-1.24-3.1c.25.66,1.41.89,1.14,1.76C22.43,37.78,21.46,37.6,21.63,36.61Zm.15,22.61c-.59-.68-1.46-1-2.06-1.7.46-.1.52-.56.46-1.11.44.08.72.65,1.17.51-.78-1.07-2.05-1.58-3.08-2.38.14-.4-.23-.94-.19-1.22a21.31,21.31,0,0,0,3.21,2C21.38,56.66,21.8,57.94,21.78,59.22Zm-2-6c.63.46,1.66.88,1.47,1.74-2-1.5-4.67-3.24-6.81-4.72a9.47,9.47,0,0,1-1-.63c-.32-.32-.38-.66-.76-.86s-.5-.06-.77-.17a8.15,8.15,0,0,1-1.25-.88,9.15,9.15,0,0,1-1.24-.89c0-.3-.05-.6-.07-.91C12.7,48.16,16.37,50.76,19.75,53.2ZM7.55,44.54a1.34,1.34,0,0,1,.87,1.67A1.43,1.43,0,0,1,7.55,44.54Zm.16,1.66c.2.28.7.36.87.76a4.07,4.07,0,0,1,.09,1.29c-.2-.31-.76-.33-.92-.75A4.56,4.56,0,0,1,7.71,46.2Zm.19,1.93a3.06,3.06,0,0,0,.91.64c0,.34.26,1,.08,1.13A5,5,0,0,0,8,49.32C8,48.94,7.77,48.48,7.9,48.13Zm1.2,2.46a9.21,9.21,0,0,1,.22,1.77c-.35-.26-.72-.49-1.07-.74C8.17,51,8.12,50.34,8,49.75,8.31,50,8.9,50.13,9.1,50.59Zm-.73,8.2a7.43,7.43,0,0,1-.28-1.6c0-.1.06.18.07.21A3.75,3.75,0,0,1,8.37,58.79Zm.08.48c.91,3.32,2,6.92,3.12,10-.22.07-.29.26-.46.36A66.13,66.13,0,0,1,8.45,59.27Zm3.26,12.08c-.18-.55-.5-1.35,0-1.68.11.42.27.77.4,1.16a.44.44,0,0,0-.32.08A.29.29,0,0,1,11.71,71.35Zm.4,1.1c.07-.37,0-.86.31-1,0,.27.17.42.21.69C12.3,71.93,12.37,72.4,12.11,72.45ZM12.7,74a2.24,2.24,0,0,1-.21-.69.63.63,0,0,1,.4.24C12.77,73.63,12.84,73.9,12.7,74Zm-.07,6.8c.51.72,1,1.41,1.5,2.17-.21,0-.28-.11-.49-.07-.42-.76-.93-1.41-1.39-2.12C12.43,80.7,12.46,80.82,12.63,80.78Zm-1-.09a13.76,13.76,0,0,1,1.32,2c-.88-.32-1.14-1.35-1.75-2C11.36,80.62,11.4,80.74,11.6,80.69Zm-1.14,0c.37.55.81,1,1.19,1.54-1.08,0-1.16-1.06-1.78-1.55A2.28,2.28,0,0,1,10.46,80.66Zm-.29,1.26c-.89,0-.94-.88-1.43-1.3C9.58,80.64,9.71,81.47,10.17,81.92ZM9,81.79C8,82,7.85,81.13,7.44,80.6,8.47,80.42,8.55,81.33,9,81.79Zm-2.3-1.25c.2.38.83.86.78,1.14a2,2,0,0,0-.7,0c-.24-.36-.5-.7-.72-1.08Zm-1.07.08c.19.4.49.66.67,1.08-1.66.31-4,0-4.79,1.09C.74,80.32,3.76,80.76,5.66,80.62Zm12,6.83a14.19,14.19,0,0,0-2.86-1.58,15.87,15.87,0,0,0-3-1.26,24.08,24.08,0,0,0-6.56-.41,26.54,26.54,0,0,1-3,.27c-.12-.66,0-1.11.45-1.28a14.17,14.17,0,0,1,2.15-.09c4.73.46,8.91,1.22,12.25,3.15C17.27,86.66,17.82,87.15,17.68,87.45ZM17.83,85c.1,0,.33.05.26-.12-.12-.41-.47-.54-.8-.71a1.69,1.69,0,0,1,.27-.72c.89,1.74,2,3.52,2.79,5.21A17.45,17.45,0,0,1,17.83,85Zm9.49,7c0,.09,0,.18,0,.26-.35,0-.52.12-.86.12a1.17,1.17,0,0,1,1-.77,3.45,3.45,0,0,0,.76-3c0,.1.09.31,0,.33,0-.2,0-.42-.24-.36-.24.48-.22,1.18-.65,1.5a.56.56,0,0,0-1.09-.14c-.09.42.32.82.19,1.23a5.56,5.56,0,0,1-.88.44,16.05,16.05,0,0,1-5.28-5.31c0-.26-.27-.62-.42-.56.06.21.37.43.26.63-.34-.67-.73-1.29-1-2,1.09.54,2.08,1.2,3.19,1.72a3,3,0,0,0,1.68,2.48,2.28,2.28,0,0,0,2.22-.8,2.48,2.48,0,0,0,.14-1.85c.84.09.3,1.73.58,2.17.48-.25.37-1,.37-1.69,1.09.16,1.59,1.3,2.23,1.79a3.18,3.18,0,0,1-.5-1,3.12,3.12,0,0,0,.77.32c.37,2.27-.81,3.19-1.58,4.48C27.77,92.05,27.63,91.9,27.32,91.92Zm57,18.31a.09.09,0,0,0-.11,0c-4.71-1.32-9.37-2.84-14.1-4.15s-9.29-3-14-4.33c-2.36-.68-4.69-1.39-7-2s-4.47-1.73-6.75-2.45-4.54-1.59-6.8-2.4c-2-.7-4-1.39-5.92-2.12-.21-.09-.59-.13-.68-.39a5.6,5.6,0,0,1,1.83.63c.64.25,1.31.42,2,.62,1.28.38,2.5,1,3.81,1.36a81.52,81.52,0,0,1,7.89,2.42c1.27.48,2.46,1,3.76,1.42,4.07,1.18,8.14,2,11.91,3.55a6.71,6.71,0,0,1,2.49,1c1.78.38,3.44,1.27,5.25,1.8s3.6,1.21,5.46,1.73c3.72,1,7.49,2,11,3.34C84.32,110.18,84.41,110.2,84.33,110.23Zm-.15-2.15a.53.53,0,0,0,.34.14c0,.44.71,1.64-.08,1.19C84.39,109,84.08,108.5,84.18,108.08Zm.41,2.08c.24.06.54,0,.62.28C85,110.34,84.66,110.41,84.59,110.16Zm.37-1.7a4.68,4.68,0,0,1,.72.27c0,.43.37,1,.19,1.18-.15-.13-.41-.14-.61-.23A10.88,10.88,0,0,0,85,108.46Zm.46,2a1,1,0,0,1,.55.17C85.79,110.54,85.51,110.59,85.42,110.43Zm1-.4c0-.4-.21-.68-.24-1.11a3.91,3.91,0,0,1,.61.17c.07.44.25.76.35,1.16A1.61,1.61,0,0,1,86.42,110Zm-.23-2.62c1-3.47,2.2-6.73,3.29-10.11a9.33,9.33,0,0,0,1.1.3c-1.24,3.26-2.18,6.79-3.29,10.16C87,107.62,86.53,107.55,86.19,107.41ZM88,110.57c-.08-.08-.24-.07-.33-.14a9,9,0,0,1-.29-1.11C87.87,109.36,88.05,110.33,88,110.57Zm.66.12a6.88,6.88,0,0,1-.35-1.11,1.78,1.78,0,0,1,.55.18c.06.4.22.68.29,1.06A1.18,1.18,0,0,1,88.68,110.69Zm1.87.52a5.48,5.48,0,0,0-.72-.22c-.09-.32-.38-.72-.29-1.06a6.22,6.22,0,0,0,.89.31C90.39,110.58,90.79,111,90.55,111.21Zm.72.22c0-.35-.32-.73-.24-1a2.53,2.53,0,0,0,.72.22,3,3,0,0,0,.18,1C91.65,111.61,91.53,111.43,91.27,111.43Zm2,.67c-.19-.15-.52-.14-.72-.28a5.37,5.37,0,0,1-.23-.9,3.58,3.58,0,0,1,.78.27C93.07,111.6,93.43,111.82,93.31,112.1Zm.66.17a8.13,8.13,0,0,0-.39-.9c1.44.47,3.06,1.11,4.48,1.59.15.05.49,0,.45.24C97,112.93,95.53,112.52,94,112.27ZM92,109.38c1.07-3.45,2.25-6.8,3.35-10.22,2.34.82,4.52,1.85,6.87,2.66-1,3.45-2.17,6.79-3.29,10.16C96.66,111.1,94.23,110.38,92,109.38ZM103,112.89c-.39.15-1.29-.39-1.64-.27.74-3.06,2-5.7,2.46-9a86.84,86.84,0,0,0-2.85,8.83,4.28,4.28,0,0,1-1.59-.43c1.12-3.34,2.32-6.6,3.24-10.1a12.84,12.84,0,0,1,3,1.14c-.61,2.16-1.28,5-1.92,7.42C103.6,111,103.35,112.75,103,112.89Zm.79-.22c.85-3.12,1.53-6.37,2.49-9.4.09.11.27.12.39.19-.25,1.46-.75,2.93-1.1,4.45s-.73,3.06-1,4.6A2,2,0,0,1,103.76,112.67Zm1.17-.29c.68-2.9,1.42-5.74,2.16-8.57.82.17.23,1.14.12,1.61-.4,1.69-.8,3.27-1.07,5,0,.3-.26.77.07,1,.7-2.23,1.06-4.76,1.79-7,.58.31.18,1.08,0,1.56-.45,1.7-1,3.53-1.31,5.22A3.3,3.3,0,0,1,104.93,112.38Zm2.36-1.79c.5-1.86,1-3.74,1.56-5.55.39.19.21.63.12,1s-.19.75-.3,1.1c-.22.73-.68,1.52-.44,2.19.73-1,.83-2.47,1.37-3.6.1.09.16.23.29.3C110,108.23,108.52,109.38,107.29,110.59Z"/><path class="cls-1" d="M13.72,44.88a1.62,1.62,0,0,0-.3-1.33,1.11,1.11,0,0,0-.7,0,1.65,1.65,0,0,0-.24,1.21A.67.67,0,0,0,13.72,44.88Z"/><path class="cls-1" d="M17.71,44.06c0-.44-.6-.59-1-.53a.91.91,0,0,1-.15.23C16.55,44.55,17.73,44.8,17.71,44.06Z"/><path class="cls-1" d="M15,42.63a.68.68,0,0,0,.93-.6C15.83,40.71,13.65,42.21,15,42.63Z"/><path class="cls-1" d="M24.86,12.11a38.89,38.89,0,0,0-1.6-8.31c-.12-.38-.17-.8-.29-1.06-.31-.64-1.16-1.09-1.84-1.6C20.18.42,18.88-.57,17.52.41a6,6,0,0,0-1.7.34c-.47.18-.8.67-1.21.46.05.49-.47.53-1,.77C11.75,2.84,11,4.89,10,6.82c-.64,1.26-1.1,2.66-1.61,3.94a87,87,0,0,0-2.72,8.33,49.89,49.89,0,0,0-1.4,9.49A66.6,66.6,0,0,0,4,35.69H7.12c0-2.22,0-4.34,0-6.28.92.2.73,1.09.7,2.32s-.05,2.52,0,4h.83c0-1.7,0-3.34.09-4.94C10.87,32.34,13,34,15.25,35.69h.93c-.9-.67-1.79-1.35-2.63-2,.83-.29.24-1.34-.37-1.43-.31.15-.41.48-.54.79-.81-.65-2-1.51-2.91-2.23-.25-.19-.83-.55-.92-.8s0-.71,0-1.08c.59.29,1.28,1,1.93,1.38a.64.64,0,0,0,1,.74c1.84,1.37,4,3,6,4.5l.25.16H19c-2.36-1.76-4.7-3.53-7.13-5.2a1.4,1.4,0,0,0-.3-.47c-.64-.11-1-.53-1.58-1-.4-.3-1-.54-1.14-.89s.13-.71.09-1.09c3,2.1,6.38,4.85,9.55,7.11.64.46,1.4.74,1.43,1.51h1.64a.74.74,0,0,1,0-.32,1,1,0,0,0,.26.32h.74a5,5,0,0,0-1-.85c.05-.19,0-.5.12-.6.24.54,1.35.72,1.06,1.45h2.18c-.14-1.32-.26-2.63-.33-3.92a72,72,0,0,1,.47-9.64A77.49,77.49,0,0,0,24.86,12.11Zm-7-1.74a15.49,15.49,0,0,0,2.48,1.56,19.77,19.77,0,0,1,0,3.08,28.92,28.92,0,0,0-3.26-2.69A1.65,1.65,0,0,0,17.88,10.37Zm2.42,1.4c-.82-.7-1.71-1.32-2.47-2.1C17.47,8.74,17,8,15.77,8c-.55-.59-1.2-1.09-1.73-1.71.14-.29.45-.42.54-.74C15.86,6.6,17.37,8,18.82,9.07c.34.26,1.35.83,1.48,1.14A3.42,3.42,0,0,1,20.3,11.77Zm-3.92-1.19a.94.94,0,0,1-.33.57c-.29-.64-1-1.06-1.15-1.71C15.52,9.68,15.86,10.25,16.38,10.58ZM13.45,9.44c-.29-.36-.74-.55-1-1A9.94,9.94,0,0,1,13.85,6.6c.43.55,1,1,1.44,1.47A2.31,2.31,0,0,0,13.45,9.44Zm2.19-.21c.38,0,.53.25.79.38-.05.21.17.65-.06.7C16.26,9.8,15.83,9.65,15.64,9.23ZM17,10.38c.17.72-.14,1.27-.68,1.18A2.09,2.09,0,0,0,17,10.38Zm1.28-8.07A12.64,12.64,0,0,1,20,7.2s0,.07-.11.06a26.16,26.16,0,0,0-2.84-3.63c1.23-.44.24-1.67-.76-.87a.86.86,0,0,1-.41-.45C16.63,2.17,17.41,2.4,18.25,2.31ZM16.57,3.88a35.47,35.47,0,0,0,2.79,2.83,2.46,2.46,0,0,1,.72,1.14s0,.1,0,.11a34.44,34.44,0,0,1-4.21-3.81C16.09,4.06,16.3,4,16.57,3.88ZM16,5.16c1.06,1,2,1.67,3,2.6.6.53,1.5.89,1.21,1.91C18.48,8.16,16.64,6.78,15,5.17c.07-.1.26-.56.44-.56S15.84,5.05,16,5.16ZM15.4,2.5c.08.24.33.27.36.57-.62.3-1.07.4-1.36-.23A9.78,9.78,0,0,1,15.4,2.5ZM14,3.14a3.72,3.72,0,0,0,.46.51,1.06,1.06,0,0,1-.55.57c-.07-.25-.34-.26-.41-.51C13.77,3.57,13.81,3.27,14,3.14Zm-.79,1c.2.08.29.28.45.4-.09.17-.15.53.1.59-.18.17-.19.47-.45.57-.17-.26-.5-.35-.64-.66A8.93,8.93,0,0,0,13.25,4.16ZM12,6.41c.22-.45.48-.82.62-1.07.16.24.42.37.53.66-.69.46-.76,1.46-1.37,2C11.24,7.62,11.72,7,12,6.41ZM11.24,8a.64.64,0,0,1,.41.46,9.75,9.75,0,0,1-.71,1.45c-.07-.14-.24-.18-.34-.3A13.49,13.49,0,0,1,11.24,8Zm1.07,3.71c1.55,1.48,3.34,2.7,5,4a.84.84,0,0,0-.93.61c-.3-.31-.73-.44-1-.8.12-1.09-.78-1.82-1.59-1.13a34.38,34.38,0,0,1-3.16-2.75c.2-.31.26-.73.59-.91.45.25.07.74.08,1.19A.52.52,0,0,0,12.31,11.73Zm-2-1.7a.71.71,0,0,1,.45.4c-.24.29-.17.86-.4,1.16-.12-.21-.39-.25-.47-.51A8.84,8.84,0,0,0,10.36,10ZM6.19,29.53c0-.35-.05-.79.09-1A3.15,3.15,0,0,1,6.19,29.53Zm.12-1.42c-.12-.35.09-.82,0-1.29C6.64,27,6.37,27.78,6.31,28.11ZM7,23.16a30.32,30.32,0,0,0-.43,3.26s-.06,0-.05.06,0,.07,0,.06C6.35,22,7.67,18.19,8.72,14.46c.68.17.26.87.14,1.23A43.37,43.37,0,0,0,7.53,20C7.3,21,7.22,22.08,7,23.16Zm.85,6.2a2.61,2.61,0,0,0-.68-.55c-.07-.47,0-.78,0-1.24.28,0,.6.43.85.64C8,28.6,8.08,29.13,7.85,29.36Zm.27-3.26c-.12-.11-.43-.32-.61-.17.77.06.68,1.09.44,1.69-.19-.28-.58-.34-.74-.65.1-.81.19-1.64.31-2.44a2.71,2.71,0,0,1,.75.64C8.16,25.43,8.24,25.86,8.12,26.1Zm.11-1.46c-.72-.29-.64-1-.5-1.86C8.5,22.84,8.59,23.89,8.23,24.64Zm.26-1.8a4,4,0,0,1-.7-.6c.22-2.66,1.15-4.7,1.74-7,.2-.05.49.28.62.5-.14.3-.14.79-.42.83.27.28-.11.68-.09,1-.06.13-.22-.1-.27.07s.19.09.18.26C9.09,19.46,8.84,21.2,8.49,22.84Zm1.73-7.73c-.11-.24-.45-.22-.52-.5a6.71,6.71,0,0,0,.25-1,1.57,1.57,0,0,1,.69.66C10.45,14.47,10.54,15,10.22,15.11Zm3,4.32a2.27,2.27,0,0,0-.2.93c-.94-.8-2-1.48-2.86-2.33a7.32,7.32,0,0,0,.15-.88C11.39,17.85,12.26,18.72,13.27,19.43Zm6.49,15.15c-1.62-1.34-3.22-2.38-5.46-4-1.24-.93-2.62-2-4-3-.81-.57-1.72-.75-1.26-1.8q1.81,1.45,3.66,2.88c-.2.59.41,1,1,.74.51.43,1.05.84,1.59,1.24,0,.64.41.85.91.69.94.81,2,1.48,3,2.23.31.23.81.51.77,1C19.89,34.55,19.79,34.61,19.76,34.58Zm.09-1.14c-.49-.36-1.07-.85-1.71-1.33a10.21,10.21,0,0,1-1.66-1.24c-.2-.28-.07-.46-.36-.62s-.35,0-.55-.07C15,30,14.63,29.24,14,29a1.21,1.21,0,0,0-.49-.94c-.2,0-.18.25-.47.19-1.3-1-2.69-2-4-3.07A5.49,5.49,0,0,0,9.21,24c3.11,2.21,6.33,5,9.37,7.5C19.22,32,20.25,32.45,19.85,33.44ZM20,29c0,.56,0,1.06,0,1.62-2.32-1.83-4.57-3.91-6.87-5.73a19.17,19.17,0,0,0-2.38-1.73c2.56,2.35,5.41,4.72,8.09,7.06.59.51,1.32.77,1.2,1.7a21.82,21.82,0,0,1-2.58-2.1C15.27,28,13,26.25,10.65,24.52c-.36-.27-1.23-.82-1.32-1.09a5.23,5.23,0,0,1,.13-1.31c.18-1.33.45-2.5.67-3.66,1.86,1.27,3.6,3.17,5.74,4.3-.41-.65-1.11-1-1.61-1.51.35,0,.47-.23.5-.52A13,13,0,0,0,17,22.09a18.78,18.78,0,0,0-2.18-1.9,2.61,2.61,0,0,0-.16-.74,1,1,0,0,0-1-.15c-1.05-.87-2.12-1.7-3.2-2.53.11-.18.07-.48.17-.66,1.66,1.17,3.41,2.73,5.19,4,0,.56.55.45.9.58.57.22,1.07,1,1.73.91-.16-.61-1.2-.8-1.38-1.31s.14-1.11-.51-1.15c-.23,0-.46.38-.68.37,0,0-.35-.32-.46-.4-.59-.45-1-.74-1.53-1.13a2,2,0,0,0,.38-.79c1.86,1.38,3.55,3,5.82,3.87,0,1.11,0,2.16-.05,3.24-.49-.19-1-.9-1.59-1.13.41,1,1.94.95,1.58,2.48-.35-.23-.68-.57-1-.85s-.71-.63-1.12-.62c.54.89,1.5,1.29,2.19,2a2.06,2.06,0,0,1-.05,1,5.26,5.26,0,0,0-1-1c-.35-.28-.69-.73-1.13-.73a2.79,2.79,0,0,0,1,1.07c.29.23,1.08.56,1.19.89A5.63,5.63,0,0,1,20,29ZM10.72,15.4c.15-.28.08-.75.26-1,.76.71,1.56,1.38,2.35,2.05-.33.08-.28.49-.49.68C12.18,16.52,11.37,16.05,10.72,15.4ZM20.07,21c-3-2.38-6.34-4.43-9.07-7.14,0-.21.17-.56.05-.71a5.48,5.48,0,0,1-.22.61,2.19,2.19,0,0,1-.75-.6c-.08-.29.2-.53,0-.75a.87.87,0,0,1-.43.83c.06.37-.26.77-.35,1.16-.21,0-.23-.21-.45-.18.21-1,.63-1.77.89-2.71,1.31,1.16,2.56,2.36,4,3.4,0,.89.59,1.4,1.37,1a7.5,7.5,0,0,0,1.3.93c.16.8.78,1,1.59,1.08a5.16,5.16,0,0,0,2.17,1c-.48-.59-1.29-.8-1.82-1.34.25-.17.11-.82,0-1.13a13.57,13.57,0,0,1,1.92,1.22C20.27,18.81,20.17,19.89,20.07,21Zm.27-4a65.36,65.36,0,0,1-8-5.87.59.59,0,0,0-.2-.53c-.26,0-.59,0-.72-.22A10.07,10.07,0,0,1,12.17,9c.46.43,1.08.62,1.27,1.15a5.19,5.19,0,0,1,.06.86,2,2,0,0,0,1.57,1.72c.56.08.84-.25,1.45-.15.42.07,1.27.92,1.82,1.28a20.73,20.73,0,0,0,2,1.16c.09,0,.08.05.12.15C20.63,15.71,20.18,16.54,20.34,17Zm3.43-2.61a23.9,23.9,0,0,0-2.08-2.07c.08-.21-.06-.62,0-.81.22.5.73.67.84,1.29.58.17.78.77,1.21,1.11C23.77,14.05,23.89,14.33,23.77,14.39Zm-.1-1.45c-.25-.46-1-.64-.74-1.35C23.11,12.08,23.82,12.27,23.67,12.94Zm-.08-1.18c-.1-.22-.53-.65-.48-.67C23.28,11.27,23.74,11.41,23.59,11.76Zm-.12-1c-.32-.39-.86-.73-.59-1.47A1.39,1.39,0,0,1,23.47,10.8Zm-.35-2c-.53-.57-.55-1.94-.64-2.92A15.72,15.72,0,0,1,23.12,8.77Zm-.67,3c-.16-.29-.54-.34-.74-.59a8.19,8.19,0,0,0,0-1.3c.27,0,.05.28.19.48A1.45,1.45,0,0,1,22.45,11.73Zm-.26-2.3A1.41,1.41,0,0,1,21.71,8,1.59,1.59,0,0,1,22.19,9.43Zm-.51-2.66c.06.2.38.41.21.68C21.81,7.27,21.5,7.06,21.68,6.77Zm0,8.68c.23.46,1.09.78.69,1.41C22.11,16.42,21.3,16.14,21.68,15.45Zm0-1.13c.27.48.75.73,1,1.23-.09,0,0,.15-.1.16C22.39,15.21,21.49,15,21.71,14.32Zm-.2,2.5c.29.25,1,.7.62,1.19-.15-.29-.45-.41-.64-.65A1.6,1.6,0,0,0,21.51,16.82Zm0,1.29c.19.28.85.63.45,1.05C21.74,18.9,21.28,18.64,21.49,18.11ZM22.78,33c-.29-.34-1-.53-.93-1.07C22.06,32.1,22.82,32.49,22.78,33Zm-1-12.39c-.2-.14-.4-.71-.18-1C21.84,19.75,22.06,20.33,21.77,20.58Zm-.3,3.47c0-.14-.14-.46.07-.44A.75.75,0,0,1,21.47,24.05Zm.08-1.14c0-.23-.14-.63.06-.7C21.69,22.39,21.73,22.8,21.55,22.91Zm0-1.78c0,.2.24.14.19.42C21.59,21.59,21.47,21.25,21.59,21.13Zm1.13,13.36c-.34-.49-1.36-.75-.92-1.61a2.12,2.12,0,0,0,1,.68C22.82,33.9,22.93,34.33,22.72,34.49Zm.11-2.38c-.23-.42-1.1-.7-.84-1.29C22.17,31.31,23.13,31.43,22.83,32.11Zm0-1c-.29-.46-1-.56-.9-1.29C22.27,30.17,23.12,30.44,22.87,31.08Zm0-1c-.34-.65-1.08-.93-.79-2A1.59,1.59,0,0,1,22.91,30.1Zm.15-1.73c-.23-.48-1-.79-.75-1.46C22.48,27.44,23.37,27.66,23.06,28.37Zm.07-1.25c-.22-.47-.75-.6-.79-1.3C22.69,26.11,23.45,26.45,23.13,27.12Zm0-1.24c-.21-.44-.74-.5-.73-1.19C22.71,25,23.43,25.35,23.16,25.88Zm.08-1.14c-.17-.45-1-.73-.58-1.31C22.9,23.81,23.66,24.13,23.24,24.74Zm.13-1.25c-.18-.39-.51-.62-.71-1C22.89,22.6,23.62,23,23.37,23.49Zm0-1.09c-.25-.45-.89-.73-.53-1.41.2.27.55.38.7.7C23.45,21.87,23.62,22.31,23.4,22.4ZM23.58,21c-.17-.46-.77-.61-.63-1.25.31,0,.43.54.73.38A2.57,2.57,0,0,1,23.58,21Zm.1-.92c0-.73-.65-.73-.65-1.47.27,0,.57.39.8.59A2.94,2.94,0,0,1,23.68,20.07Zm.11-1.52c-.13-.49-.93-.76-.59-1.42a1.59,1.59,0,0,0,.63.55C23.85,18,23.92,18.36,23.79,18.55ZM23.85,17c-.22-.37-.67-.47-.72-1C23.33,16.12,24.06,16.44,23.85,17Zm0-1a9.1,9.1,0,0,0-.76-.87c-.09-.3.13-.61-.11-.74h-.11c0,.17.09.42-.07.44-.39-.59-1.47-.94-1-2a18.52,18.52,0,0,0,2.1,2.39A1.68,1.68,0,0,1,23.83,16Z"/><path class="cls-1" d="M10.69,33.7c0-.71-.19-1.28-.68-1.31C8.43,32.3,9.76,35.23,10.69,33.7Z"/></g></g></svg>