<svg xmlns="http://www.w3.org/2000/svg" viewBox="0 0 87.76 161.34"><defs><style>.cls-1{fill-rule:evenodd;}</style></defs><g id="Capa_2" data-name="Capa 2"><g id="Layer_1" data-name="Layer 1"><path class="cls-1" d="M27.92,110.5c.13-.14,0-.44,0-.62h0C27.73,110.05,27.93,110.3,27.92,110.5Z"/><path class="cls-1" d="M27.15,111c.18,0,.22-.2.15-.31C27.25,110.77,27.17,110.82,27.15,111Z"/><path class="cls-1" d="M23.89,110.41c.16-.16.29-.35.44-.53h-.69a1.8,1.8,0,0,0-.35.45C23.51,110.39,23.65,110.31,23.89,110.41Z"/><path class="cls-1" d="M26.52,111.87c.05-.05.32-.26.1-.33C26.6,111.63,26.41,111.78,26.52,111.87Z"/><path class="cls-1" d="M22.55,111.08c.35-.06.77,0,1-.32A.78.78,0,0,0,22.55,111.08Z"/><path class="cls-1" d="M25.51,113.52c0-.13.06-.24,0-.31C25.43,113.38,25.38,113.41,25.51,113.52Z"/><path class="cls-1" d="M24.91,116.37c.1-.07.29,0,.38-.09-.31-.24-.25-.68-.47-1A2.62,2.62,0,0,0,24.91,116.37Z"/><path class="cls-1" d="M25,116.85a1.56,1.56,0,0,0,.29,1.06c.22-.08.53,0,.71-.14-.13-.3,0-.74-.21-1A2.24,2.24,0,0,1,25,116.85Z"/><path class="cls-1" d="M25.34,118.5c.1.17.06.42.19.57a1,1,0,0,1,.52,0C26.23,118.48,25.75,118.28,25.34,118.5Z"/><path class="cls-1" d="M26.18,119.63c-.21-.07-.33,0-.51,0,0,.24.09.39.06.63.22,0,.48.06.61-.12C26.06,120.09,26.19,119.82,26.18,119.63Z"/><path class="cls-1" d="M25.83,121c.07.07,0,.19.07.28a1.27,1.27,0,0,0,.59-.08C26.48,120.81,26.07,120.81,25.83,121Z"/><path class="cls-1" d="M12.49,134.8l.38.12c.22-.21.36-.55.58-.75-.23-.11-.36,0-.58-.13C12.79,134.38,12.59,134.5,12.49,134.8Z"/><path class="cls-1" d="M11.4,134.68l.45,0c.22-.22.41-.51.63-.73-.21-.09-.35,0-.58-.13A8.29,8.29,0,0,0,11.4,134.68Z"/><path class="cls-1" d="M11,133.77c-.07.39-.29.53-.41.86.46,0,.57-.55.87-.82A.84.84,0,0,0,11,133.77Z"/><path class="cls-1" d="M9.51,134.47c.05.1.21,0,.38.11.22-.26.41-.61.63-.89l-.48-.14C9.87,133.86,9.7,134.19,9.51,134.47Z"/><path class="cls-1" d="M22.73,111.5a1.84,1.84,0,0,1-.86.14C21.9,112.17,22.69,111.64,22.73,111.5Z"/><path class="cls-1" d="M5.87,121.55c.73-2.63,2.35-4,3.68-5.21C8.07,117.47,6.13,118.86,5.87,121.55Z"/><path class="cls-1" d="M4.15,116c-.14.27-.51.48-.53.72C3.75,116.48,4.15,116.32,4.15,116Z"/><path class="cls-1" d="M3.42,116.9c-.2.27-.58.58-.59.95C3,117.52,3.44,117.05,3.42,116.9Z"/><path class="cls-1" d="M23.07,122.44a13.86,13.86,0,0,0,.35-1.85,7.84,7.84,0,0,0-.36-2.52A6.17,6.17,0,0,0,22,116a3,3,0,0,0-2.16-1c.41.49,1,.64,1.43,1a5.9,5.9,0,0,1,1.06,2.43,10.08,10.08,0,0,0-2-2,8.45,8.45,0,0,0-3.38-2.2c-.38-.1-.8,0-1.16-.1-.62-.12-1.09-.31-1.58-.37-3.4-.42-6.57,1.76-8.42,4.23a7.93,7.93,0,0,0-1.31,4.64,13.71,13.71,0,0,0,.33,2.67,11.78,11.78,0,0,0,2.39,3.8,7.89,7.89,0,0,0,2,2.3c1.42.86,2.75.68,4.13.94.28,0,.53.2.8.24a4.92,4.92,0,0,0,3-.83c.32-.17.68-.2.94-.38A9.59,9.59,0,0,0,19.4,130a18.42,18.42,0,0,0,1.34-1.55,14.16,14.16,0,0,0,2.05-4.2C22.92,123.65,23,123,23.07,122.44ZM5.65,123.79A18,18,0,0,0,6,125.65,2.8,2.8,0,0,1,5.65,123.79Zm15.59.77a11.13,11.13,0,0,1-1.67,3c-.38.48-1,1-1.41,1.43a11.69,11.69,0,0,1-1.39,1.37,8.31,8.31,0,0,1-2.31.85,6.61,6.61,0,0,1-6-2.22c-1.13-1.26-1.42-3.15-1.66-5a6.46,6.46,0,0,1-.16-1.85,7.66,7.66,0,0,1,2.39-4,6.93,6.93,0,0,1,4.8-2.45,9.44,9.44,0,0,1,3.15.13,6.44,6.44,0,0,1,2.23,1.29,6.14,6.14,0,0,1,2.12,2.34A8.84,8.84,0,0,1,21.24,124.56Z"/><path class="cls-1" d="M27.84,113.15s0-.07,0-.1a26.46,26.46,0,0,1,2.05-3.17H26.77a4.11,4.11,0,0,1-.8,1.62c-.07.23-.1-.17-.25,0a12.16,12.16,0,0,0-1.8,3.56c-.42,1.91.52,3.6.78,5.42a12.81,12.81,0,0,1,0,5.81,14.38,14.38,0,0,1-1.66,3.3A31.06,31.06,0,0,1,21,132.13c-1.48,1.71-3.33,2.27-5.36,2.74,0-.24.84-.79.21-1,1.2-.25,2.5-.3,3.24-1.39-.63-.11-1.2.38-1.82.58a5.51,5.51,0,0,0-1.83.63c-.1.16.16.12.25.18A2.93,2.93,0,0,0,15,135a2.87,2.87,0,0,1-.78,0c.08-.23.24-.34.29-.63-.46-.06-.48.72-1,.57a9,9,0,0,0,.51-1c-.2-.25-.25,0-.54-.06-.46-.1-.91-.43-1.33-.56-.87-.26-2-.45-3-.8a8.54,8.54,0,0,1-5.4-5.23,12.72,12.72,0,0,1-.62-3.73,13.3,13.3,0,0,1,.47-4.28c.61-2.18,1.86-3.21,3.19-4.43a1.37,1.37,0,0,0-1,.33,7.87,7.87,0,0,0-1.12,1,25.48,25.48,0,0,0-2.77,4.4c.32-2.07,2.17-3.28,2.69-5a15.54,15.54,0,0,1,2.48-1.92c.08,0,.22,0,.35,0,.79-1.06,2-1.31,3.26-1.78a11.52,11.52,0,0,1,5.61-.56l1.6.17a6.65,6.65,0,0,1,3.11.74c-.13.85.82.91,1.42.74a7.48,7.48,0,0,0,2-2.11,6.17,6.17,0,0,0,.64-1H21.77a1.85,1.85,0,0,1-1.55.75c-.48-.08-.87-.22-1.36-.26-1.47-.12-2.9-.45-4.28-.47a15.29,15.29,0,0,0-9.11,2.95,16.77,16.77,0,0,0-3.54,3.39C.78,117.66.29,120.17.11,121.91A10.48,10.48,0,0,0,.56,127a7.73,7.73,0,0,0,.58,1c.2.35.26.75.43,1.11a5.42,5.42,0,0,0,.74,1,10.52,10.52,0,0,1,.62,1,12.79,12.79,0,0,0,1.54,1.85c.59.61,1.12,1.33,1.67,1.79A11.28,11.28,0,0,0,8.54,136,14,14,0,0,0,14,137.31a15.12,15.12,0,0,0,2.49-.06,18.34,18.34,0,0,0,4.19-1.62,11,11,0,0,0,2-.92,10.08,10.08,0,0,0,1.68-1.65,10.87,10.87,0,0,0,2.74-4.31c1.23-4.07.67-7.12.41-10.36A10.51,10.51,0,0,1,27.84,113.15ZM2.77,119.89c-.1,1.26-.8,2.07-1.21,3.18C1.28,121.93,2.35,120.87,2.77,119.89Zm-.38,2.3A3.9,3.9,0,0,1,1.63,125C1.28,124.17,1.92,123.08,2.39,122.19Zm0,2.07c.34.7-.33,1.53-.6,2.33C1.45,125.88,2.08,125,2.43,124.26Zm-.29,3.15c-.25-.38.36-.93.43-1.42C2.78,126.37,2.22,126.88,2.14,127.41Zm.43.12c-.07-.22.15-.54.23-.75a1.44,1.44,0,0,1,.15.51C2.74,127.22,2.64,127.35,2.57,127.53Zm.35,1c-.19-.23.06-.69.11-1,.2.23.19.56.38.79A.5.5,0,0,0,2.92,128.57Zm.6.9a.91.91,0,0,1-.27-.45,1.94,1.94,0,0,0,.18-.61c.21.27.3.6.51.88C3.79,129.33,3.58,129.26,3.52,129.47Zm.52.82c-.37-.14-.08-.62,0-.88.18.2.28.45.47.65C4.32,130.13,4.14,130.12,4,130.29Zm.57.69c-.15-.07-.25-.16-.15-.36l.42.13C4.78,130.82,4.74,131,4.61,131Zm.92.84c-.18-.1-.28-.24-.46-.34,0-.2.13-.26.18-.41.17.16.33.32.52.47C5.7,131.64,5.59,131.68,5.53,131.82Zm.9.79c-.22-.11-.28-.3-.5-.41.08-.09.12-.27.21-.35a4.18,4.18,0,0,0,.65.4C6.69,132.42,6.52,132.45,6.43,132.61Zm.44.39a3.89,3.89,0,0,0,.27-.54c.19.06.27.17.5.21-.1.27-.33.32-.43.58A1.5,1.5,0,0,1,6.87,133Zm1.19.82a3.75,3.75,0,0,1-.44-.24,6.8,6.8,0,0,0,.32-.72,2.49,2.49,0,0,1,.7.26A5.67,5.67,0,0,0,8.06,133.82Zm.9.43c-.21,0-.22-.15-.41-.18a6.1,6.1,0,0,0,.41-.85l.66.2C9.42,133.73,9.16,133.92,9,134.25Zm6.8,1.64c1.53-.57,3-.76,4.29-1.62a11.2,11.2,0,0,0,2-2,20.9,20.9,0,0,0,1.86-2.42c.18.1.36.2.52.31A11.67,11.67,0,0,1,15.76,135.89Zm9-6.3a2.46,2.46,0,0,1-.54-.26c.14-.47.41-.72.56-1.17.18.14.3.31.48.45C25.18,129,25,129.22,24.81,129.59Zm.33-2c0-.16.1-.16.13-.27a.76.76,0,0,1,0,.37C25.23,127.72,25.23,127.66,25.14,127.64Zm.84-5.81c.22,0,.36,0,.6,0,0,.18.1.27,0,.47a.75.75,0,0,0-.58.07A1,1,0,0,1,26,121.83Zm0,5c-.22,0-.15-.21-.28-.29C25.8,126.49,26.14,126.63,26,126.82Zm.34-1c-.17,0-.16-.13-.31-.15,0-.1.05-.19.08-.28s.12.15.26.18C26.3,125.72,26.41,125.74,26.35,125.85Zm.22-1.07a2.28,2.28,0,0,0-.53-.11,2.53,2.53,0,0,0,.08-.59,2.86,2.86,0,0,0,.52.31A1,1,0,0,1,26.57,124.78Zm-.5-1.23c0-.24-.06-.44-.05-.68a3,3,0,0,0,.64.25,2.33,2.33,0,0,1,0,.46C26.4,123.45,26.26,123.55,26.07,123.55Z"/><path class="cls-1" d="M21.78,129.91a1.18,1.18,0,0,0-.05-.84C20.69,128.6,21.11,130.48,21.78,129.91Z"/><path class="cls-1" d="M23.69,126.48c1.08-.74-.46-2.31-.74-.58A.78.78,0,0,0,23.69,126.48Z"/><path class="cls-1" d="M24.19,122.62c-.54-.67-.92.57-.2.51C24.14,123.08,24.21,122.79,24.19,122.62Z"/><path class="cls-1" d="M22.48,128.63c.82.26,1.06-1.41-.11-1.16A.69.69,0,0,0,22.48,128.63Z"/><path class="cls-1" d="M15.29,112.84a2,2,0,0,0,.58.12c.87.06,2.4,0,1.92-.75a6.8,6.8,0,0,0-3.24,0C14.91,112.3,15.07,112.72,15.29,112.84Z"/><path class="cls-1" d="M76.61,157.56a.64.64,0,0,0-.37,1.22C76.91,159,77.75,157.75,76.61,157.56Z"/><path class="cls-1" d="M66,127.32c1.3.79,1.83,2,3.11,2.78.29-.61-.4-1.18-.91-1.71S66.56,126.66,66,127.32Z"/><path class="cls-1" d="M74.42,157.3c-.2.6.62,1.11.86.57A.54.54,0,0,0,74.42,157.3Z"/><path class="cls-1" d="M70.26,147.82a3.1,3.1,0,0,0-.13-.76A1.33,1.33,0,0,0,70.26,147.82Z"/><path class="cls-1" d="M69.35,142.67c-.12.32-.11.58.21.68,0,0,0,0,.1,0a.71.71,0,0,0,.14-.63A.36.36,0,0,0,69.35,142.67Z"/><path class="cls-1" d="M68.56,145.61c1,.66,1.07-1.1.71-1.48C68.32,143.78,68.47,145.18,68.56,145.61Z"/><path class="cls-1" d="M67.38,146.28c-.37.35-.1,1.29.45,1.06C68.5,146.78,67.84,145.86,67.38,146.28Z"/><path class="cls-1" d="M78,158.23c-.61.08-.47,1,0,1.14C78.9,159.63,78.79,158.13,78,158.23Z"/><path class="cls-1" d="M78.3,156.22A14.07,14.07,0,0,1,76.2,154a38.82,38.82,0,0,1-2.55-3.65A5,5,0,0,1,73,149a19.11,19.11,0,0,1-.15-2.57,8.61,8.61,0,0,1,.12-2.58c.17-.67.45-1.24.61-1.87a17.46,17.46,0,0,0,.17-8.68,12,12,0,0,0-1-2.89,14.18,14.18,0,0,0-1.08-1.35,14.13,14.13,0,0,0-4.13-3.66,22.24,22.24,0,0,0-2.07-.83,6.69,6.69,0,0,1-1.49-1.18,5.41,5.41,0,0,1-2-2.9,25,25,0,0,1-.49-3.64c-.21-2.25-.31-4.63-.39-7H59.7c0,1,0,1.93,0,2.89-.13-1-.21-1.92-.29-2.89h-.86c.05.94.11,1.88.2,2.81-.67.45-1.27,1-1.94,1.47.14-.94,1.23-1.27,1.64-2.18a6.2,6.2,0,0,0-1.68,1.29c-.09-1.12-.16-2.25-.23-3.39h-.89c.06,1.08.13,2.15.2,3.21-.2-1-.34-2.13-.46-3.21H54.1c.11,1.14.22,2.27.31,3.4a22.08,22.08,0,0,1,0,5.08,17.68,17.68,0,0,1-1.28,5.58A9,9,0,0,1,51.32,126a22.06,22.06,0,0,0-1.42,2.14,19,19,0,0,0-1.43,2,19.35,19.35,0,0,0-2.23,8.37A9.12,9.12,0,0,0,47.47,143a11.84,11.84,0,0,0,4.85,5c.4.22.82.39,1.2.62s.65.55,1,.77c1.62,1,3.48,1.13,5.41,1.48s3.71.18,5.46.63a3.65,3.65,0,0,1,1.72,1.29c1.4,1.51,2.3,3.33,3.76,4.73.47.45,1.13.82,1.76,1.31a20.15,20.15,0,0,0,1.64,1.37c1.28.75,3.44,1.46,4.72,1a3.32,3.32,0,0,0,2-1.88C81.29,157.8,79.39,157.06,78.3,156.22Zm-2.57-1c-3.08-1.69-4.34-4.72-4.35-8.2A14.34,14.34,0,0,0,75.73,155.18Zm-3.57-15.36c.16.36-.07.93-.23,1.47,0-1.11.27-2.36.21-3.43.08-.11.13.11.28.09s.33-.57.51-.83C73.09,138,72.49,138.84,72.16,139.82Zm.64-4.48c.36.71-.24,1.47-.6,2.18C71.8,136.71,72.43,136.18,72.8,135.34Zm-.75.44c-.41-.62,0-1.31.34-2.16C73,134.19,72.42,135,72.05,135.78Zm-.19-3.45c.45.46.26,1.11-.1,1.87A1.75,1.75,0,0,1,71.86,132.33Zm-.6.28a4.32,4.32,0,0,1-.36-.67c.1-.31.24-.54.35-.82C71.7,131.46,71.62,132,71.26,132.61ZM60.05,118.74c0-.31.05.35.1.69s.15.68.23,1.1c0,.14-.21-.1-.22,0A11.94,11.94,0,0,1,60.05,118.74Zm.43,2.64c0,.14-.27,0-.34.11a1.8,1.8,0,0,1,0-.74A1.69,1.69,0,0,1,60.48,121.38Zm-2.63-2.49a4,4,0,0,0,1-.79c.17.16.08.46.09.7-.61.48-1.29.82-1.89,1.33C56.77,119.46,57.29,119.29,57.85,118.89Zm.94-1.92c.34.8-1.29,1.34-1.69,1.85C56.89,117.76,58.31,117.66,58.79,117Zm-1.68.62c-.35-.81,1.19-1.29,1.66-1.91.1.16,0,.43.06.63C58.28,116.77,57.66,117.11,57.11,117.59Zm.82-1.86a3.49,3.49,0,0,1-.92.65.81.81,0,0,0,0-.31c.57-.5,1.19-.91,1.76-1.42C59,115.12,58.34,115.42,57.93,115.73Zm.8-2.48c.3,1.19-1.17,1.56-1.79,2.18C56.76,114.23,58.21,114.06,58.73,113.25Zm-8.26,31.2c-.12,0-.08-.12-.22-.12,0-.41.14-.86.18-1.28.12.09.16.21.27.29C50.56,143.75,50.6,144.05,50.47,144.45Zm.62.65c-.39-.24-.19-.81-.05-1.35C51.45,144,51.11,144.63,51.09,145.1Zm.88.83a1.65,1.65,0,0,1-.49-.4,5.18,5.18,0,0,0,.16-1c.23-.05.36.3.53.42A6.92,6.92,0,0,0,52,145.93Zm.68.47c-.11,0-.11-.12-.27-.13,0-.35.09-.7.18-1.08,0,0,.08,0,.08.07C52.8,145.55,52.65,146,52.65,146.4Zm2.66,1.42c-.75-.39-1.44-.81-2.21-1.19,0-.35,0-.68.11-1,.67.41,1.49.75,2.16,1.17A7.71,7.71,0,0,0,55.31,147.82Zm1.16.4-.61-.19a9.58,9.58,0,0,0-.24-1.09,9.05,9.05,0,0,1,1,.55C56.44,147.79,56.55,148,56.47,148.22Zm.62.14a5.14,5.14,0,0,1-.09-.7c.15.17.63.19.74.28s0,.41,0,.62Zm1.18.36c-.07-.21,0-.47-.11-.66a2,2,0,0,1,.75.08c0,.26,0,.48,0,.73C58.69,148.75,58.53,148.83,58.27,148.72Zm1.6.32a1.29,1.29,0,0,0-.44-.08c0-.26,0-.44,0-.71.16,0,.26,0,.44.08C59.8,148.61,59.91,148.78,59.87,149Zm.62.14a1.32,1.32,0,0,1-.1-.85,1.69,1.69,0,0,0,.66,0c.21.2.08.59.14.87A2.14,2.14,0,0,0,60.49,149.18Zm1.56.12c-.14-.07-.19,0-.34-.06a3.69,3.69,0,0,0-.05-.68.79.79,0,0,1,.45,0C62,148.86,62.13,149,62.05,149.3Zm.94.12c-.08,0-.23-.13-.25,0-.18-.18-.07-.52-.07-.79a.41.41,0,0,0,.36,0C63.14,148.82,63,149.14,63,149.42Zm.95.09c-.19-.09-.29,0-.45,0a5.18,5.18,0,0,1,.1-.84l.47.14A2.32,2.32,0,0,0,63.94,149.51Zm1.09.12c-.22-.1-.35,0-.58-.12a3,3,0,0,0,0-.68c.3.12.45,0,.74.12C65.09,149.18,65.07,149.4,65,149.63Zm2.38,1.14c-.38-.46,0-1.32-.08-1.93C67.91,149.18,67.41,150.11,67.41,150.77Zm.84,1c-.7-.4-.21-1.45-.27-2.19.35.19.4.65.49.76A7.78,7.78,0,0,0,68.25,151.74Zm.86,1.23c-.62-.5-.35-1.47-.33-2.31C69.37,151.17,69.3,152,69.11,153Zm.94,1.31a1.84,1.84,0,0,1-.4-2.07A2.68,2.68,0,0,1,70.05,154.28Zm.56.69c-.38-.21-.1-.76-.17-1.13C70.74,154.08,70.64,154.54,70.61,155Zm.5.2c.24.33.36.73.61,1.06A1,1,0,0,1,71.11,155.17Zm7.19,4.44a6.21,6.21,0,0,1-3.56-1c-1.54-1.24-2.47-3.21-3.45-5s-1.85-3.88-3.46-5.05a1.34,1.34,0,0,0-1-.21c.28.4,0,1.09-.07,1.73-.86-.25.24-1.54-.39-1.92-.41.32-.33,1.14-.45,1.66-.11,0-.29-.15-.35,0a.7.7,0,0,1,.37-.86,3.42,3.42,0,0,0-2.17-1.17c-.5-.09-1.09,0-1.68-.05-.82-.12-1.59-.19-2.37-.31a11.23,11.23,0,0,1-2.22-.46c-1.56-.6-2.66-1.7-4.23-2.31-.13-.08,0-.27-.15-.36s-.14.13-.32,0c-2.51-1.94-3.53-5.53-2.64-9.43a16.25,16.25,0,0,1,2-4.08,19.76,19.76,0,0,1-.22,2.24c-.08.28-.29.52-.38.76a9,9,0,0,0-.63,2.58c-.15,3,.3,5.47,2.24,7.21a7.14,7.14,0,0,0,1.53,1.38,5.78,5.78,0,0,0,1.58.38c.94.26,1.68.8,2.49,1a14.27,14.27,0,0,0,2.49.24c.27,0,.58-.24.86-.3a4.51,4.51,0,0,1,.52,0c.32,0,.66-.18,1-.21a6.25,6.25,0,0,0,1-.11A8.58,8.58,0,0,0,68.94,142a12.09,12.09,0,0,0,.89-2.77,9.64,9.64,0,0,0-.24-4.13c-.51-2.48-1.51-4.88-4-6.39-1.33-.81-3.4-1.8-5-1.56,0-.21.16-.58.21-.86.5,0,.94.25,1.41.27s.6-.22.9-.08c-.83-1.26-3.07-1.29-4.37-.86a3.25,3.25,0,0,0-1.72,1.12c.06.14.3-.06.42.13-.26.66-.48,1.4-1.13,1.35a14.44,14.44,0,0,0,.79-1.92c-.82.07-1.09,1.81-1.6,2.39a.82.82,0,0,1-.53.25c.2-.75.67-1.68.76-2.18-.47-.15-.71.44-.87.82a13.16,13.16,0,0,1-.94,2.28,12.67,12.67,0,0,1,.56-2.55c.07-.26-.32-.09-.27-.29s.47-.7.35-1a5.93,5.93,0,0,0-1.38,1.84c-.44.64-.92,1.25-1.32,2-.84,1.55-2,2.76-2.53,4.63a11.14,11.14,0,0,0,.74,8.09l-.17.56c-.09.22-.11-.14-.21-.16-.07.31.34.37.07.79-.48-.38-.08-1.22-.05-1.87l-.1,0c-.23.06-.36.31-.44.64a10.1,10.1,0,0,1-.9-3.66c-.21-2-.53-4,.8-6.39a40.46,40.46,0,0,1,5.06-7.2,2.07,2.07,0,0,0,1-.92c.08.13,0,.35-.06.55.17,0,.15.44.14.71,1-.42,1.16-2.08,1.37-3.33a9.4,9.4,0,0,1,.24-1.63c.14-.29.76-.54,1-.68a6.11,6.11,0,0,0,1-.68c.12.75-.06,1.66,0,2.43-.26.24-.61.33-.78.73.9.54,2-.19,2.9.27A5.39,5.39,0,0,1,62.14,124a3.34,3.34,0,0,0,2.74,1.66c.05-.13-.06-.16-.15-.2,2.27,1,4.48,2.41,5.51,4.23-.12.41-.29.84-.13,1.09.21,0,.23-.45.39-.6s.35.36.46.5c-.24.31-.27,1-.7,1,0,.72.85,1,.63,1.83,0,.16.17.17.22.28a17.51,17.51,0,0,1-.19,7.24c-1.55,6.41-.61,11.61,3.56,14.9,1.4,1.1,3.41,1.54,5.09,2.87C79.89,159.5,78.89,159.57,78.3,159.61ZM52.83,129.34A17.33,17.33,0,0,0,54,127.4c-.56,1.33-.62,3.43-1.55,4.25A10.94,10.94,0,0,0,52.83,129.34Zm.5,3.29a9.75,9.75,0,0,1,2.91-2.51,9.36,9.36,0,0,1,4.54-1.56,4.67,4.67,0,0,1,1.51.1,7,7,0,0,1,4.09,2.78,7.24,7.24,0,0,1,1.94,4.44,19.88,19.88,0,0,1-.18,2.62,7.87,7.87,0,0,1-.16,1.9,7.21,7.21,0,0,1-1,1.51,8.89,8.89,0,0,1-1,1.33,6,6,0,0,1-1.76.91,7.47,7.47,0,0,1-1.92.55c-.4,0-.81-.08-1.26-.07-1.71,0-3,.3-4.72-.72a16.42,16.42,0,0,1-1.65-1.32,5.66,5.66,0,0,1-2.11-3.05,5.31,5.31,0,0,1-.4-1.72c0-.32.11-.65.15-1C52.5,135.33,52.43,134.05,53.33,132.63Zm4.31-4.76c.1-.4.29-.64.38-1.07.09,0,.22,0,.29-.11C58.36,127,58,127.8,57.64,127.87Zm1-.32a8.34,8.34,0,0,0,.37-1.07c.12,0,.28,0,.39-.09C59.41,126.73,59.06,127.6,58.62,127.55Zm.89-.24c.18-.28.3-.68.46-1,.17.09.22-.06.4,0a4.75,4.75,0,0,1-.32.88C59.86,127.23,59.73,127.34,59.51,127.31Z"/><path class="cls-1" d="M51,39.85c0-.13,0-.28,0-.37A.25.25,0,0,0,51,39.85Z"/><path class="cls-1" d="M70.66,46a44.66,44.66,0,0,0-5.48-.53A14.71,14.71,0,0,0,70.66,46Z"/><path class="cls-1" d="M55.14,62.68a8.17,8.17,0,0,0-1.4,1.74c.4,0,.63-.41.86-.66A27.57,27.57,0,0,0,57,61.08l-.14,0C56.25,61.54,55.68,62.11,55.14,62.68Z"/><path class="cls-1" d="M86.8,10.21c-1.2-.44-2.13.46-2.87,1.33A14.3,14.3,0,0,0,82.1,14c-1.08,2-2.35,3.71-3.4,5.29-2.41,3.61-4.88,6.75-7,10.51-1.1,1.91-2.18,3.73-3.36,5.51s-2.38,3.57-3.44,5.43c-.55,1-1,1.92-1.64,2.85a85.74,85.74,0,0,0-4.94,8.52c0-2.74-.15-5.68-.25-8.35a15.14,15.14,0,0,1,0-2.12c0-.24.25-.45.26-.69s-.2-.26-.27-.49a9.38,9.38,0,0,1,0-1.91c-.24-5.87-.55-11.88-.7-17.73-.08-3.28,0-6.74-.31-10.17-.27-3.16-.38-7-.92-10-.61-.06-.67-.42-1.37-.56a6,6,0,0,0-1.85,0c-.24,0-.48.15-.72.19s-.41-.06-.62.18a5.55,5.55,0,0,0-.65,2.32C50,8.14,50,13.48,49.43,18.57c-.3,2.9-.5,5.94-.71,9s-.41,6-.47,8.85c-.14,5.81-.51,11.72-.88,17.66-.32,5.17-.34,10.29-.48,15.32a11,11,0,0,1-.11,2.23,13.24,13.24,0,0,1-1.51,2.63c-1.66,2.63-3.43,5-4.9,7.35-2,3.29-4.2,6.78-6.31,10.16-1.05,1.68-2.06,3.38-3.18,5-2.76,4.14-5.14,8.45-8.22,12-.28.33-.57.71-.89,1h1.88l.07-.09c.24.06.41,0,.65,0l0,0h.77a1.1,1.1,0,0,0,.12-.66,5.38,5.38,0,0,1-1,.1c.13-.77,1.39-.1,1.81-.58-.07-.49-.81-.24-1.17-.35.29-.52,1-.21,1.46-.43.2-.09,0-.32.12-.38,2.08-1.68,3.32-4.29,4.84-6.65C35.83,93.89,40.62,87,45,79.7c0,0,0-.09,0-.14,1,1.11,1.81,2.27,2.67,3.43-3.28,1.57-5.68,5.88-8.18,9.19-1.61,2.12-3,4.22-4.57,6.27-.84,1.06-1.41,2.26-2.15,3.36s-1.54,2.11-2.29,3.15c-1.26,1.75-2.49,3.12-3.73,4.84,0,0,0,0,0,.08h3.13c1.16-1.55,2.39-3,3.45-4.46,3.62-5,7-10.87,10.93-15.4a24.19,24.19,0,0,1,4.76-4.52c.3-.19,1.66-1,1.83-.94a5.29,5.29,0,0,1,.4,1,60,60,0,0,1,1.13,8.31c.29,3.2.82,6.49,1.09,9.63.19,2.11.4,4.23.6,6.33h1.29c-.35-3.09-.48-6.26-.85-9.41C54,96.24,54,92,53.1,87.91a29.69,29.69,0,0,1,1,4.06c0,.15,0-.07,0-.14.88,5.81,1.12,12,1.48,18h.9l-.12-1.9c.43-.64,1.43-.94,1.5-1.76-.68,0-1,.75-1.59,1-.17-1.24,1.26-1.42,1.77-2.29.23,1.61.33,3.27.44,4.94h.86c-.11-1.32-.21-2.64-.36-3.94,0-.12.26.06.38-.08s.12-.38.17-.57c.11,1.49.11,3,.11,4.59H61.1c-.05-1.53-.09-3-.14-4.49,0-1.24-.22-2.5-.24-3.77-.22-9.3-.55-17.52-1.39-26.67a64.73,64.73,0,0,0,3.83-7.37c1.24-2.52,2.67-4.95,3.8-7.48s2.39-5.11,3.63-7.74S72.82,47,74,44.21,76.22,38.67,77.4,36,79.83,30.6,81,28.07s2.41-5.09,3.49-8c.87-2.31,1.69-4.17,2.51-6.23a9.64,9.64,0,0,0,.78-2.23A2.06,2.06,0,0,0,86.8,10.21ZM26.28,107.59c-.31-.14-.49,0-.75-.08.39-.52.73-1.15,1.39-1.17C27,106.69,26.4,107.09,26.28,107.59Zm.38-1.58a1.45,1.45,0,0,1,1.05-.92C27.71,105.48,27.18,106.11,26.66,106Zm1-1.31c0-.42.56-.52.83-.72A.93.93,0,0,1,27.62,104.7Zm.79-1.09c0-.41.48-.43.67-.68A.82.82,0,0,1,28.41,103.61Zm13-19.55c-3,4.59-6.18,9.35-9.16,14-.84,1.3-1.68,2.46-2.5,3.82-.23.39-.37,1-.93,1,2.2-3.53,4.2-7.13,6.49-10.57S40,85.56,42.07,81.9C42.46,82.66,42,83.19,41.42,84.06Zm1.1-1.77c-.12-.23,0-.62-.22-.78.12-.13.17-.37.29-.48C42.63,81.42,42.9,81.92,42.52,82.29Zm.63-1a1.42,1.42,0,0,1,.14-1.5A1.42,1.42,0,0,1,43.15,81.25ZM44,80a1.23,1.23,0,0,1,0-1.37A1.23,1.23,0,0,1,44,80Zm.77-1.36c-.39-.23-.3-.8,0-1.18C44.73,77.8,44.92,78.09,44.72,78.59ZM29.4,107.45c.12.15-.15.19-.19.3C29.12,107.64,29.37,107.55,29.4,107.45Zm-.89,2.3a1.94,1.94,0,0,1-.13-.6c.11,0,.17-.18.24-.29A.78.78,0,0,1,28.51,109.75Zm.71-1c-.26-.27,0-.62.18-.92C29.58,108.06,29.41,108.47,29.22,108.73Zm.75-1.11a.27.27,0,0,1,0-.4c0-.09-.21-.1-.19-.21.1-.3.3-.41.45-.64A1.39,1.39,0,0,1,30,107.62Zm.82-1.34c-.05-.2-.22-.43,0-.56A.83.83,0,0,1,30.79,106.28Zm10-13.61c-2.94,4.54-6.64,8.52-9.66,13-.14-.66.5-1.31.9-1.93a44,44,0,0,1,3.8-5.28c1.93-2.2,3.48-4.66,5.29-6.92,0,0,.07.06.06.12C41.38,92,41,92.39,40.82,92.67Zm.93-1.37c-.11,0,0-.18-.2-.21a8.61,8.61,0,0,1,.54-.76C42.41,90.64,41.88,91,41.75,91.3ZM42.64,90c-.32-.16,0-.57.17-.72a.41.41,0,0,1,.13.24C42.88,89.79,42.74,89.88,42.64,90ZM43.48,89c-.38-.23.06-.58.26-.84s.47-.61.69-.92a.36.36,0,0,1,.2.36C44.22,88,43.86,88.48,43.48,89ZM45,87.06c-.17,0-.11-.21-.23-.27.14-.15.27-.34.41-.5a1.62,1.62,0,0,1,.19.37Zm.74-.75c-.16-.07-.17-.2-.22-.32s.25-.17.32-.37a.47.47,0,0,1,.18.42C46,86.11,45.84,86.16,45.78,86.31Zm.72-.71c-.07-.1-.18-.19-.15-.35a1.4,1.4,0,0,0,.34-.26c.16,0,.1.18.18.26C46.78,85.44,46.62,85.48,46.5,85.6Zm.87-.66a.44.44,0,0,1-.13-.24c.06-.17.22-.13.29-.28.13,0,.07.17.13.25S47.44,84.8,47.37,84.94ZM75.8,25.83c.66-.92,1.18-1.94,1.8-2.89,2.47-3.82,4.73-7.86,7.68-10.94-1.11,1.91-2.64,3.89-3.85,5.93-.16.27-.25.65-.59.75.09.64-.55,1-1,1.19-.05.26.3.12.34.21-.41.65-.71,1.07-1.1,1.77-.08.1-.25,0-.34.1s.1.14.08.23c-1.46,2.26-3.11,4.62-4.64,7a13.53,13.53,0,0,1-1.49,2.37c0,.05-.22.12-.26.18-.17.32.14-.08.17-.05s-.39.73-.46.83c-.22.35-.4.6-.55.81-.47.68-.63,1.38-1.27,1.31C72.14,31.69,73.8,28.61,75.8,25.83ZM59.16,53c.75-1.09,1.56-2.41,2.25-3.53,1-1.6,2.06-3.38,2.85-5a74.86,74.86,0,0,1,4.47-7.12,22.24,22.24,0,0,1,1.57-2.46c0,.08.09.09.18.06a3.39,3.39,0,0,1-.63,1.24c-1.77,2.92-3.55,5.91-5.33,8.77-2,3.28-4.22,6.52-6.13,9.91C58,54,58.66,53.68,59.16,53ZM68.05,40.9c-.07-.18.18-.39.26-.53,1.57.17,3.15.36,4.65.43a2.23,2.23,0,0,1-.28.58A35,35,0,0,0,68.05,40.9Zm4.2,1.58a47,47,0,0,0-5-.44,9.94,9.94,0,0,1,.58-.9c1.54.12,3.17.41,4.68.49C72.66,41.8,72.28,42.18,72.25,42.48ZM62.39,61.64c-.1.23-.22.42-.31.68a15.83,15.83,0,0,0-3.45,0,13.32,13.32,0,0,0,3.19.3,2.15,2.15,0,0,1-.39.81,10.46,10.46,0,0,0-2.77.13,16.21,16.21,0,0,0,2.63.13c-.08.38-.29.54-.37.92a10.86,10.86,0,0,0-2.19.26,5,5,0,0,0,1.94,0c0,.27-.25.59-.36.86a11.08,11.08,0,0,0-1.64.33c0-2-.34-3.77-.32-5.75,1.53.12,3,.16,4.54.29-.13.23-.25.48-.37.71a16.74,16.74,0,0,0-3.72-.09C59.91,61.53,61.2,61.49,62.39,61.64ZM58.52,82.56c.17.27,0,.69.17,1a3.17,3.17,0,0,0-.68.87A2.43,2.43,0,0,1,58.52,82.56Zm-.12-1.31c.28.46-.11.81-.37,1.22C57.75,82.08,58.22,81.6,58.4,81.25Zm.26,3c.25.64-.26,1.11-.56,1.68C57.8,85.4,58.41,84.86,58.66,84.3Zm.06,1.51c.24.63-.22,1-.52,1.54C57.86,86.84,58.47,86.26,58.72,85.81Zm0-19.52c.53,0,.91-.26,1.46-.23-.38.93-.85,1.7-1.22,2.66A15.76,15.76,0,0,1,58.72,66.29Zm-.37-6.23a5.33,5.33,0,0,1,0-1c1.69.17,3.34.26,5,.45.14.16-.24.57-.34.77C61.44,60.14,59.9,60.11,58.35,60.06Zm-.06-1.35c.1-.34,0-.73.09-1,1.88.16,3.77.33,5.72.61a8.52,8.52,0,0,1-.4.8C61.87,59,60.09,58.85,58.29,58.71Zm.08-1.11a1.28,1.28,0,0,1,0-.82l6.24.44a.32.32,0,0,0,.09,0,8.39,8.39,0,0,0-.41.85A39.84,39.84,0,0,0,58.37,57.6ZM57.92,81c-.31-.53.27-1.11.35-1.69C58.4,79.93,58.49,80.57,57.92,81Zm.35-1.84c-.2-.26-.36.09-.45.27-.31-.34.22-.81.4-1.11A2.54,2.54,0,0,1,58.27,79.15Zm-.6-.9A1.43,1.43,0,0,1,58,76.81,1.23,1.23,0,0,1,57.67,78.25Zm0-1.75c-.14-.21.14-.58.25-.79C58.09,76,57.85,76.25,57.68,76.5Zm.12-3.61c.07,1.09.25,1.9-.39,2.81-.23-1.86-.36-3.77-.61-5.63a2.32,2.32,0,0,0,.66-1c-.24-.1-.52.33-.7.61-.16,0-.1-.21-.22-.27a3.13,3.13,0,0,1-.91,1.62A1.47,1.47,0,0,0,55,70.7c.78-.93,1.9-1.61,2.36-2.88-.64.17-1,.83-1.42,1.31s-1,.92-1.36,1.44c-.32.06-.59-.3-.85-.26A44,44,0,0,0,56.81,67a.73.73,0,0,0,.61,0C57.63,68.46,57.69,71,57.8,72.89Zm-1.31-.76a4,4,0,0,0-.65-.91,7.29,7.29,0,0,0,.56-.65A7.89,7.89,0,0,1,56.49,72.13Zm-3.91,4.94a2.64,2.64,0,0,0,.67.15,21,21,0,0,0-2.13,2.64,1.37,1.37,0,0,1-.3-.71C51.43,78.5,52,77.71,52.58,77.07Zm0-3.71c.13.22-.22.19-.25.34C52.22,73.55,52.52,73.49,52.57,73.36Zm-.92.34c0-.6-.07-1.3.4-1.68a3.67,3.67,0,0,1,2.75-.24.75.75,0,0,1,.23.43c-.34-.08-.38-.08-.48-.3-.22,0-.28.21-.44.27s-.2,0-.34-.05A4,4,0,0,0,51.65,73.7Zm-1,1.69c-.3.33-.6.64-.91,1a3.22,3.22,0,0,1-.28-.75c.24-.38.6-.55.81-1-.31-.14-.64.27-.87.51A13.33,13.33,0,0,1,49,71.91a5.47,5.47,0,0,1,0-1.14c.1-.33.63-.69.92-1,.91-1,1.89-2,2.7-3a7.74,7.74,0,0,0,1.18,0,21.64,21.64,0,0,0-4.29,4.66,16,16,0,0,0,2.12-2.08c.83-.87,1.63-1.63,2.44-2.6a2.67,2.67,0,0,1,.93.13,27.32,27.32,0,0,0-3.64,3.72c.39,0,.8-.43,1.14-.73,1-.9,2.16-2,3.17-3,.27,0,.51,0,.78,0-.9,1.19-2.25,2.19-3.25,3.43-.82.33-2,.55-2.43,1.58A5.58,5.58,0,0,0,50.62,75.39Zm-2.21,6c.25.38.66.7.73,1.15C48,81.07,47,79.56,45.78,78.14c0-.19.17-.24.19-.46.06,0,.08,0,.08.08C46.92,78.86,47.6,80.17,48.41,81.35ZM46.33,77a6.59,6.59,0,0,1,1.1,1.62c.35.59.74,1.16,1.07,1.71-.59-.67-1.14-1.6-1.73-2.42C46.59,77.67,46.22,77.4,46.33,77Zm2.05-5.75c.07.8,0,2.44.17,3.5.09.7.38,1.07-.16,1.7a17,17,0,0,1-.28-3.64C48.09,72.2,48,71.64,48.38,71.27Zm0-1.43c.06.41.12,1-.25,1.31A1.37,1.37,0,0,1,48.4,69.84Zm.46,6.46a6.58,6.58,0,0,1,.3.71c-.12.18-.24.35-.36.5A.76.76,0,0,1,48.86,76.3ZM49,68.63c-.06-.63,0-1.31,0-2a12,12,0,0,0,3.22,0A36,36,0,0,0,49,70.17c-.41-1.38,1.11-1.93,1.55-3.08C50,67.3,49.44,68.07,49,68.63Zm0,9.19a.85.85,0,0,0,.3-.32c.24.28.49.75.13,1.12A1.65,1.65,0,0,1,49,77.82ZM53.52,74a2.42,2.42,0,0,1,.32-1.24C54,73,53.57,73.53,53.52,74Zm1-1.33.14,0a30.27,30.27,0,0,1-1.32,3.19C53.84,75,54,73.49,54.54,72.63Zm.6.23a1.08,1.08,0,0,1,.4.53c-.29.77-.58,1.56-.9,2.29-.21,0-.36.16-.6.13A14.89,14.89,0,0,0,55.14,72.86Zm2.27-6.66c-.4-.14-.68,0-1.08-.17.12-.07.12-.26.12-.38a2.51,2.51,0,0,1,1,.19C57.38,66,57.44,66.06,57.41,66.2Zm-.15-1.9a5.64,5.64,0,0,0-1.56.1c.49-.66,1.17-1,1.53-1.85A9.21,9.21,0,0,1,57.26,64.3Zm0-1.89A24.46,24.46,0,0,0,55,64.6l-2.76.29c1.45-1.29,2.82-2.72,4.19-4.17a2.91,2.91,0,0,1,.79-.07C57.29,61.22,57.22,61.85,57.28,62.41Zm-1.91-6.59c.51-.47.81-1.33,1.68-1.14C56.52,55.12,56.21,56,55.37,55.82ZM57,55.69c-.1.05-.26,0-.33.06-.06-.17.24-.3.3-.48C57.08,55.36,57,55.54,57,55.69Zm-1.2-1c0,.36-.67.76-.92,1.16a8.78,8.78,0,0,1-1,0,4.23,4.23,0,0,0,0-.88,1.68,1.68,0,0,1,.93-.19c-.07,0-.1.15-.13.27C54.87,55,55.33,54.67,55.8,54.72Zm.78-1.88c-.48.59-1,1.12-1.84,1A1.63,1.63,0,0,1,56.58,52.84ZM54.93,52a3.32,3.32,0,0,1,.67-1c.11-.05.28,0,.38-.05-.07.35-.49.67-.67,1C55.17,51.94,55,51.91,54.93,52Zm2.06.83a2,2,0,0,1,0,.87,2.25,2.25,0,0,0-.79.06C56.28,53.4,56.77,53.15,57,52.82Zm0-1a3.16,3.16,0,0,1-.62,0c.08,0,.11-.19.15-.31a.19.19,0,0,0-.25.13c.12-.26.37-.88.8-.79A5.22,5.22,0,0,1,57,51.83ZM55.64,50c-.26,0-.47,0-.73,0,.41-.54.77-1.16,1.51-1.09C56.43,49.21,55.86,49.66,55.64,50Zm-1.19-.15c-.07-.17.19-.52-.07-.59a2.49,2.49,0,0,1-.41.65,2,2,0,0,1,0-.76,7.86,7.86,0,0,0,1-.06C55,49.33,54.59,49.56,54.45,49.84ZM54.77,51c.11.32-.44.65-.57,1a.41.41,0,0,0-.31,0A.74.74,0,0,1,54.77,51Zm-.65,2a1,1,0,0,0,.42,0c-.1.31-.32,1-.75,1A1,1,0,0,1,54.12,53Zm.25,7.84-2,1.92a8.15,8.15,0,0,0-1.76,2.08,3.27,3.27,0,0,0,1.19-.87c1.1-1,2.19-2.09,3.27-3.17.18,0,.39,0,.57,0l.1,0c-1.3,1.38-2.65,2.66-3.89,4.17-.64,0-1.14.27-2-.09a40.84,40.84,0,0,1,3.73-4A5.78,5.78,0,0,1,54.37,60.81Zm2.83-1.2c-1,.1-2,.16-3,.27a2.09,2.09,0,0,1-.06-.84c1-.14,2-.08,2.95-.24C57.28,59,57.25,59.29,57.2,59.61Zm-.09-1.93c-1,0-2.06.17-3.13.18a5.8,5.8,0,0,0-.11-.85c1-.21,2.31.08,3.2-.37C57.24,56.9,57.12,57.32,57.11,57.68ZM56.37,50c.13-.23.4-.83.7-1C57.12,49.54,56.94,50.05,56.37,50ZM57,48.1c-.3-.09-.65.07-.81-.19-.56.39-1.47.15-2.16.32-.16-.24,0-.68-.07-.95.91-.25,2.08,0,3-.28A3,3,0,0,1,57,48.1Zm-.05-2c-1,0-1.9.23-2.94.19,0-.29,0-.62,0-.92,1,0,1.91-.07,2.87-.11A1.38,1.38,0,0,1,57,46.08Zm-2.92-2.42c.11-.16.36,0,.5-.11.08.12-.3.6-.51.67A1.77,1.77,0,0,0,54.06,43.66Zm0-1.84c.66,0,1.34,0,2-.12-.06.32-.47.64-.69.92a8.38,8.38,0,0,0-1.25.08A2.12,2.12,0,0,1,54.11,41.82ZM57,44.34a24,24,0,0,1-2.73.2,9.1,9.1,0,0,1,.75-1A15.16,15.16,0,0,1,57,43.45,6.41,6.41,0,0,0,57,44.34Zm-.12-1.79c-.37-.06-.63.07-1,0,.27-.36.5-.79.9-.91C57,41.86,56.88,42.23,56.87,42.55Zm0-1.91c-.9.09-1.81.15-2.73.2,0-.28,0-.52,0-.81.9-.07,1.77-.19,2.69-.22A5.69,5.69,0,0,0,56.83,40.64Zm-.13-1.79c-.83.1-1.73.07-2.53.21a2.38,2.38,0,0,1,0-.93c.86,0,1.65-.12,2.47-.18A1.66,1.66,0,0,1,56.7,38.85Zm0-1.91a21.44,21.44,0,0,1-2.46.33c-.15-.24,0-.63-.07-.94.82-.08,1.64-.16,2.44-.29C56.72,36.28,56.58,36.67,56.66,36.94ZM54.1,35.4a9.78,9.78,0,0,1,0-1.08c.8,0,1.59-.11,2.37-.2a4.87,4.87,0,0,1,.08,1.1C55.68,35.16,55,35.43,54.1,35.4Zm2.4-2.16c-.82.08-1.62.18-2.44.24a2.24,2.24,0,0,1,0-.82c.79-.11,1.6-.16,2.36-.32C56.57,32.57,56.46,33,56.5,33.24Zm-.07-1.66c-.9-.14-1.57.15-2.44.09a3.65,3.65,0,0,0,0-.94c.72-.22,1.62-.11,2.36-.31C56.52,30.72,56.39,31.2,56.43,31.58Zm-.07-2c-.8,0-1.56.11-2.39.1a3.84,3.84,0,0,1,0-.83,11.43,11.43,0,0,0,2.37-.21A2.92,2.92,0,0,1,56.36,29.61Zm0-2a13.49,13.49,0,0,1-2.42.19c0-.37,0-.73,0-1.12a10,10,0,0,0,2.3-.28C56.36,26.8,56.25,27.28,56.34,27.65Zm-.12-2.14c-.75.1-1.49.2-2.28.23a5,5,0,0,0,0-.67c.68-.18,1.47-.15,2.18-.26C56.29,25,56.21,25.26,56.22,25.51Zm-.15-2.41a2.5,2.5,0,0,0,.09.74,14.71,14.71,0,0,1-2.14.28,3.18,3.18,0,0,1,0-.87C54.72,23.22,55.36,23.09,56.07,23.1ZM56,22.2c-.68,0-1.28.12-2,.07.06-.21,0-.33.07-.55a6.22,6.22,0,0,0,1.86-.2A2.12,2.12,0,0,1,56,22.2Zm-1.86-7.09c.54-.11,1.29.15,1.67-.27a3.56,3.56,0,0,1,0,1,8.8,8.8,0,0,1-1.72.1C54.16,15.62,54.07,15.4,54.13,15.11Zm1.69-1a12.17,12.17,0,0,1-1.75.19c0-.34,0-.64,0-1a13.55,13.55,0,0,1,1.71-.2A4,4,0,0,1,55.82,14.08Zm.08,6.55a15.68,15.68,0,0,1-1.84.11c0-.33,0-.64,0-1,.6,0,1.17-.12,1.78-.13A5.29,5.29,0,0,1,55.9,20.63ZM55.84,19a9.18,9.18,0,0,0-1.68.11c-.13-.21,0-.56-.07-.8.53-.15,1.2,0,1.71-.2A1.86,1.86,0,0,1,55.84,19Zm0-1.65c-.6,0-1.12.11-1.72.09.07-.24-.05-.39,0-.65a16.25,16.25,0,0,1,1.73-.1C55.79,16.91,55.92,17.06,55.82,17.32Zm0-5c-.57.06-1.16.08-1.74.14,0-.31,0-.62,0-.94a6.18,6.18,0,0,0,1.74-.14A1.48,1.48,0,0,1,55.79,12.33Zm0-1.84c-.61,0-1.2.11-1.83.11,0-.24,0-.49,0-.73a9.87,9.87,0,0,0,1.75-.19C55.94,9.85,55.79,10.22,55.83,10.49Zm0-1.56a7.38,7.38,0,0,1-1.85.16c0-.34-.06-.65-.06-1A7.75,7.75,0,0,0,55.7,8C55.86,8.27,55.76,8.63,55.79,8.93Zm-.07-1.61a18.44,18.44,0,0,0-1.85.16,1.36,1.36,0,0,1,0-.78,5.43,5.43,0,0,0,1.78-.13C55.83,6.73,55.74,7,55.72,7.32Zm0-1.48a13,13,0,0,1-2,.21,4.08,4.08,0,0,1,0-.93,13.72,13.72,0,0,0,2-.18C55.83,5.17,55.64,5.58,55.75,5.84Zm-.07-1.62c-.47,0-.91.12-1.35.21.29-.59.92-1.18,1.28-1.87A15.15,15.15,0,0,1,55.68,4.22Zm-.1-1.88c-.52.74-1.07,1.39-1.61,2.09a1.37,1.37,0,0,1-.58,0c.64-.92,1.24-1.93,1.89-2.82A1.75,1.75,0,0,1,55.58,2.34Zm-.83-1.17c.15,0,.12.17.3.19-.84,1.32-1.75,2.53-2.63,3.78A28.65,28.65,0,0,1,54.75,1.17Zm-.47-.3a1.63,1.63,0,0,1-.39.76c-.46.7-1,1.57-1.47,2.33C52.27,2.83,53,.72,54.28.87ZM52.13,13.22c.16-1.72.26-3.65.28-5.51a10.61,10.61,0,0,1,0-1.76c.15-.51.68-.83.91-1.32-.09,9.26-1,19-.61,28,.1,0,.07-.16.12-.22.14,4.31-.25,9.22.08,13.64A7.34,7.34,0,0,1,53,47.9c-.09.27-.51.62-.73.91-.72.91-1.41,1.89-2,2.87-.27-1.15.68-2,1.37-3a15.63,15.63,0,0,0,1.28-2.19A24,24,0,0,0,50.26,50c-.18-1.46,1.51-2.85,2-4.42a20.7,20.7,0,0,0-2,2.9c0-3.39.35-7.17.54-10.78a8.38,8.38,0,0,1,0-1.53A16.06,16.06,0,0,1,52.1,34,7.09,7.09,0,0,0,51,35.34c0-3.51.21-7.27.4-11S51.76,17.09,52.13,13.22Zm-.71,40c-.52.71-1,1.34-1.42,2-.19-1.1.67-1.93,1.39-2.92.54-.73,1-1.37,1.44-2C53.21,51.43,52.09,52.33,51.42,53.24Zm-.15,1.85c-.53.7-1,1.37-1.42,2-.2-1.13.77-2,1.45-2.95.52-.72,1-1.37,1.48-2C53.1,53.39,51.93,54.22,51.27,55.09Zm.93-4.76c-.72.9-1.41,2.05-2.14,2.8,0-1,.92-1.86,1.49-2.68a13.88,13.88,0,0,0,1.38-2.36,5,5,0,0,1,0,1.34C52.83,49.73,52.45,50,52.2,50.33ZM50.4,22.15a38.48,38.48,0,0,0,.25-3.88c0-1.32.19-2.6.31-3.91.24-2.62.23-5.24.63-7.83.11,4.82-.42,10-.82,15.07s-.41,10-.68,15c-.16.41-.42.64-.58,1A151.87,151.87,0,0,1,50.4,22.15ZM49.27,40.3a4.6,4.6,0,0,1,.7-2.81c.05,0,.09,0,.08.07-.23,2.68-.33,6.26-.49,9.26,0,.47-.1,1-.11,1.55a7,7,0,0,1,0,1.48c-.15.56-.7,1-.73,1.58.37,0,.44-.55.66-.83.26.76-.52,1.46-.8,2.12C48.62,48.88,49,44.42,49.27,40.3ZM48.5,52.87c.12,0,.12.13.24.06a10.75,10.75,0,0,0,.59-.94c.21.91-.45,1.67-.88,2.4C48.42,53.91,48.49,53.37,48.5,52.87Zm-.12,1.91c.4-.1.57-.61.82-1,.26.78-.55,1.41-.8,2.13C48.29,55.6,48.45,55.13,48.38,54.78Zm-.07,1.78a6.6,6.6,0,0,0,.82-1c.23.95-.59,1.75-.82,2.58.37,0,.46-.46.67-.72.26.71-.35,1.47-.82,1.86C48.26,58.32,48.28,57.44,48.31,56.56Zm-.2,4.56a5.35,5.35,0,0,1,.07-1.26c.15-.39.66-.61.77-1,0,1.32,0,2.68.14,3.94a11,11,0,0,0,.44-2.48,13.6,13.6,0,0,1,.24-2.5,9.61,9.61,0,0,1,1.49-2c.51-.72,1-1.37,1.45-2.08,0,2.18-.34,4.55.21,6.43,0,.22,0,.41,0,.62s.26,0,.42.13a24.74,24.74,0,0,0-3,2.81c-.23.27-.81.89-.83,1.19s.79.71,1.3.8a27.11,27.11,0,0,0,2.75.07,11.29,11.29,0,0,0,2.66-.13c0,.18-.5.51-.82.52-.55,0-1.09-.11-1.73-.06a29.35,29.35,0,0,0-4.77.46c-.07-1.11.05-2.34,0-3.45a17.89,17.89,0,0,0-.4,4.55c0,.81.13,1.51-.42,2.08A68.86,68.86,0,0,1,48.11,61.12Zm.61,18.52c-.57-.68-1.09-1.7-1.69-2.56-.17-.24-.65-.55-.29-.91A27.71,27.71,0,0,1,48.72,79.64Zm-1.9-5.45a.79.79,0,0,1,.1.54.86.86,0,0,0-.32-.14C46.66,74.42,46.76,74.34,46.82,74.19Zm-.67,1c.07.13.22.23.25.38s-.18.21-.23.4c-.13-.1-.2-.24-.36-.32A2.74,2.74,0,0,0,46.15,75.22Zm-.43.59a1.37,1.37,0,0,0,.26.49c0,.11-.12.12-.13.27C45.75,76.35,45.51,76.07,45.72,75.81Zm-.48.73a.7.7,0,0,1,.07.95A.76.76,0,0,1,45.24,76.54Zm3,7.88c-.14,0-.1-.16-.07-.28s.11.07.17.11S48.21,84.33,48.2,84.42Zm-.09-1.57c-.94-1.14-1.74-2.36-2.76-3.45.19-.17.18-.48.21-.86,1.07,1.3,2,2.71,3,4C48.45,82.77,48.25,82.76,48.11,82.85Zm.72,1c.2-.12.51-.22.67,0C49.28,83.94,49,84.17,48.83,83.84ZM50,79.69c-.34-.2-.32-.59-.57-.84,0-.18.2-.07.23-.24C49.82,79,50.14,79.21,50,79.69Zm.82-3.91c.18.17.33.37.5.56a15.44,15.44,0,0,0-1.19,1.23C49.55,76.88,50.41,76.27,50.86,75.78Zm-.61,4.07a3.88,3.88,0,0,1,.32.82C50.47,80.72,50,80.11,50.25,79.85ZM50.34,78a8.68,8.68,0,0,1,1.29-1.4,4.73,4.73,0,0,0,.45.23c-.48.63-1,1.2-1.44,1.88A1.8,1.8,0,0,1,50.34,78Zm.41,3a17.15,17.15,0,0,1,.72,1.71A3,3,0,0,1,50.75,81.08Zm1.89,2.73c-.27-.71-.58-1.4-.8-2.09,1-1.41,2.43-2.18,3.46-3.63a4.75,4.75,0,0,0-1.89,1.33,11.32,11.32,0,0,0-1.71,1.75c-.72-.7-.13-1.18.5-2a7.88,7.88,0,0,0,1.2-1.9A2.78,2.78,0,0,0,56.54,75c.13,1.16.16,2.38.19,3.6a43.16,43.16,0,0,0-3.31,3c-.35.33-.82.61-1,1.1A8,8,0,0,0,54.68,81c.69-.64,1.41-1.25,2-1.95.48.81-.32,1.22-.88,1.73a20.76,20.76,0,0,0-2.94,2.91c.46,0,.77-.4,1.07-.65.95-.79,1.92-1.71,2.88-2.57.38.69-.44,1.12-.93,1.57a24.08,24.08,0,0,0-2.83,2.89c.46.21.78-.35,1.05-.6.92-.84,1.95-1.8,2.82-2.69.37.78-.3,1.15-.85,1.64a18,18,0,0,0-2.64,2.59A7.15,7.15,0,0,1,52.64,83.81Zm.86,2.42c1.22-1,2.37-2.15,3.55-3.24,0,.31.19.71.06,1s-.62.52-.83.72c-.79.74-1.74,1.62-2.41,2.35C53.63,86.85,53.7,86.47,53.5,86.23Zm2.75,19.59c-.31-1.09.61-1.66,1-2.63-.39,0-.76.65-1.08,1-.56-5.14-.78-10.46-1.83-15.35.84-1,2.12-1.48,2.75-2.61-1,.35-1.9,1.52-2.83,2.23-.17-.32-.21-.71-.36-1a22,22,0,0,0,3.15-3.11,4.31,4.31,0,0,1,.08,1.77c.75,5.89.51,12.3,1,18.33C57.45,104.8,56.91,105.43,56.25,105.82Zm2.32-17.33c-.24,0-.11.24-.26.38-.34-.55.19-1.07.45-1.66,0,.86.52,2.43-.45,2.84C58.13,89.54,59,88.91,58.57,88.49Zm.27,1.67c.12.31,0,.74.09,1.06-.11.18-.36.1-.46.32A1.32,1.32,0,0,1,58.84,90.16Zm0,1.35c.12.93,0,1.95.16,2.88-.08.16-.27.12-.35.3C58.71,93.69,58.16,92.41,58.89,91.51Zm.1,3.42a.81.81,0,0,1-.25,1C58.49,95.63,58.81,95.22,59,94.93Zm0,1.2a.81.81,0,0,1-.28,1.1A1,1,0,0,1,59,96.13Zm.11,1.32a1.08,1.08,0,0,1-.38,1.27A1.13,1.13,0,0,1,59.15,97.45Zm.1,1.37c.25.45-.19.84-.42,1.2C58.5,99.62,59,99.08,59.25,98.82Zm.37,5.24a2.23,2.23,0,0,0-.64.74c-.21-.46.35-.82.56-1.17C59.65,103.73,59.53,104,59.62,104.06ZM59,102.53c-.07.14.08.16.13.24a.35.35,0,0,0,.4-.13c.21.41-.4.56-.51,1a6.51,6.51,0,0,1-.15-2c.18.17.45-.06.58-.23C59.62,101.81,59.23,102.24,59,102.53Zm-.12-1.12c-.15-.17,0-.5-.1-.7a4.09,4.09,0,0,0,.6-.64C59.58,100.58,59.09,101,58.83,101.41Zm.34-28.62c0-.53-.41-1.46-.25-2.08.1-.37.58-.82.8-1.29C60.43,68,61.11,66.34,61.8,65a5.31,5.31,0,0,0,1.14-.06C61.93,67.69,60.35,70.06,59.17,72.79Zm3.9-8c-.39-.12-.71-.1-1.08-.18a5.65,5.65,0,0,1,.43-.89,10.55,10.55,0,0,1,1.1.08A4.77,4.77,0,0,0,63.07,64.83Zm.48-1.09a7,7,0,0,0-1-.25c.12-.26.26-.49.38-.76.38.06.68,0,1.06.06C63.86,63.13,63.69,63.41,63.55,63.74Zm.51-1.18a3.73,3.73,0,0,0-.92-.18c.08-.27.22-.41.31-.67a5.93,5.93,0,0,1,1,.14A3.16,3.16,0,0,1,64.06,62.56Zm.46-1a4.71,4.71,0,0,0-.94-.13c.13-.23.25-.48.37-.71.36.08.65,0,1,.09C64.78,61,64.72,61.43,64.52,61.57Zm.51-1c-.31-.09-.57-.09-.87-.16.11-.29.26-.49.38-.76a2.58,2.58,0,0,0,.86.06C65.51,59.83,65.16,60.34,65,60.54Zm.59-1.1a5.8,5.8,0,0,1-.87-.17,7.75,7.75,0,0,0,.33-.77c.33,0,.64,0,1,.08A6.87,6.87,0,0,0,65.62,59.44Zm.44-.95c-.22-.2-.54-.15-.84-.26a7.46,7.46,0,0,0,.42-.9c.27-.06.66.1.92,0A3.73,3.73,0,0,1,66.06,58.49Zm.74-1.42c-.3,0-.64-.08-1-.08,1.28-2.55,2.53-5.19,3.76-8a12.48,12.48,0,0,0,1.08-2.7,32.65,32.65,0,0,0-2.9,5.33c-1,1.81-2,3.56-2.94,5.28-2.16-.12-4.38-.33-6.54-.44A10.69,10.69,0,0,1,60,53.4c1.8-2.85,3.85-5.57,5.59-8.63,2,.17,4.31.87,6.06.55-2-.45-3.89-.54-5.86-.85.18-.23.31-.55.49-.78a21.74,21.74,0,0,0,5.67.79,27.88,27.88,0,0,0-5.66-.84c.28-.44.57-.85.82-1.34,1.67.11,3.42.39,5,.45a5,5,0,0,1-.25.69,26.41,26.41,0,0,0-5-.53,10.85,10.85,0,0,0,2.44.43,17.55,17.55,0,0,0,2.49.24c-.06.19-.11.38-.17.57.46-.24.47-1,.9-1.43.15-.14.1-.07.22-.39.32-.85.86-1.68,1.21-2.66a2.89,2.89,0,0,1,.59-.08C72.13,45.7,69.59,51.62,66.8,57.07Zm7.79-17.58a1.49,1.49,0,0,0-.48-.09c.17-.37.33-.75.49-1.14.19.1.42-.09.5.05C74.93,38.71,74.77,39.12,74.59,39.49ZM75.24,38C75,38,75,38,74.75,38a7.77,7.77,0,0,1,.35-.82c.19,0,.37,0,.48-.06C75.61,37.38,75.31,37.7,75.24,38ZM75.72,37a1.19,1.19,0,0,0-.49-.1c.85-2.27,1.78-4.39,2.67-6.59-1.3,1.72-2.22,4.39-3.17,6.54a12.22,12.22,0,0,0-4,0,5.93,5.93,0,0,0,1.89.21c.68,0,1.36.08,2,.15-.11.29-.23.56-.35.82a10.53,10.53,0,0,0-4.13.24c.23.18.58.07.9.06.95,0,2.06,0,3.06.06-.11.38-.3.61-.4,1-.62,0-1.32-.07-2-.09a5.51,5.51,0,0,0-1.88.1,6.4,6.4,0,0,0,1.78.23c.62,0,1.28,0,1.84,0,.11.21-.26.66-.35,1a42.78,42.78,0,0,0-4.62-.53c.85-1.29,1.6-2.76,2.39-4.16,1.27-.08,2.75.22,4.05.2a13.41,13.41,0,0,0-3.81-.48,4.3,4.3,0,0,1,.47-.68c1.15-.13,2.57.23,3.65,0a13.14,13.14,0,0,0-3.45-.32c.16-.26.34-.46.48-.73a2.28,2.28,0,0,0,1.25-.24,9.6,9.6,0,0,0-1.08,0c1.47-2.33,3-4.58,4.46-6.92q1.75.12,3.45.12C78.74,30.12,77.19,33.46,75.72,37Zm4.74-10.39a17.26,17.26,0,0,0-3.4-.15c.17-.42.43-.67.62-1.05a28.31,28.31,0,0,0,3.13.18C81,25.8,80.52,26.22,80.46,26.57Zm.59-1.3a28.08,28.08,0,0,0-3.15-.09c0-.25.31-.54.44-.79,1,.17,2,.13,3,.25A6.19,6.19,0,0,0,81.05,25.27Zm.48-1c-1,0-2-.11-3-.09a5.35,5.35,0,0,1,.58-.9,21.71,21.71,0,0,0,2.62.17C81.92,23.62,81.54,24,81.53,24.23ZM82,23.08c-.91-.08-1.78-.08-2.68-.14a4,4,0,0,1,.47-.73c.79,0,1.64.11,2.4.05C82.37,22.48,82,22.78,82,23.08Zm.43-1.1c-.79,0-1.62-.09-2.4-.06,0-.28.38-.63.54-.92.73,0,1.46,0,2.19.05C82.67,21.42,82.49,21.61,82.41,22Zm.5-1.29c-.74-.05-1.45-.05-2.15,0,.13-.22.26-.44.4-.64.7,0,1.37-.06,2.06-.05C83.12,20.2,83,20.47,82.91,20.69Zm.49-1.14c-.66,0-1.29,0-2,0a5.18,5.18,0,0,1,.42-.7c.56-.07,1.23,0,1.77-.08C83.8,19,83.45,19.33,83.4,19.55Zm.49-1.08c-.57.06-1.2,0-1.78.08-.06-.17.22-.33.27-.54a12.9,12.9,0,0,1,1.68,0C84,18.26,83.91,18.28,83.89,18.47Zm.35-.82c-.56-.08-1,0-1.57-.07.12-.25.28-.44.41-.69.51-.06,1-.14,1.5-.22C84.7,16.86,84.34,17.38,84.24,17.65Zm.6-1.31a14.13,14.13,0,0,0-1.49.17c.25-.86,1.08-.64,1.69-.83C85.12,15.89,84.85,16.07,84.84,16.34Zm.39-1c-.41.09-.86.12-1.25.24,0-.25.27-.47.37-.71.43.1.68-.15,1.1-.08C85.41,15.08,85.27,15.13,85.23,15.38Zm.33-1.75c0,.21.34-.08.34,0-.06.33-.22.47-.29.79a3.55,3.55,0,0,0-1,.2A9.17,9.17,0,0,1,86.47,12C86.35,12.57,86.14,13.64,85.56,13.63Z"/></g></g></svg>