<svg xmlns="http://www.w3.org/2000/svg" viewBox="0 0 66.93 136.04"><defs><style>.cls-1{fill-rule:evenodd;}</style></defs><g id="Capa_2" data-name="Capa 2"><g id="Layer_1" data-name="Layer 1"><path class="cls-1" d="M35.28,75.72c2.22-5.73,4.65-11.55,7.16-17a3,3,0,0,0,.38-1.12,166.9,166.9,0,0,0-7.64,18.15C35.12,75.92,35.2,75.78,35.28,75.72Z"/><path class="cls-1" d="M25.91,60.91c-.32.64.17.1.15-.24C26,60.83,26,60.83,25.91,60.91Z"/><path class="cls-1" d="M37.24,32.74c-2.64,4.34-4.7,9-7,13.55S25.6,55.3,23.73,60c4.65-9,8.84-18.27,13.63-27.16C37.34,32.76,37.32,32.71,37.24,32.74Z"/><path class="cls-1" d="M26.14,60.55C28.7,56,31,51.21,33.26,46.46S38,37,40.13,32.16c-1.28,2.2-2.46,4.49-3.62,6.78C33,46,29.25,53.63,26.14,60.55Z"/><path class="cls-1" d="M41.44,107.3a5.55,5.55,0,0,0,2.64,1.87,6.5,6.5,0,0,0,1.5-.07,4.39,4.39,0,0,0,3.7-2.11,3.84,3.84,0,0,0,.89-2.58,6.64,6.64,0,0,0-1.24-3.53,4,4,0,0,0-4.55-1.81s-.05.06-.05.05a6.7,6.7,0,0,0-1.65.52,8.25,8.25,0,0,0-1.37,1.6c-.17.22-.38.33-.51.53C39.93,103.11,40.4,106,41.44,107.3Zm.42-2.85c1.33-1,2.64-2.46,4.17-3.51.21.14.63.31.68.48a49.72,49.72,0,0,0-4.59,4A4,4,0,0,1,41.86,104.45Zm-.07-.3c-.11-.43.35-.76.61-1,.84-.83,1.88-1.69,2.79-2.48.15-.08.17,0,.27,0A42.31,42.31,0,0,0,41.79,104.15Zm.45,1.57c1.53-1.41,3.28-2.68,4.77-4.11a2.24,2.24,0,0,1,.94.94,42.16,42.16,0,0,0-4.9,4.24,4.68,4.68,0,0,0,1.41-.88c1.26-1,2.55-2.13,3.77-3,.21.3-.24.49-.39.61a34.5,34.5,0,0,0-4.21,3.57c1.77-.88,3.19-2.36,4.8-3.49,0,.12,0,.23.08.35-1.38,1.23-2.91,2.37-4.26,3.63A3.58,3.58,0,0,1,42.24,105.72Zm5.69-.36a20.85,20.85,0,0,0-2.54,2.43A5.62,5.62,0,0,0,47,106.66c.51-.41,1-.84,1.49-1.27.05.66-.81,1.1-1.2,1.62.34,0,.58-.45.84-.65a3,3,0,0,1-1.23,1.25,4,4,0,0,1-2.52.14,46.78,46.78,0,0,0,4.22-3.32C48.71,104.89,48.21,105.13,47.93,105.36Zm-1.08-5.22c.38.12.86.13,1.08.44.06.2-.07,0-.19.09.14.18.28.38.45.16.1.35.57.77.33,1a6.12,6.12,0,0,0-3.44-1.95A2.44,2.44,0,0,1,46.85,100.14Zm-3.16.06a2.93,2.93,0,0,1,.83-.23c.21.06-.65.14-.77.27S43.63,100.22,43.69,100.2Zm-.14.81A10.93,10.93,0,0,0,42,102.65a.16.16,0,0,0,.31,0c0,.19-.43.47-.52.74C41.51,102.21,42.28,101.33,43.55,101Z"/><path class="cls-1" d="M46.1,101.24a23.24,23.24,0,0,0-3.92,3.5c.45.06.73-.42,1-.69.72-.62,1.46-1.21,2.16-1.77.35-.28.84-.53.93-1C46.22,101.31,46.22,101.17,46.1,101.24Z"/><path class="cls-1" d="M66.87,117.05c-.05-2.14-.12-4.23-.39-6.53s-.67-4.61-1-6.91c-.64-4.72-1.15-9-1.68-13.68-.25-2.26-.31-4.51-.57-6.68-.46-3.85-.89-8.1-1.16-11.76a13.66,13.66,0,0,1-.16-1.69,7.2,7.2,0,0,1,.33-1.11,7.28,7.28,0,0,1,.27-1.15c.08-.16.22-.22.28-.37.16-.41.09-.9.24-1.3.81-.78.81-2,1.06-3.25.53-2.73.34-5.72.45-8.63a63.75,63.75,0,0,0-.66-12.34c0-.2,0,.15.12.08a103.93,103.93,0,0,0-2.93-12,47.37,47.37,0,0,0-4.72-9.48,27.24,27.24,0,0,0-2.17-3.06,14.59,14.59,0,0,0-2.46-2.69c-.3-.21-.61-.31-.9-.53a5.11,5.11,0,0,1-.83-.71,6.46,6.46,0,0,0,.17-3.73c.28-.41,0-.95-.1-1.43-.06-.2-.49-.08-.42-.27a27.37,27.37,0,0,0-.3-5.4c-.17-.08-.24-.33-.4-.43-.33.11-.29.1-.64-.07-.23.28-1.12.25-1.64.36A9.17,9.17,0,0,0,46.1.38c-.28-.17-.57.14-.4-.38-1.45.64-2.92.43-4.12.64-1.47.25-3.16,1-4.42,1-.16.1-.24.28-.44.36s-.56,0-.82.07-.33.33-.49.37c-.49.13-1.07-.2-1.65-.16a6.44,6.44,0,0,0-1.6.3c-.24.09-.37.36-.63.45s-.39,0-.61,0c-1,.2-2,.82-2.63.36-.38.63-1.21.23-1.79.39-.25.07-.42.31-.69.42a2.63,2.63,0,0,1-1.39,0c-.3.89-1.24.31-1.89.41-.26,0-.51.23-.78.27s-.58,0-.88,0c-.72.09-1.45.45-2.23.49-.29.91-1.29.38-2,.48a10.35,10.35,0,0,0-1.25.48c-.47.15-1,.13-1.4.25-.19.06-.37.26-.55.33-.36.13-.81.1-1.2.21a19.39,19.39,0,0,1-2.93.64,7.9,7.9,0,0,0-1.09,0c-.23.06-.44.24-.66.3s-.56,0-.82.07c-.55.11-1.11.27-1.63.41a3.65,3.65,0,0,1-1.38.35c-.1.48-.94.4-1.44.53,0,.18.15.16.17.32-.21-.06-.28.07-.37.19,0,.61.19,1.38.23,2-.65,0-1.27.47-1.65.3-.15.36-.2.26-.5.32-.1.16-.06.42-.19.57a23.89,23.89,0,0,0,2.05,5.11c-.45.12-.22.43-.3.75s-.13.24-.13.39a6.88,6.88,0,0,0,.85,2.46,5.63,5.63,0,0,0,1.25,1.91,9.69,9.69,0,0,1-.85,1.34A12,12,0,0,0,2,27.84,59.55,59.55,0,0,0,.66,36.72C.08,42.43,1.55,48.56,3,55c.05.11.08-.22.12.08A69,69,0,0,0,14.7,77.71a26.49,26.49,0,0,1,2.12,2.55s.05.06.07.1c1.58,3.91,2.88,8.22,4.29,12.53.67,2,1.5,4.07,2.18,6.18s1.37,4.31,2.08,6.42c1.38,4.12,2.56,8.7,4,13A76.78,76.78,0,0,0,33,127.29,15,15,0,0,0,34.42,130a10.62,10.62,0,0,0,2.45,2,14.81,14.81,0,0,0,4.39,1.28,10.64,10.64,0,0,0,1.34,2.1c.25.24.58.3.8.55.23,0,.26-.14.45-.1,2.46.68,5.43,0,8.47-.49a22.63,22.63,0,0,0,4.4-1.27c1.35-.53,2.44-1.32,3.56-1.82A1.34,1.34,0,0,1,61,132c.09-.32.37-.52.49-.84a11.06,11.06,0,0,0,.35-2.47,10.54,10.54,0,0,0,3.94-3.87,10.3,10.3,0,0,0,.84-1.59C67.07,121.61,66.91,119,66.87,117.05Zm-1.45,1.71a1.09,1.09,0,0,1,.18.85c-.39-.5-1-.91-.73-1.71a2.28,2.28,0,0,1,.68.73C65.6,118.83,65.47,118.63,65.42,118.76Zm.09-1a1.19,1.19,0,0,1-.63-1.21A1.19,1.19,0,0,1,65.51,117.75Zm0-1.5c-.3-.28-.73-.58-.68-1.2.14.12.2.35.35.44s.27,0,.24-.11C65.53,115.57,65.43,116,65.5,116.25Zm0-1.18c-.26-.47-.8-.78-.75-1.51,0-.15.27,0,.26-.26-.65-1.08-.46-2.65-.78-4,.31.17.53.46.82.65C65.23,111.68,65.31,113.36,65.45,115.07ZM62.33,99.83c.46.45.25,1.5.43,2.19C62.12,101.68,62.45,100.5,62.33,99.83Zm.1-.49c-.16,0-.14-.23-.19-.38C62.51,98.91,62.36,99.16,62.43,99.34Zm.51,4.47c-.4-.14-.38-1-.47-1.41C62.93,102.55,62.88,103.31,62.94,103.81Zm.09.65c0,.36.17,1.32,0,.53-.06-.23-.1-.49-.15-.69C62.94,104.29,62.92,104.47,63,104.46Zm.63,6.94c-.8-.61-.47-2.19-.65-3.19A9.55,9.55,0,0,1,63.66,111.4Zm.1,1.64c-.5-.14-.48-.94-.48-1.46C63.7,111.9,63.75,112.41,63.76,113Zm.05,1.45c-.4-.12-.35-.67-.39-1.11C63.75,113.53,63.86,114.06,63.81,114.49Zm0,1.24c.18,0,.17-.12.16-.24.44.16.52.75.55,1.34-.31-.23-.57-.53-.89-.74,0-.34-.08-.71-.07-1C63.87,115.16,63.79,115.4,63.82,115.73Zm.22-1.61c.23.07.21.58.23.79C63.92,114.82,64.07,114.45,64,114.12Zm-.36,2.63c.48.38,1.23.85,1.07,1.8C64.24,118.11,63.59,117.76,63.68,116.75Zm.42-8.57c.28.26.8.48.78,1C64.61,108.84,64.09,108.73,64.1,108.18ZM64,106.85a1.29,1.29,0,0,1,.74,1.24C64.39,107.75,63.94,107.56,64,106.85Zm-.13-1.54a1.52,1.52,0,0,1,.71,1.36A1.32,1.32,0,0,1,63.89,105.31Zm-.18-1.78c.58.22.64.84.71,1.62C63.87,105,63.72,104.25,63.71,103.53Zm.53-.22c-.91-.26-.59-1.78-.75-2.69.18,0,.3.21.47.26A23.84,23.84,0,0,0,64.24,103.31Zm-.35-3a.61.61,0,0,1-.54-.56C63.62,99.82,63.86,99.91,63.89,100.32Zm-.11-1c0,.14-.53-.11-.52-.46C63.44,99,63.81,99.1,63.78,99.31Zm-.68-1.68c-.09-1.09-.28-2.25-.43-3.39,1.12.51.69,2.57,1.06,3.88C63.44,98.07,63.31,97.79,63.1,97.63Zm.15-3.36a1.58,1.58,0,0,1-.79-1.49A1.63,1.63,0,0,1,63.25,94.27Zm-1.11-3.66c.66.32.89,1.16.93,2.14C62.41,92.48,62.17,91.56,62.14,90.61Zm-.21-1.67a1.69,1.69,0,0,1,.86,1.58A1.57,1.57,0,0,1,61.93,88.94ZM46.54,131.41c-.11-.19.5-.64.68-.93,0,0,.1,0,.08-.12,1.21-.13,2.38-.21,3.65-.43,0,.16.21.38.12.55C49.74,131,48,131,46.54,131.41Zm2.13,1.67c0,.12-.24.08-.33.13s-.14-.19-.26-.21C48.27,132.78,48.53,133,48.67,133.08Zm-1,.17c-.18.15-.55,0-.7-.11A.56.56,0,0,1,47.67,133.25Zm-9.21-6.47a5.12,5.12,0,0,1-.52-.93c.66-1.54,1.3-3.1,1.9-4.68.23.39.35,1,.56,1.39C39.73,124,39.08,125.36,38.46,126.78Zm.22,2.19c-.11,0-.7-.29-.5-.57C38.42,128.48,38.48,128.82,38.68,129ZM28.23,97.07a4.87,4.87,0,0,1,.54-1.36c.21-.52.37-1,.53-1.37.23.36.34.89.54,1.29-.38.91-.79,1.8-1.12,2.74A4.35,4.35,0,0,1,28.23,97.07Zm.27,4.57a.56.56,0,0,1-.17-.53A.87.87,0,0,1,28.5,101.64Zm-1.07-7c-.86-1.55.49-2.53.62-3.83C29,92.27,27.65,93.39,27.43,94.6Zm-.1,8.6c-.08-.19-.23-.51-.09-.66C27.42,102.63,27.6,103.16,27.33,103.2ZM25.8,89.75a1.87,1.87,0,0,0,.25-1c-.33.11-.25.49-.41.71a14.34,14.34,0,0,1-.6-1.53l2,1.43c-.24.63-.55,1.21-.79,1.84A12.52,12.52,0,0,1,25.8,89.75Zm.33,9.13c0-.11-.12-.13-.11-.28C26.26,98.54,26.23,99.51,26.13,98.88ZM24,85.26a9.67,9.67,0,0,1-.9-1c.3,0,.4.4.68.48a2.89,2.89,0,0,0-.51-.67c.78-1.82,1.61-3.61,2.35-5.46.33.25.56.64.87.91-.68,1.81-1.49,3.54-2.28,5.28-.09.14-.12.07-.23.15C24,85.09,24,85.14,24,85.26Zm-1.58.6c.25.06.18.59.16.74C22.4,86.44,22.21,86,22.41,85.86Zm.14,2.83a1.19,1.19,0,0,1-.27-.77C22.49,88,22.46,88.43,22.55,88.69Zm-.79-5.81A8.25,8.25,0,0,1,22.82,84,6.32,6.32,0,0,1,21.76,82.88Zm.33,4.61a.76.76,0,0,1-.17-.74A.6.6,0,0,1,22.09,87.49ZM21.67,82a4.92,4.92,0,0,0-.51-.67c.72-1.9,1.66-3.67,2.38-5.57.28.3.45.76.74,1C23.43,78.56,22.63,80.34,21.67,82Zm0,4.32a.46.46,0,0,1-.08-.6A.46.46,0,0,1,21.63,86.34Zm-.81-4.4a1.91,1.91,0,0,1,.6.6A2.44,2.44,0,0,1,20.82,81.94Zm.33,3.42c0-.32-.36-.69,0-.83C21.28,84.77,21.48,85.22,21.15,85.36Zm-.59-1c-.19-.09-.24-.41-.34-.65.21,0,.24.23.38.33S20.47,84.16,20.56,84.34Zm-1.24-5.45c.68-2,1.59-3.85,2.39-5.77.35.24.49.81.81,1.12-.85,1.82-1.72,3.65-2.48,5.54C19.76,79.54,19.58,79.15,19.32,78.89Zm.32,1.69c-.27,0-.61-.41-.75-.82A4.91,4.91,0,0,1,19.64,80.58Zm.71-12.74c-.82-1.73-1.57-3.56-2.37-5.36,0-.06,0-.13,0-.19l.51.92c.09,0,.1-.11.06-.22,2.35,5.8,5.11,11,8.74,14.79a1.45,1.45,0,0,1-.41.77c-.24-.48-1-.71-.7-1.31-.21-.12-.21.15-.37.19A27,27,0,0,1,22,71.23C21.48,70.12,20.89,69,20.35,67.84Zm.28,3.22c.05.39-.49,1.12-.66,1.5-.66,1.44-1.33,3.22-2,4.49-.11-.36-.61-.6-.69-1a5.44,5.44,0,0,1,.58-1.63c.63-1.62,1.36-3.62,1.88-5C20,70,20.57,70.48,20.63,71.06ZM10.86,37.71C9.71,32.38,9.16,27.1,10.09,23c2.74-.8,5.74-1.12,8.44-1.84C15.84,26.54,13.7,32.53,10.86,37.71Zm-.28,10.16A6,6,0,0,0,10,48.93c.13-.63.56-1.44.78-2.15C11.08,47.11,10.74,47.55,10.58,47.87Zm-4-26.33c-.24.08-.2-.3-.3-.45l.3-.07C6.52,21.18,6.62,21.42,6.55,21.54Zm.14.39c0,.3.28.54.18.79-.22-.08-.24-.47-.33-.76Zm.78,1.65L9,23.25c-.19,1.06-.29,2.17-.43,3.26a16.38,16.38,0,0,0-2,3.2C6.76,27.76,7.19,25.61,7.47,23.58ZM8.85,21.1l-.4.08a1.28,1.28,0,0,1-.21-.47c.12-.15.38-.1.55-.12C8.72,20.7,8.83,20.93,8.85,21.1Zm-.52,1.41c-.42.14-.33-.52-.53-.72l.3-.06A2.42,2.42,0,0,1,8.33,22.51ZM8,21.29l-.25.05c-.12-.08-.12-.35-.17-.53l.35-.08A1.21,1.21,0,0,1,8,21.29Zm-.4,1.28c-.26,0-.29-.42-.41-.69l.1,0C7.46,21.94,7.47,22.31,7.56,22.57Zm-.4-1.11c-.25.08-.19-.32-.27-.51l.25-.06C7.15,21.09,7.33,21.39,7.16,21.46Zm1.27,5.6c.35,1.56-.53,2.57-1.11,3.73-.37.75-.73,1.44-1,2.15C6,30.53,7.45,28.82,8.43,27.06Zm0,2.41a19.91,19.91,0,0,1,.13,2.26A10.69,10.69,0,0,1,7.25,34c-.46.82-.93,1.53-1.28,2.26C5.81,33.56,7.5,31.65,8.39,29.47ZM7.17,34.88c.48-.87.95-1.71,1.41-2.39.07.52,0,1,.12,1.49a45.27,45.27,0,0,0-2.79,5.13C5.57,37.41,6.49,36.15,7.17,34.88ZM5.88,40.16a7.78,7.78,0,0,1,.63-1.39c.69-1.36,1.54-3,2.15-4.22A13.22,13.22,0,0,1,9,36.88a5.78,5.78,0,0,1-.8,1.37c-.79,1.34-1.48,2.82-2.11,4.15A14.48,14.48,0,0,1,5.88,40.16ZM9,37.45c.52,1-.11,1.77-.54,2.51a32.68,32.68,0,0,0-2.15,4.47c-.21-.32-.08-.79-.21-1.2C7,41.3,7.94,39.33,9,37.45Zm-.17-15.1c-.08-.22-.18-.43-.25-.67l.49-.11c.08.24.24.48.21.68Zm.3-1.73c4.82-1.11,9.52-2.39,14.06-3.48.17.48-.17.63-.32.9-4.12.81-7.87,1.9-12.06,2.63-.28,0-.69.18-1,.22S9.19,21.09,9.11,20.62Zm16.6-3.31-.84.19c-.05-.24-.11-.47-.16-.7l.9-.19C25.64,16.84,25.78,17.14,25.71,17.31Zm.22.79,0,.09c-.05.25-.58.18-.83.29,0-.08,0-.17-.05-.25C25.35,18.21,25.72,18,25.93,18.1Zm.45,1.56c.09.2-.09.45-.18.62C24.55,23.37,23,26.82,21.4,30l-2.28.49c1.72-3.48,3.54-6.91,5.27-10.4ZM27.14,17c-.05-.2-.09-.4-.13-.59l.45-.1a1.91,1.91,0,0,1,.07.61Zm.53.77c.12.26-.6.31-.41,0C27.39,17.76,27.61,17.61,27.67,17.72ZM40,16.39c-2.14,3.6-4,7.38-6.19,11-.69.18-1.26.18-2,.37-.16-.2.11-.4.19-.56,1.56-3,3.18-6.23,4.8-9.21a11.69,11.69,0,0,0-1.44,2.44c-1.36,2.42-2.68,5-4.05,7.44-3.1.7-6.24,1.23-9.28,2-.14-.2.11-.4.19-.56,1.52-3.15,3-6.61,4.63-9.74C31.42,18.62,35.57,17.42,40,16.39Zm-11.89.35c0-.19-.09-.39-.13-.59a1,1,0,0,1,.41,0,5.52,5.52,0,0,0,0,.57Zm.43.8c.11.14-.26.18-.28.11S28.5,17.46,28.51,17.54Zm1-1.1-.5.11c-.08-.23,0-.35-.06-.56l.59-.13C29.5,16.06,29.47,16.24,29.47,16.44Zm.09.87c.07.16-.39.2-.44.14S29.5,17.25,29.56,17.31Zm1-1.1c-.18,0-.42.14-.55.08s0-.28-.05-.46l.6-.14A3,3,0,0,1,30.51,16.21Zm.15.91c0,.21-.42.11-.55.12C30.06,17.08,30.64,17,30.66,17.12Zm3.12-1.67L31.1,16c0-.13-.06-.34,0-.46,1.06-.1,2.35-.57,3.36-.58a.83.83,0,0,0,0,.15C34.46,15.43,34,15.4,33.78,15.45Zm1,.72a17,17,0,0,1-3.54.93.83.83,0,0,0,0-.15A30.38,30.38,0,0,1,34.77,16.17Zm.31-1c0-.13,0-.27-.08-.4,1-.19,2.06-.38,3.14-.63.07.19,0,.29,0,.45C37.09,14.93,36.16,15,35.08,15.22Zm1.1.74-.84.19-.15,0C35.24,16,36.12,15.94,36.18,16Zm2.3-1.85.85-.18c0,.15,0,.36,0,.52l-.8.17C38.46,14.41,38.54,14.31,38.48,14.11Zm0-1.14c0-.58-.11-1.18-.12-1.74l.85-.18c.07.46,0,1.2.08,1.8C39,12.88,38.65,13,38.44,13Zm2.89,1.09-.59.13c-.16-.44,0-.67.52-.69C41.35,13.73,41.26,13.84,41.33,14.06Zm.49-3.49,1-.22c0,.59,0,1.25,0,1.82-.37.11-.63,0-1,.17C41.79,11.72,41.88,11.2,41.82,10.57ZM43,13.17c.08.11.1.3.19.38s.11-.27.11-.44L43.8,13a3.39,3.39,0,0,1,0,.62c-.73.19-1.36.25-2.05.4C41.42,13.41,42.39,13.16,43,13.17Zm.15-2.89.55-.12a15.4,15.4,0,0,1,0,1.82l-.5.11C43.21,11.48,43.21,10.9,43.16,10.28Zm3.08,2.92c-.27,0-.08-.47-.2-.68l.25-.06C46.22,12.67,46.42,13.05,46.24,13.2ZM46,11.44a6.87,6.87,0,0,0-.21-1.67c.13,0,.28-.08.36,0C46.07,10.31,46.46,11.16,46,11.44Zm.39,3.71c0,.37-.25.63-.3,1-.23-.17-.31-.57-.53-.77C45.68,15.23,46.1,15.24,46.35,15.15ZM46.8,11c-.17-.15-.21-.93-.34-1.33L47,9.55C46.84,10,47.12,10.67,46.8,11Zm.14,2.05c-.11-.28,0-.44-.11-.71l.15,0C47,12.56,47.16,12.93,46.94,13.05Zm.46,1.87a10,10,0,0,0-.73,2.14,2,2,0,0,1-.44-.58C46.59,16,46.3,15,47.4,14.92Zm1-4.28c-.25-.14-.11-1.06-.43-1.26a.82.82,0,0,1,.47-.21C48.37,9.59,48.62,10.26,48.44,10.64Zm.07,2a7.79,7.79,0,0,1,0-.83A1.09,1.09,0,0,1,48.51,12.65Zm.37,2.62a34.41,34.41,0,0,0-1.53,3.25c-.21-.13-.2-.61-.38-.8.16-.58.57-2,.86-2.73C48,14.48,48.62,15,48.88,15.27Zm.21.27a.83.83,0,0,1,.5.36,22.44,22.44,0,0,0-1.54,3.93c-.8-.7,0-1.73.3-2.46S48.92,16.07,49.09,15.54Zm-1.36-2.67c-.2-.17,0-.48-.16-.74l.24-.06C47.79,12.34,48,12.73,47.73,12.87Zm-.13-2c-.32-.21-.11-1-.4-1.31l.45-.1C47.61,9.86,47.89,10.53,47.6,10.82ZM41.94,25.68c1.1-2.62,2.3-5.18,3.64-7.66a10,10,0,0,1,.81,1.6c0,.4-.6,1.15-.81,1.53-.81,1.45-1.58,3.24-2.34,4.51C43.13,25.17,42.35,25.71,41.94,25.68Zm.66,1.11c.06.2-.37.29-.4.09S42.48,26.71,42.6,26.79Zm2.64-13.43c-.1-.26,0-.4-.09-.65l.34-.07c0,.21,0,.44,0,.66Zm-.16-1.68c0-.56-.1-1.14-.17-1.73l.45-.09c.11.63,0,1.11.12,1.74Zm.44,6.1a83.1,83.1,0,0,0-4,8l-2,.43c1.53-3.44,3.34-6.71,5.16-10C45.07,16.57,45.2,17.33,45.52,17.78ZM40.86,30.24c-.19.2-.44-.09-.64-.07C40.34,30.06,40.61,30.31,40.86,30.24Zm-17.06-10c.1.2-.1.44-.18.61-1.6,3.21-3.44,6.62-5.08,9.85-.7.15-1.41.29-2,.49-.07-.21.1-.44.18-.61,1.61-3.28,3.42-6.79,5.21-10C22.57,20.4,23.13,20.39,23.8,20.23Zm-3.09-.79a7.06,7.06,0,0,1-1.13.3c.22-.72,1.93-.56,2.87-.93C22.24,19.31,21.37,19.27,20.71,19.44ZM20.48,32c0,.14-.1.22-.13.34-.6-.15-1.05-.54-1.66-.68C19.46,31.23,19.92,31.85,20.48,32Zm-.4-.64c.19-.2.53-.08.72-.06a1.84,1.84,0,0,1-.09.28C20.48,31.52,20.32,31.37,20.08,31.34Zm.05,1.39c-.12.46-.64,0-.92-.11a8.33,8.33,0,0,1-1-.46c-.05-.16.11-.17.1-.29C18.9,32.21,19.54,32.43,20.13,32.73Zm-2.14-1c0,.11-.12.13-.11.23s-.22-.1-.34-.13C17.57,31.73,17.91,31.7,18,31.74Zm-.76.11c-.1.35.21.48.43.54,0,.09-.12.09-.06.22-.48,0-.77-.4-1.24-.46C16.56,32,17,32,17.23,31.85Zm.11,1.23c0,.1-.12.09-.05.22-.33.07-.44-.21-.72-.21a3.59,3.59,0,0,1-.08-.35C16.8,32.81,17,33,17.34,33.08Zm-.37.7c0,.13-.13.17-.14.3s-.08-.28-.13-.39S16.87,33.78,17,33.78Zm0,.27a.22.22,0,0,0,.11-.18c.66.2,1.24.52,1.88.73C18.15,34.86,17.49,34.35,16.93,34.05Zm.8.82a.54.54,0,0,1-.84-.29C17.19,34.64,17.41,34.83,17.73,34.87Zm-.36-1.43c0-.11.11-.13.1-.23a18.57,18.57,0,0,1,2.06.85c.06.15-.1.16-.09.28C18.72,34.08,18.09,33.68,17.37,33.44Zm.49-.63c-.06-.15.1-.16.09-.28.6.38,1.38.47,1.88,1C19.16,33.57,18.55,33,17.86,32.81Zm2,1.43c.18-.05.22.11.38.07,0,.13-.3.09-.43.15C19.81,34.36,20,34.37,19.88,34.24Zm.27-.42c-.06-.13.08-.12.06-.22.45.12.83.35,1.26.5C20.92,34.44,20.55,33.93,20.15,33.82Zm.26-.73a.26.26,0,0,0,.12-.19c.72.28,1.4.61,2.12.89-.07.13-.39.1-.48.21A13.93,13.93,0,0,1,20.41,33.09Zm1.67,0a9.24,9.24,0,0,1-1.33-.6c-.07-.17.15-.16.09-.33,1.18.35,2.2,1,3.4,1.29C23.28,34,22.75,33.39,22.08,33.09Zm.87-.56c-.68-.29-1.27-.57-1.89-.78,0-.11.11-.13.1-.23,1.54.44,2.88,1.19,4.38,1.7C24.67,33.58,23.73,32.88,23,32.53Zm.41-.71a19,19,0,0,1-1.93-.73c.13-.15.51-.12.74-.21a17.2,17.2,0,0,0,3,1.53c.63.33-.36-.12-.62-.22a6.57,6.57,0,0,0-1.24-.46C23.22,31.76,23.3,31.82,23.36,31.82Zm1.51.71c.29,0,.73.33,1.12.38.07,0,0-.06,0-.15.2.06.37.17.57.24C25.85,33.3,25.44,32.62,24.87,32.53ZM26,30.21c1-.48,1.56.14,2.28.44.51.2,1,.35,1.42.52,0,.19-.12.29-.16.45A29.66,29.66,0,0,1,26,30.21Zm4.08.3c-.26.33-.76,0-1.13-.17s-.82-.35-1.15-.47C28.71,29.53,29.3,30.32,30.05,30.51Zm-.88-.9c.37-.19,1.08-.35,1.29-.07,0,.19-.12.3-.16.45C29.86,30,29.58,29.68,29.17,29.61Zm.57,1.65c.73.13,1.32.48,2,.65-.82.62-1.53-.08-2.17-.2C29.55,31.51,29.75,31.45,29.74,31.26Zm1.72,0-1.41-.53c0-.06.07-.09.07-.17a35,35,0,0,1,3.39,1C32.71,32,32.12,31.54,31.46,31.3Zm3.65-1.89a7.62,7.62,0,0,1-1.77-.71,10.05,10.05,0,0,1,2.3-.44c-.22.11-.52.18-.53.42A.59.59,0,0,1,35.11,29.41Zm-.31.48c-.6.1-1.22-.36-1.86-.42-.07-.13.07-.12.06-.22C33.6,29.46,34.19,29.69,34.8,29.89Zm-.36.5c-.15.29-.61,0-.91-.11a2.81,2.81,0,0,1-1-.42C33.21,30,33.78,30.26,34.44,30.39ZM32.7,29.31c-.4,0-.67-.24-1.06-.29a4.18,4.18,0,0,1,1-.27C32.74,28.89,32.86,29.15,32.7,29.31Zm-.3.54A10.92,10.92,0,0,1,31,29.32,5.65,5.65,0,0,1,32.4,29.85Zm-.33.43c.06.15-.1.16-.09.28a8.72,8.72,0,0,1-1.5-.45C30.65,29.28,31.58,30.18,32.07,30.28Zm0,.41c0-.17.13-.2.13-.34,1,.25,1.92.68,3,.91C33.86,31.82,33.15,30.82,32.12,30.69Zm2.35-.15c.75-.1,1.5.37,2.28.44C35.81,31.38,35.14,30.78,34.47,30.54Zm.39-.61c.73.19,1.44.41,2.16.62A6.4,6.4,0,0,1,34.86,29.93Zm1.53-.12-1.11-.33c0-.14.16-.21.18-.36a18.89,18.89,0,0,1,1.92.68C37.26,30.24,36.7,29.9,36.39,29.81Zm1.56,1c-.24.19-.53-.1-.79-.09C37.38,30.51,37.67,30.81,38,30.77Zm-.45-.63c0-.15.11-.16.1-.28.71.17,1.36.45,2.1.58C38.82,30.84,38.23,30.2,37.5,30.14Zm6.68-16.6a4.29,4.29,0,0,1,0-.61l.55-.12c.07.23,0,.36.08.6Zm0-1.65c-.1-.61-.07-1.13-.17-1.73l.6-.13c0,.59.07,1.18.07,1.75Zm.3,3.73c.47.4-.19,1.16-.48,1.62A92.15,92.15,0,0,0,39,26.32c-.72.16-1.36.21-2.1.41,1.24-2.53,2.66-5.5,4.1-8.13A17.76,17.76,0,0,1,42.54,16,6.64,6.64,0,0,1,44.43,15.62ZM42.22,16c.15.14-.14.36-.29.58-2,3.2-3.71,6.89-5.51,10.26l-2.18.47c1.93-3.65,3.95-7.25,5.89-10.9C40.87,16.2,41.49,16.19,42.22,16Zm-2.4-2.18.55-.12c0,.17,0,.41,0,.58l-.45.1C39.81,14.15,39.91,14.05,39.82,13.82Zm1.42-1.35-.59.13a4.57,4.57,0,0,0-.18-1.31c-.41.23-.07,1-.17,1.38l-.54.12c-.07-.59-.13-1.18-.18-1.78a12.6,12.6,0,0,1,1.7-.32C41.25,11.28,41.24,11.87,41.24,12.47ZM26.41,18.15c0-.07,0-.13,0-.2l.35-.08c0,.07,0,.14,0,.2C26.57,18.07,26.51,18.22,26.41,18.15Zm-.22-1c0-.22-.09-.44-.14-.65.18,0,.4-.13.51-.06a2.77,2.77,0,0,0,.08.61Zm-2.14,1.61c0-.09,0-.17-.05-.25.25,0,.65-.27.69.06C24.57,18.71,24.26,18.7,24.05,18.77Zm-.27-1a3.22,3.22,0,0,0-.22-.79c.29-.09.46,0,.76-.11.1.29,0,.46.11.75Zm-.18,1.07a5.28,5.28,0,0,1-.9.15c0-.3.54-.44.85-.39A2,2,0,0,1,23.6,18.86Zm-14,2.6c3.17-.5,6.78-1.4,9.91-2.05.06.5-.58.48-.92.56-2,.5-4.31,1-6.42,1.56A6.52,6.52,0,0,1,9.66,22C9.68,21.75,9.43,21.62,9.55,21.46ZM12.07,36.1c1.09-2.08,2.09-4.27,3-6.32,1.38-3.13,2.38-5.91,3.8-8.58,0-.05,0-.16.12-.18a16.53,16.53,0,0,0,2.36-.36c.08.22-.13.45-.23.62-1.82,3.2-3.67,6.73-5.28,10.1a2.4,2.4,0,0,0-1.09.5c0,.3.32.12.38.33a2.81,2.81,0,0,1-.47,1.66,13.74,13.74,0,0,1-1.27,2.26,21.24,21.24,0,0,0,1.91-2.66c.34,1.12.29,2.84,1.31,2.89-1.36,2.7-2.77,5.59-4.28,8.06,0-.76-.49-1.45-.48-2.23a6.77,6.77,0,0,1,.88-1.91c.94-1.91,1.86-3.78,2.6-5.72a7.8,7.8,0,0,0-1,1.72c-.86,1.7-1.74,3.62-2.66,5.21,0-1-.79-2.24-.73-3.33A10.15,10.15,0,0,1,12.07,36.1ZM11.71,50c.69.95,0,1.89-.39,2.74-.78,1.77-1.63,3.74-2.39,5.26a3.65,3.65,0,0,1-.23-.84C9.76,54.77,10.68,52.33,11.71,50ZM12,46.71a1.38,1.38,0,0,1-.09-.37c0,.13.06.25.09.37a16.43,16.43,0,0,1,1,2.57c0,.19-.18.32-.16.45A14.24,14.24,0,0,1,12,46.71ZM13,53.63c-1.1,2.3-2.07,4.9-3.19,7-.34-.68.29-1.58.6-2.26.79-1.8,1.62-3.82,2.28-5.49C12.92,53,12.89,53.45,13,53.63Zm0-3.85A20.94,20.94,0,0,1,14,52c-.18.07-.15.27-.34.33C13.46,51.49,12.65,50.47,13,49.78Zm1,2.45c.25.3.67,1.08.3,1.39C14,53.26,13.7,52.62,14,52.23Zm.35,4.49c.23.39.35.92.55,1.34-1.06,2.4-2,5.1-3.25,7.26,0-.34-.35-.63-.38-1A7,7,0,0,1,12,62.44C12.79,60.57,13.67,58.41,14.33,56.72ZM12.05,67a5.12,5.12,0,0,1-.44-.84C11.78,66.37,12.09,66.67,12.05,67Zm.58-3c.81-1.79,1.68-3.86,2.28-5.54.24,0,.2.48.35.65s-.26.14-.3.27c-.89,2.48-1.83,4.93-2.77,7.37C11.45,65.72,12.24,64.83,12.63,64Zm2.45-8.33c-.28-.67-.77-1.42-.56-2.12,1.33,2.58,2.26,5.78,3.4,8.68C17,60.22,16,57.8,15.08,55.63Zm1.18-.31c-.93-2.37-2.1-4.85-3-7.52a11.69,11.69,0,0,1-.81-2.73,8.74,8.74,0,0,1,1.08-2.22c1.19-2.19,2.3-4.39,3.31-6.54A15.4,15.4,0,0,0,18.7,36a24.77,24.77,0,0,1-2.21,4.91c1.15-1.51,1.73-3.39,2.7-5,3.94-.76,7.89-1.79,11.76-2.36-2.71,6-5.74,11.86-8.53,17.83a10.75,10.75,0,0,0,1.19-2.13c2.65-5.07,5.22-10.46,7.65-15.72,1-.24,2-.35,2.95-.54.12.23-.13.47-.22.63a112.38,112.38,0,0,0-5.34,10.37c-1.78,3.75-3.76,7.46-5.34,11.25A6.28,6.28,0,0,0,24,53.84c.72-1.36,1.5-2.75,2.21-4.18,2.79-5.56,5.43-11.41,8.5-16.84A53.24,53.24,0,0,0,43.36,31c.08.15-.13.47-.25.73-1.94,4-4,8-6,11.93-2.2,4.23-4.29,8.54-6.36,12.78.49-.24.65-.93.93-1.45,4.19-7.78,8.41-15.85,12.08-24,.73,0,.6-.6,1-.88,0-.21-.28-.1-.29-.35a.67.67,0,0,1,.13-.39c-.27-.05-.21-.49-.27-.77-.11-.46-.25-1.08-.39-1.54a6.37,6.37,0,0,1-.34-.86c0-.44.45-1.12.69-1.6.55-1.12,1-2,1.56-3.1A5.49,5.49,0,0,1,46.59,20c1.23,3.34,2.84,6.47,3.55,10.56A133.14,133.14,0,0,1,51.73,46a15.15,15.15,0,0,1,.14,2.1,10.92,10.92,0,0,1-.95,2.08c-1,2.05-2,4.13-2.88,6.09-3.85,8.16-7.9,16.36-10.66,25.05A5.86,5.86,0,0,1,35.24,81c2.73-5.9,5-12,7.51-18,1.27-3,2.65-5.92,3.82-8.95.59-1.52,1.2-3.05,1.82-4.56S49.8,46.59,50.27,45a7.12,7.12,0,0,0-1.17,2c-1.05,2.13-2,4.44-2.9,6.72-2.42,6-5.2,11.93-7.56,18-1.18,3-2.21,6.15-3.58,9.11-.57,0-1.19-.36-1.8-.13.27.38.79.37,1.21.51s.78.4,1.2.52c1.16.35,2.51.12,3.78.37a.36.36,0,0,0-.07.18c0,.25.15-.21.25-.27a7.37,7.37,0,0,0,1.92,0,2.57,2.57,0,0,1-.31.74,19.51,19.51,0,0,1-5.39.55,10,10,0,0,1-2.19-.51c-1.06-.32-2-.75-3.1-1.09-.2-.13.17-.14.08-.33-.47.16-.85-.13-1.3-.49-.6-.48-.91-.68-.54-1.29-.33-.15-.34.41-.56.33-.37-.33-.7-.72-1.06-1.07a3,3,0,0,1,.29-.79,8.16,8.16,0,0,0,3.84,2.33c-1-1-2.23-1.78-3.28-2.87a42.8,42.8,0,0,1-7.77-12.25C18.87,62.16,17.6,58.71,16.26,55.32Zm40-30.94c.35,0,.54.32.64.74C56.57,25.07,56.39,24.77,56.27,24.38Zm1.47,2.44a1.72,1.72,0,0,0-.5-.16c-.14-.41-.34-.72-.46-1.15C57.33,25.59,57.48,26.28,57.74,26.82Zm-.05,3.59a8,8,0,0,1,.69,2,5.11,5.11,0,0,1-.47,1.4c-1.15,3.15-2.53,6.44-3.65,9.48a65.11,65.11,0,0,0-1.28-8,21.69,21.69,0,0,1-.64-2.72c0-.56.67-1.44.61-1.48.53-1.61,1.18-3.28,1.8-4.87a4.45,4.45,0,0,1,.66-1.5C56.16,26.55,56.93,28.43,57.69,30.41Zm3.8,18.84a10.35,10.35,0,0,1-.92,2c-2.09,4.54-4,9.28-5.93,13.83,0-.62,0-1.23.07-1.84a14.81,14.81,0,0,1,0-1.88,9.79,9.79,0,0,1,.85-1.85c1.94-4.23,4-8.73,5.69-13A18.74,18.74,0,0,1,61.49,49.25Zm0,4.25a12.09,12.09,0,0,1-1,2.35c-2.4,5.44-4.63,11-6.75,16.51.11-.94.21-1.88.26-2.87a13.69,13.69,0,0,1,.36-2.89,17.9,17.9,0,0,1,.85-2c2-4.68,4.26-9.64,6.19-14.3A16.68,16.68,0,0,1,61.53,53.5Zm-.22-8a11,11,0,0,1-.8,1.84c-1.87,4.17-3.69,8.64-5.69,12.53.1-.62-.13-1.33,0-2a9.47,9.47,0,0,1,.76-1.78c1.79-4.1,3.76-8.46,5.62-12.36A10.93,10.93,0,0,1,61.31,45.54Zm-1-.83C58.5,48.44,56.88,52.13,55.21,56l-.22.41c-.05.09-.06.28-.21.25a16.44,16.44,0,0,1,1.35-3.83q2.29-5.62,4.73-11.23C61.53,43,60.84,43.71,60.35,44.71ZM60,42.65c-1.84,4-3.53,8.24-5.21,12.12.05-.43-.14-1-.06-1.45.06-.32.36-.58.49-.88.44-1,.77-2.18,1.21-3.29.83-2.11,1.75-4.25,2.6-6.39.46-1.14,1-2.22,1.36-3.31a6.38,6.38,0,0,1,.38,1.48A7.58,7.58,0,0,1,60,42.65Zm-.44-2.24a94.45,94.45,0,0,0-4.81,12.28A12.4,12.4,0,0,1,54.63,51a9,9,0,0,1-.13-1.79,10.91,10.91,0,0,1,.71-1.51c1.54-3.55,3-7.37,4.45-10.85a7.1,7.1,0,0,1,.61,1.84A6.46,6.46,0,0,1,59.56,40.41Zm-.67-2.82c-1.48,3.54-3.21,7.21-4.4,10.79a9.61,9.61,0,0,1,0-3.12c0-.25-.1-.49-.16-.74,1.4-3.79,3-7.46,4.24-11.33A12.28,12.28,0,0,1,59.49,36,6.08,6.08,0,0,1,58.89,37.59Zm-5.3,22.9c-.08,1.22.18,2.67-.47,3.53.13.26.33-.17.39-.08a11,11,0,0,1-.17,2.33c0,1.31.11,2.74-.55,3.65.17.13.13-.22.31-.22a18.65,18.65,0,0,1-2.21,7,12.3,12.3,0,0,1-1.35,1.91,13.5,13.5,0,0,1-3.07,2.13,16.25,16.25,0,0,1-4.83,1.93A2.86,2.86,0,0,1,42,82c5-1,7.8-3.42,9.16-6.89a28.93,28.93,0,0,0,1.77-8.86c.1-1.87.19-3.77.32-5.69a27.53,27.53,0,0,0-.08-4.14c-.15-1.69.19-3.45-.08-5.13a2.72,2.72,0,0,0,.23-1.09c-.13-.16-.16.49-.26.21.13-1,.11-2,.17-3,.26,2.86.2,6.06.31,9a13,13,0,0,1-.19,4.15C53.45,60.73,53.55,60.34,53.59,60.49ZM52,53a9,9,0,0,1-.76,1.78C47.27,63.6,43,72.18,39.66,81.27a10.55,10.55,0,0,1-2,0c.92-2.86,2.15-5.58,3.28-8.31,2.26-5.48,4.79-10.73,7.26-16.1,1.25-2.72,2.44-5.47,3.66-8.23C51.79,50,52.21,51.65,52,53Zm-2,22.6c-1.19,2.61-3.67,4.11-7.34,5.24-.14-.19.07-.46.13-.6,3.11-6.51,6.16-13.41,9.1-20.08,0,0,0,0,0,0C52.3,66,51.86,71.4,49.93,75.64ZM40.32,80.5c1.76-4.21,3.53-8.51,5.45-12.69,2.08-4.51,4.17-9,6.1-13.55a38.73,38.73,0,0,1,0,5.05,13.65,13.65,0,0,1-1.22,2.77c-2.91,6.33-5.79,12.71-8.65,19a7.21,7.21,0,0,1-1.88.21C40,81,40.23,80.73,40.32,80.5ZM53.06,45.42c.12,0,.21.71.15.9C53,46.1,53.16,45.72,53.06,45.42Zm-.83-13.61a10.32,10.32,0,0,1-.41-1.36,7.35,7.35,0,0,1,.71-1.77c.74-1.79,1.59-3.76,2.14-5.46.25.21.31.71.53,1C54.07,26.65,53.21,29.27,52.23,31.81Zm-.64-2.2c-.57-1.21-.05-1.87.32-2.82.66-1.71,1.43-3.54,2-5.07a8.34,8.34,0,0,1,.6,1.11C53.56,25.1,52.68,27.42,51.59,29.61ZM53.05,23c-.67,1.52-1.38,3.34-1.93,4.74-.66-.85-.06-1.58.26-2.4.59-1.57,1.22-3.53,1.78-4.92.14.31.56.65.59,1A6.94,6.94,0,0,1,53.05,23ZM29.61,82.41c-.73,1.77-1.58,3.46-2.29,5.24-.65-.16-1.07-.68-1.66-.94.9-1.77,1.54-3.71,2.39-5.51C28.59,81.57,29,82.08,29.61,82.41Zm-9.08-.87c-.17,0-.59-.41-.6-.6C20.17,81.07,20.3,81.37,20.53,81.54Zm-.26-1.4c.86-1.8,1.63-3.66,2.39-5.52.3.13.42.54.64.8-.75,1.85-1.64,3.61-2.46,5.42A3.34,3.34,0,0,1,20.27,80.14ZM22,82.46c.82-1.76,1.71-3.49,2.43-5.32.32.35.58.79.91,1.1-.75,1.81-1.57,3.58-2.37,5.36C22.62,83.31,22.4,82.76,22,82.46Zm1.36,4.8a1.17,1.17,0,0,1-.3-.87C23.29,86.48,23.53,87.06,23.39,87.26Zm1.06-2.05c.8-1.75,1.6-3.5,2.27-5.34.38.28.67.69,1,1-.83,1.86-1.55,3.79-2.41,5.63a3.89,3.89,0,0,1-1.22-1C24.32,85.41,24.34,85.28,24.45,85.21Zm2.82,4.37c1.16.92-.28,2.25-.43,3.27C26.06,91.54,27.14,90.68,27.27,89.58Zm9.52,3.08c.25.22.29.78.5,1.09-.19.45-.4.88-.6,1.32C35.89,94.25,36.55,93.41,36.79,92.66Zm0-1.19.2,0c0,.15-.09.2-.09.33S36.79,91.56,36.74,91.47ZM59.16,80.29c.34.13.21.65.27,1C59.1,81.2,59.24,80.6,59.16,80.29ZM59.5,83a2,2,0,0,1-.09-1.12C59.49,82.31,59.44,82.63,59.5,83Zm-.45-3.49c.16.06.41.26.31.5A.59.59,0,0,1,59.05,79.53Zm0-.79c.32,0,.25.39.3.67C59.12,79.38,58.84,79,59.08,78.74Zm1.09,23.12s0,0,0,.06a12,12,0,0,1-1,2.81c-.94,2.83-1.84,5.75-2.84,8.42-1.39,3.73-2.75,7.39-4.18,10.9,0-.38-.4-.83-.42-1.26a10.62,10.62,0,0,1,.89-2.59c2.2-5.84,4.66-11.7,6.12-17.93a2.66,2.66,0,0,0-.53,1.11c-1,2.91-1.84,6-3,8.81s-2.26,5.68-3.33,8.58a2.55,2.55,0,0,1-.49,1.1c-.28-.57,0-1.1.22-1.61,1.88-5.09,3.87-10.19,5.75-15.35.7-1.89,1.47-3.78,2-5.7,0,0,0-.06,0-.11-1.57,3.49-2.9,7.12-4.27,10.71s-2.74,7.22-4.09,10.83c-.56-1.49-1-3.09-1.61-4.75a9,9,0,0,1-.54-1.54,3.63,3.63,0,0,1,.46-1.25c.17-.43.37-.87.51-1.2a13.76,13.76,0,0,1,1-2.36c.16-.23.44-.35.6-.55,1.31-1.55,1.09-3.34,1-5.67,2-4.73,3.9-9.71,5.95-14.25C58.8,93.32,59.64,97.7,60.17,101.86Zm.71-27.77a1.13,1.13,0,0,1,.66.89c-.29-.1-.47-.37-.7-.58C60.8,74.26,60.92,74.23,60.88,74.09Zm.54-.38a3.11,3.11,0,0,1-.33-.29c0-.36.18-.63.2-1,.08,0,.1,0,.16,0A7.45,7.45,0,0,0,61.42,73.71Zm.23,3c-.25-.2-.55-.3-.67-.69.23.06.26.44.63.28C61.69,76.45,61.6,76.52,61.65,76.68Zm-.72,16c.09,0,.07.15.18.11a19.09,19.09,0,0,1,.39,3.45C61.23,95.19,61.15,93.88,60.93,92.7Zm.57,4c.27.17,0,.7,0,0Zm-.63,10.69c.23.74.18,1.66.39,2.52-1.41,4.53-2.86,9-4.64,13.28-.59,1.42-1.09,2.88-1.72,4.28l-1,.22C56.28,121,58.88,114.41,60.87,107.43Zm-.09-16.16c.33.14.19.65.32,1C60.73,92.25,60.83,91.61,60.78,91.27Zm.31-13.12c.23,0,.28.36.62.23.07.23,0,.36.08.61C61.47,78.82,61.09,78.61,61.09,78.15Zm.71,1.61a2.77,2.77,0,0,1,0,.57c-.27-.24-.77-.4-.68-1C61.37,79.46,61.54,79.69,61.8,79.76Zm-.1-1.9c-.31-.2-.69-.36-.67-.9.28.07.36.42.67.43C61.64,77.51,61.74,77.73,61.7,77.86ZM61,75.21s.39.4.57.5C61.39,75.75,61.12,75.4,61,75.21Zm0,15.61c-.49-.2-.26-1.15-.42-1.67C61,89.38,60.73,90.23,60.94,90.82Zm-.57-3.3c.37.16.24.84.32,1.22C60.3,88.65,60.44,87.91,60.37,87.52Zm-7.6,38.32c-.21-.14-.19-.64-.35-.86,2.78-7.33,5.64-14.6,7.77-22.34a7.69,7.69,0,0,1,.31,1.65A7.29,7.29,0,0,1,60,105.6c-1.19,3.07-2.3,6.41-3.4,9.43C55.21,118.69,53.93,122.23,52.77,125.84Zm.23,2-.45.1a2.05,2.05,0,0,0,.18-.61C52.92,127.38,52.92,127.69,53,127.87Zm-1.5-1.65a6.6,6.6,0,0,1-.5-1.34c0-.54.46-1,.46-1.46A2.73,2.73,0,0,1,51.5,126.22Zm0,2c-.12-.07-.09.05-.21,0s0-.3.18-.35C51.52,128,51.58,128.17,51.52,128.25ZM36.23,108.49a12.62,12.62,0,0,0,.59-1.59c.18.14,0,.43,0,.62.21-.42,0-1.1.3-1.47.19.34.2,1,.43,1.26-.3.43-.36,1-.67,1.44a.65.65,0,0,0-.19-.37c-.29.11.11.49.08.81a6.83,6.83,0,0,0-.38.92C36.07,109.68,36.56,109.16,36.23,108.49ZM30.72,94.66c.66.71.12,1.41-.07,2C30,96,30.51,95.27,30.72,94.66Zm-.67.51a5.22,5.22,0,0,1-.54-1.29c0-.5.45-.93.49-1.35A2.41,2.41,0,0,1,30.05,95.17Zm1.23,1.08a1.81,1.81,0,0,1,0,2.35A2.29,2.29,0,0,1,31.28,96.25Zm.74,2a1.74,1.74,0,0,1,0,2.09C31.37,99.62,31.78,98.82,32,98.22Zm5.8,3c-.54-.69,0-1.26.12-1.84C38.54,100,38.07,100.75,37.82,101.22Zm.27-3.54c.12.09-.14.31-.1.49C37.84,98.06,38.08,97.83,38.09,97.68Zm5,14a5.87,5.87,0,0,1-.62,1.48c0-.52-.4-.87-.42-1.26C42,111.18,42.6,111.5,43.12,111.67Zm-.4-1.58c.12,0,.08.24.13.34C42.57,110.46,42.64,110.23,42.72,110.09Zm7.6,12.65c-.54-1.39-1.08-3.28-1.59-4.91a7.79,7.79,0,0,1-.52-1.66c0-.49.43-.92.49-1.35.42,1,1.16,3.37,1.63,4.85a9.76,9.76,0,0,1,.49,1.55C50.85,121.78,50.37,122.25,50.32,122.74ZM51,122c.62.73-.14,1.43-.21,2.12C50.2,123.27,50.89,122.63,51,122ZM46.72,116c0-.5.44-.9.44-1.35a6.42,6.42,0,0,1,.5,1.56c0,.45-.43.77-.43,1.14A7.62,7.62,0,0,1,46.72,116Zm-.31,3.34c-.76-1-.29-1.94,0-2.71A2.51,2.51,0,0,1,46.41,119.37ZM47.47,114c0-.54.47-1,.52-1.46.24.47.34,1.14.57,1.64-.19.44-.39.87-.55,1.32A15.6,15.6,0,0,1,47.47,114Zm.34,3a31,31,0,0,1,1.11,3.45c.54,1.76,1.42,3.32.65,4.17-.5-1.39-1.11-3.28-1.63-4.84a8.25,8.25,0,0,1-.51-1.66C47.41,117.65,47.77,117.31,47.81,116.94Zm2.33,7.35c.46.63.11,1.27,0,1.77C49.62,125.38,49.94,124.84,50.14,124.29Zm-2-12c.13-.44.3-.83.46-1.24a3.24,3.24,0,0,0,1.92-1.21c-.5,1.16-1.13,2.61-1.76,3.82C48.53,113.17,48.43,112.55,48.09,112.3Zm-.76,1a9.71,9.71,0,0,1-.62-1.89l1.5-.33C47.94,111.88,47.58,112.58,47.33,113.35ZM47,114c0,.55-.41.88-.44,1.34-.46-1.06-.81-2.27-1.21-3.42,0-.36.6-.21,1-.38C46.41,112.46,47,113.26,47,114Zm-1.24.27a12.3,12.3,0,0,1,.51,1.66c0,.64-.5,1.06-.54,1.57-.2-.52-.42-1.09-.62-1.68a6.9,6.9,0,0,1-.54-1.76c0-.59.55-1,.55-1.52A7.44,7.44,0,0,1,45.77,114.26Zm-1.39-.84a8.75,8.75,0,0,1-.61-1.64c.42,0,.77,0,1.18,0C44.87,112.36,44.51,112.82,44.38,113.42Zm-.32.64c0,.6-.6,1.14-.63,1.65-.26-.53-.42-1.21-.65-1.79a15.93,15.93,0,0,0,.63-1.64A6.18,6.18,0,0,1,44.06,114.06Zm.4,6.83c-.2-.65-1.57-3.26-1.11-3.87C43.69,118.26,44.51,119.69,44.46,120.89Zm-4.52-7.13a2.24,2.24,0,0,1-.08,2.52A2.24,2.24,0,0,1,39.94,113.76Zm-.71.84c-.68-.83.05-1.55.19-2.23C40.1,113.17,39.42,114,39.23,114.6Zm1.32,1a2.25,2.25,0,0,1,0,2.49,3.54,3.54,0,0,1-.52-1.19C40,116.43,40.52,116,40.55,115.61Zm.74-1.83a2.13,2.13,0,0,1,0,2.45A2.13,2.13,0,0,1,41.29,113.78Zm0,3.91a6.22,6.22,0,0,1,.6,1.53c0,.5-.43.8-.47,1.2a7,7,0,0,1-.59-1.49C40.78,118.46,41.23,118.09,41.26,117.69Zm.27-.68c.17-.38.32-.76.48-1.15a8.23,8.23,0,0,1,.61,1.64c0,.46-.41.75-.43,1.13A10,10,0,0,1,41.53,117Zm1-2.46c.21.68.79,1.67.44,2.24C42.68,116.16,42.07,115.08,42.55,114.55Zm-.46-.21a1.84,1.84,0,0,1-.2-2.09C42.16,112.93,42.47,113.86,42.09,114.34Zm-.65-1.79c-.24-.39-.63-1.18-.46-1.61a1.53,1.53,0,0,1,.88.43A11.79,11.79,0,0,0,41.44,112.55Zm-.33.65c0,.48-.45.84-.45,1.24-.27-.28-.33-.88-.54-1.24a13.45,13.45,0,0,0,.5-1.3A4.16,4.16,0,0,1,41.11,113.2Zm-1.1-.49c-.65-.77,0-1.53.22-2.13C40.82,111.43,40.14,112.05,40,112.71Zm-.49-1.35c-.29-.46-.66-1.19-.36-1.64.24.27.54.45.78.72A7,7,0,0,0,39.52,111.36Zm-.9,1.86c-.6-1.07.08-1.71.23-2.54A2,2,0,0,1,38.62,113.22ZM38,111.68c-.59-1.12.33-1.76.51-2.66C39.32,109.49,38.19,111,38,111.68Zm-.46-1.35c-.76-1,0-1.77.22-2.6a6,6,0,0,1,.49.83C38.11,109.19,37.79,109.72,37.57,110.33Zm-.3-10.44c0-.5.32-.8.41-1.24A1.84,1.84,0,0,1,37.27,99.89ZM36,103.29c-.16-.76.35-1.09.47-1.66C36.87,102.22,36.24,103,36,103.29Zm.18.38c-.22-.17.09-.35.1-.5C36.39,103.27,36.13,103.48,36.17,103.67Zm-2.05-4.19c.63.81-.15,1.44-.27,2.14C33.26,100.83,34,100.17,34.12,99.48Zm-.78.74c-.71-.87-.12-1.59.12-2.31C34.2,98.69,33.58,99.57,33.34,100.22Zm1.25.51a2.16,2.16,0,0,1-.15,2.63c-.06-.5-.39-.79-.41-1.16C34,101.66,34.55,101.24,34.59,100.73Zm.26-.52c0-.47.48-.88.49-1.31.8.86.29,1.71,0,2.44A4.12,4.12,0,0,1,34.85,100.21Zm1.67.31c-.39-.4,0-.83.12-1.17C37.06,99.73,36.59,100.18,36.52,100.52Zm.48-.21c.27.4-.12.74-.12,1.12C36.5,101.06,36.94,100.66,37,100.31Zm-1-.83a1.88,1.88,0,0,1-.08-2C36.38,98.12,36.58,99,36,99.48Zm-.57-1.65a1.48,1.48,0,0,1-.06-1.7A1.37,1.37,0,0,1,35.47,97.83Zm.57,2.84c.51.54-.25,1.12-.31,1.68C35.28,101.77,36,101.23,36,100.67Zm.75,2a3.64,3.64,0,0,1,0,3.06,11,11,0,0,1-.49-1.56C36.32,103.65,36.81,103.19,36.79,102.7Zm.53-1.42c.43.41.06,1,0,1.44A1.25,1.25,0,0,1,37.32,101.28ZM37,99.21c-.3-.65.2-.95.31-1.47C37.76,98.26,37.23,98.82,37,99.21Zm-.34-1.07a1.89,1.89,0,0,1-.1-2.16c.27.24.35.78.55,1.13Zm-.62-1.68a1.47,1.47,0,0,1,0-1.82A1.43,1.43,0,0,1,36.06,96.46ZM35.47,95a1.33,1.33,0,0,1,0-1.65A1.29,1.29,0,0,1,35.47,95Zm-.63,1.39a1.3,1.3,0,0,1,.1-1.69A1.41,1.41,0,0,1,34.84,96.36Zm0,1.24c.22.11.21.56.37.76-.2.41-.36.84-.55,1.26C34,98.9,34.69,98.21,34.85,97.6Zm-.8.65c-.55-.92,0-1.53.21-2.18C34.94,96.82,34.39,97.66,34.05,98.25Zm-.58-1.49c-.65-1.07-.21-1.75.07-2.56A1.93,1.93,0,0,1,33.47,96.76Zm-.74,1.83c-.73-.91-.15-1.71.08-2.46C33.56,97.06,33.07,97.9,32.73,98.59Zm-.09,1.27a2,2,0,0,1,0,2.23A1.94,1.94,0,0,1,32.64,99.86Zm.64,1.78c.56.57,0,1.33-.23,1.77C32.68,102.62,33.2,102.25,33.28,101.64Zm.47,1.15a2,2,0,0,1,0,2.45,5.84,5.84,0,0,0-.41-1.16C33.41,103.63,33.62,103.23,33.75,102.79Zm.67,1.93q.09,0,.12,0c0,.58-.31.91-.43,1.39C33.88,105.62,34.42,105.23,34.42,104.72Zm.36.91c.69.79.14,1.73-.16,2.38A2.58,2.58,0,0,1,34.78,105.63Zm.08-1.31c-.26-.66.33-1.13.41-1.71C35.67,103.19,35,103.77,34.86,104.32Zm.77-.75c.63.81-.1,1.5-.19,2.23C34.73,105,35.41,104.26,35.63,103.57Zm.44,1.31c.29.31.34,1,.57,1.39a12.78,12.78,0,0,0-.58,1.42A3,3,0,0,1,36.07,104.88Zm.91,4.9a1.75,1.75,0,0,1,0,2A1.94,1.94,0,0,1,37,109.78Zm.57,1.64c.56.69.14,1.37,0,1.94C36.92,112.71,37.37,112,37.55,111.42Zm.54,1.5c.59.68.13,1.42-.1,1.94C37.42,114.16,38,113.55,38.09,112.92Zm.52,1.45c.66.71.13,1.42-.07,2C37.93,115.69,38.38,114.93,38.61,114.37Zm.52,1.44a2,2,0,0,1,0,2.29A2.16,2.16,0,0,1,39.13,115.81Zm.63,1.69a4.58,4.58,0,0,1,.48,1.24c0,.47-.44.84-.46,1.25a6.56,6.56,0,0,1-.49-1.3C39.28,118.22,39.73,117.89,39.76,117.5Zm.71,2.08a4.58,4.58,0,0,1,.58,1.43c0,.47-.43.75-.43,1.14a3.7,3.7,0,0,1-.56-1.39C40,120.3,40.47,120,40.47,119.58Zm.79,2.17a11.76,11.76,0,0,1,.75,1.76,12.07,12.07,0,0,1,.63,1.68c0,.52-.47.82-.45,1.3a15.29,15.29,0,0,1-.71-1.83,9.16,9.16,0,0,1-.66-1.83C40.79,122.38,41.18,122.11,41.26,121.75Zm1.57,4.08a1.57,1.57,0,0,1-.25,2.18C42.11,127.05,42.66,126.51,42.83,125.83Zm.13-1.28a9.93,9.93,0,0,1-.72-1.67,8.14,8.14,0,0,1-.65-1.78c0-.49.47-.76.47-1.19.13.66,1.24,2.65,1.28,3.51C43.37,123.89,43,124.14,43,124.55Zm.58-.44a1.7,1.7,0,0,1,0,2.07A1.73,1.73,0,0,1,43.54,124.11Zm.07-1.37c-.16-.54-.36-1.12-.59-1.74a8.1,8.1,0,0,1-.63-1.69c0-.44.4-.71.43-1.13.47,1.11.85,2.37,1.29,3.52C43.91,122,43.89,122.46,43.61,122.74Zm.64-.4a1.83,1.83,0,0,1,.1,2.11A1.76,1.76,0,0,1,44.25,122.34Zm0-4.2a8.8,8.8,0,0,1-.59-1.75c0-.64.61-1.08.63-1.64.12.75,1.12,2.6,1.16,3.44,0,.63-.54,1-.53,1.57A11,11,0,0,1,44.22,118.14Zm.5,3c.18.42.56,1.08.37,1.48C44.87,122.28,44.52,121.55,44.72,121.15Zm.32-.69c.13-.55.39-1,.55-1.53.77,1,.25,1.92-.09,2.67C45.29,121.3,45.23,120.78,45,120.46Zm.35,2.57c.72,2,1.57,4.07,2.23,5.91q-1.27-2.7-2.35-5.73C45.37,123.19,45.27,123,45.39,123Zm.92.89a9,9,0,0,1-.62-1.63c0-.53.53-1,.53-1.42.87,2,1.52,4.42,2.4,6.45-.09.51-.35.92-.42,1.44A49.14,49.14,0,0,1,46.31,123.92ZM48.82,128a4.73,4.73,0,0,1,.31.72,1.28,1.28,0,0,1-.56.06C48.66,128.53,48.74,128.27,48.82,128Zm.1-1.42c-.57-1.33-1.22-3.19-1.78-4.82a9.51,9.51,0,0,1-.57-1.64c0-.52.54-1,.53-1.42.8,2.15,1.45,4.54,2.24,6.69A8.79,8.79,0,0,0,48.92,126.58Zm.56-.54c.61.68.15,1.5.05,2.12C48.9,127.47,49.25,126.65,49.48,126Zm.54,1.55c.25.1.23.63.4.85l-.7.15C49.75,128.21,50,128,50,127.59Zm.61-1.75a2.33,2.33,0,0,1,.26,2.39A2.35,2.35,0,0,1,50.63,125.84Zm1.53-.18c.61.77.18,1.79,0,2.41A2.6,2.6,0,0,1,52.16,125.66ZM60,82.56c.35.13.15.7.29,1.08C59.83,83.58,60.1,83,60,82.56Zm.35-2.42c-.23,0-.21-.37-.29-.61A.45.45,0,0,1,60.32,80.14Zm0,.82c-.13,0-.1-.34-.16-.48C60.45,80.45,60.35,80.8,60.35,81Zm-.28.9c-.25-.11-.14-.61-.18-.85C60.1,81.12,60,81.58,60.07,81.86Zm.31,3.52c-.38-.18-.19-.77-.31-1.18C60.49,84.28,60.28,85,60.38,85.38Zm-.16.5c.36.17.23.8.31,1.18C60.13,87,60.3,86.26,60.22,85.88Zm.16-8.1a6.67,6.67,0,0,1-.61-.43c0-.15.09-.2.08-.33A.7.7,0,0,1,60.38,77.78Zm-.28-1.29c0-.13.12-.18.08-.33.24,0,.19.3.22.53C60.24,76.72,60.23,76.52,60.1,76.49Zm.26,2.6c-.41-.08-.59-.51-.66-1.1C60.06,78.22,60.45,78.49,60.36,79.09ZM57.69,90.23C55.88,94.42,54,98.68,52.51,103c-.1-.5-.52-.9-.55-1.54a7.2,7.2,0,0,1,.68-1.92c1.75-4.21,3.76-8.8,5.52-12.81C58.7,88.15,58.18,89.11,57.69,90.23Zm.47-4a9.7,9.7,0,0,1-.92,1.76c-1.85,3.58-3.22,7.3-4.77,11-.13.31-.31.57-.44.88s-.09.66-.39.81a4.89,4.89,0,0,1,.57-2.15c1.69-4.89,3.55-9.83,5.44-14.66a4.16,4.16,0,0,0-1,1.78c-2,4.51-3.73,9.46-5.32,14.22a11.2,11.2,0,0,0-3.45-3.15c1-2.49,2.22-4.84,3.12-7.39,0,0,0-.06,0-.11a38.48,38.48,0,0,0-2.77,5.65c-.13.31-.26.6-.37.92s-.16.6-.41.76c-.18-.35.12-.72.24-1,.94-2.42,2.28-4.88,3.12-7.39,3.23-1.82,4.58-4.75,6.83-7.11.1,1.3.23,2.56.38,3.92A5.91,5.91,0,0,1,58.16,86.18ZM47,96.32a4.61,4.61,0,0,0-.87.08c.89-2.48,1.93-4.85,3-7.21.6-.27,1-.65,1.56-1C49.46,90.78,48,93.52,47,96.32Zm-1.45.27c-.31.11-.45,0-.72,0a72.38,72.38,0,0,1,2.75-6.73,6,6,0,0,0,1-.43c.08,0,.1,0,.13.08A68.55,68.55,0,0,0,45.5,96.59Zm1.11-5.66c-.84,1.79-1.67,3.87-2.38,5.78l-.65.14a64.84,64.84,0,0,1,2.55-6.44,4.51,4.51,0,0,0,.73-.21C47,90.36,46.73,90.66,46.61,90.93Zm-1.17.36A48.76,48.76,0,0,0,43,97a2.12,2.12,0,0,0-.63.2q1.11-3.33,2.43-6.52a3.45,3.45,0,0,0,.85-.13C45.77,90.69,45.57,91,45.44,91.29Zm-.81,6.58c.21,0,.62-.13,1-.16a5,5,0,0,1,2.87,1,4.86,4.86,0,0,1,1.25,1.23c.47.61,1.24,1.48.91,2.25.18.14.17-.38.36-.24.3.82-.34,1.37-.31,2.15a10.36,10.36,0,0,1,.65-1.34,2.87,2.87,0,0,1,.09,2.79c.06.14.09-.07.2,0a7.61,7.61,0,0,1-.62,2A5.33,5.33,0,0,1,50,109a12.46,12.46,0,0,1-1.33.61,5.61,5.61,0,0,1-2.39.94c-.17,0,0-.19-.17-.28-.42,0-.47.26-.69.41a5.67,5.67,0,0,0-1.26-.09c0-.31.22-.48.12-.86-.49.11-.38.61-.7.83,0-.06-.14,0-.21,0-.36-.48-.37-1.5-.74-2-.29.23.06.66,0,1s-.24.45-.26.68c-.3-.24-.75-.25-.9-.74-.27,0-.39-.26-.56-.45.11-.56.4-1,.49-1.56a3.28,3.28,0,0,0-.7,1.3c-.25-.35-.75-.51-.83-.91s.39-.71.32-1.17c-.33,0-.29.7-.58.91-.12-.1-.17-.31-.3-.4.13-.54.49-.91.5-1.52-.38.21-.41.65-.62,1a2.73,2.73,0,0,1-.17-2c0-.17-.2.14-.21,0C39,101.43,40.69,98.38,44.63,97.87Zm-6.06,2c-.62-1-.16-1.72.09-2.47A2,2,0,0,1,38.57,99.87Zm-.84-2.16c-.37-.79.26-1.21.39-1.81.14.16.18.48.3.67C38.2,97,38,97.34,37.73,97.71Zm-.38-1.06c-.16-.44-.49-.75-.51-1.14s.49-1,.52-1.42a3.87,3.87,0,0,1,.53,1.24C37.91,95.83,37.38,96.22,37.35,96.65Zm-1.39-3c-.38-.61-.29-.75,0-1.35.15-.33.11-.78.67-.77C36.8,92.48,36.28,93,36,93.62Zm-.46-1.15c-.22-.15-.29-.53-.39-.85a5,5,0,0,1,.77,0C35.81,91.93,35.58,92.15,35.5,92.47Zm-.58,1.17c-.21-.53-1-2-.13-2C35.11,92.4,35.43,93.08,34.92,93.64ZM34.28,95a8.45,8.45,0,0,0-.5-1.29c.08-.38.27-.68.35-1.07C34.55,93.42,34.93,94.46,34.28,95Zm-.72-2.08a3.48,3.48,0,0,1-.37-1.48,6.75,6.75,0,0,1,.8.09C34,92.08,33.69,92.42,33.56,92.89Zm-.21.46c0,.57-.5,1-.55,1.53-.8-1.07-.19-1.9.13-2.73C33,92.63,33.32,93,33.35,93.35Zm-1.18-.41c-.52-.74-.36-2.18.58-1.64A7.24,7.24,0,0,1,32.17,92.94Zm-.09,1.27c.27.24.31.85.52,1.18a13.32,13.32,0,0,0-.52,1.42c-.27-.27-.32-.84-.52-1.19C31.74,95.15,31.94,94.7,32.08,94.21Zm-.72.72c-.76-1,.06-1.73.27-2.55C32.2,93.48,31.62,94.22,31.36,94.93Zm-.66-1.57c-.08-.53-.43-.93-.45-1.35s.37-.83.4-1.24c.29,0,.47.2.77.2C31.63,92.05,31,92.59,30.7,93.36ZM30,91.28c0-.34-.19-.51-.24-.83.25,0,.31.18.55.14A1.19,1.19,0,0,1,30,91.28Zm-.15.5a8.36,8.36,0,0,1-.64,1.39c-.61-1.11-.05-1.82.09-2.68-.35.09-.46.7-.59,1.07A2.68,2.68,0,0,1,28.31,90a8,8,0,0,1,1.11.34C29.56,90.84,29.67,91.36,29.84,91.78Zm-2.31,6.85A11.64,11.64,0,0,1,28,100,3.85,3.85,0,0,1,27.53,98.63Zm.16,5.48a.69.69,0,0,1-.18-.33C27.69,103.7,27.62,104,27.69,104.11ZM28.14,94c.22-.55.36-1,.51-1.46.2.25.25.72.43,1-.31.94-.75,1.8-1.07,2.73C27.38,95.36,27.81,94.86,28.14,94Zm.82,9c.14.09.12.44.19.64C29,103.68,28.93,103.18,29,103.05Zm1.09-6.68c.84,1.3-.62,2.6-.79,3.76C28.46,98.64,29.83,97.54,30.05,96.37Zm0,3.11c.21-.54.41-1,.55-1.52.85,1,.29,1.77-.08,2.72-.23.58-.42,1.13-.59,1.59C29.24,101.07,29.69,100.42,30.06,99.48Zm1.29.45c.72.84.13,1.7-.22,2.55-.25.6-.52,1.13-.69,1.6-.16-.21-.16-.68-.31-.92C30.53,102.08,31,101.05,31.35,99.93Zm-.05,3.34c.28-.68.45-1.25.66-1.76.83,1.1.17,1.94-.2,2.91-.25.65-.43,1.25-.6,1.8C30.33,104.94,30.87,104.32,31.3,103.27Zm1.38.11c.41.69-.18,1.74-.42,2.38a13.39,13.39,0,0,1-.76,1.78,1.5,1.5,0,0,0-.17-.53C31.79,105.81,32.23,104.59,32.68,103.38Zm-.27,3.08c.3-.75.46-1.37.68-1.91a1.86,1.86,0,0,1,.19,2.08,26.87,26.87,0,0,0-1,2.93C31.38,108.31,32,107.53,32.41,106.46Zm.12,8.66a5.56,5.56,0,0,1-.46-1.41A6.84,6.84,0,0,1,32.53,115.12Zm-.05-4.78c-.13-.67.34-1.29.58-1.89s.47-1.36.75-2c.06,0,0,.09.12.07C33.5,107.81,33,109.05,32.48,110.34Zm.94-1.19c.26-.7.55-1.33.72-1.92.86,1,0,2.21-.24,3.17s-.44,1.6-.65,2.27a5.81,5.81,0,0,1-.54-1.54A7.75,7.75,0,0,1,33.42,109.15Zm.44,2.77c.48-1.59,1.08-3.28,1.5-4.8.72.9.26,1.71-.06,2.56-.55,1.46-1.22,3.06-1.63,4.46C33.24,113.46,33.64,112.65,33.86,111.92Zm.56,1.59c.5-1.47,1.19-3.17,1.62-4.51.41.33-.18.91.25,1.4-.68,1.84-1.42,3.64-2.08,5.5C33.66,115,34.14,114.32,34.42,113.51Zm2-2.26c.63.81.17,1.56-.12,2.32-.5,1.34-1.07,2.84-1.61,4a3.58,3.58,0,0,0-.29-.82C35.06,114.93,35.82,113.14,36.42,111.25Zm-1,5.78c.48-1.3,1.13-2.81,1.51-4,.63.77.11,1.47-.14,2.21a39.88,39.88,0,0,1-1.49,4.13C34.83,118.44,35.14,117.85,35.45,117Zm2.07-2.43c.5.72,0,1.31-.25,2-.49,1.27-1,2.66-1.43,3.91-.18-.07-.17-.41-.28-.57A43.7,43.7,0,0,0,37.52,114.6Zm-1,5.33c.48-1.32,1-2.83,1.48-4,.58.78.19,1.46-.09,2.21-.48,1.28-1,2.76-1.55,3.87C35.86,121.18,36.22,120.7,36.49,119.93Zm.58,1.43c.48-1.22,1.07-2.76,1.45-3.85.65.87.16,1.47-.15,2.22-.49,1.19-1,2.57-1.43,3.69C36.29,122.75,36.78,122.09,37.07,121.36Zm.52,1.45c.49-1.16,1.08-2.69,1.48-3.71a5.09,5.09,0,0,1,.48,1.25,8,8,0,0,1-.92,2.44c-.37.89-.64,1.71-.93,2.44a4,4,0,0,1-.58-1.23A4.36,4.36,0,0,1,37.59,122.81Zm2,2.47a20.44,20.44,0,0,0,.95-2.08,9.12,9.12,0,0,1,.81,1.8,11.46,11.46,0,0,1,.68,1.73c0,.36-.27.8-.37,1.12a7.33,7.33,0,0,1-.38,1.12c-.6-.18-2.46-.84-2.55-1.68A7.85,7.85,0,0,1,39.59,125.28Zm2.65,2.13c.22.16.26.62.4.9a4.4,4.4,0,0,1,.81-1.06c.3.62.54,1.33.84,1.95a5.8,5.8,0,0,1-2.61,0C41.81,128.54,42.08,128,42.24,127.41Zm1.5-.74c0-.41.37-.6.41-1,.56,1,1,2.3,1.48,3.43a5.52,5.52,0,0,1-.87.08C44.69,128.46,43.78,127.37,43.74,126.67Zm1.41,0c-.47-1.15-.84-1.8-.26-2.59.77,1.55,1.39,3.33,2.12,4.94a3.94,3.94,0,0,1-.67,0c-.14-.16-.08-.3-.22-.52s-.24-.18-.32-.29A10.68,10.68,0,0,1,45.15,126.67Zm7.06,5.69c-.1.35-.84.3-1.17.36-.61.1-1.25.28-1.8.34,0-.12-.18-.12-.21-.27C50,132.8,51.25,132.35,52.21,132.36Zm-.87-1.84c-.21,0,.16-.33,0-.62l2.18-.47a1.48,1.48,0,0,1,.23.57Zm2-2.66c-.15-.32-.19-.82-.35-1.12,2.45-7.35,5.19-14.49,7.55-21.89.6,1.69-.18,3-.62,4.3-1.55,4.53-3,9-4.67,13.4-.49,1.33-1,2.61-1.42,4A4.16,4.16,0,0,1,53.31,127.86Zm6.71-1c.15.16,0,.51.11.76-.41.12-.61.67-1,.89a5.45,5.45,0,0,1-1.28.33c-1.24.33-2.66.87-3.93,1.07a1.49,1.49,0,0,0-.17-.54A17.07,17.07,0,0,0,60,126.91Zm-1.62-.53a7.26,7.26,0,0,1-3,1c-.12-.34.19-.63.32-.9A97,97,0,0,0,61.34,111c.35,3.55,1.19,8.15.41,11.2a5,5,0,0,1-1.14,2.38A6.52,6.52,0,0,1,58.4,126.38Zm3.38-39.07a1.67,1.67,0,0,1,.82,1.59A1.52,1.52,0,0,1,61.78,87.31Zm-.17-1.73a1.59,1.59,0,0,1,.77,1.6A1.51,1.51,0,0,1,61.61,85.58Zm.6-.13a1.44,1.44,0,0,1-.77-1.4A1.37,1.37,0,0,1,62.21,85.45Zm-.14-1.58a1.27,1.27,0,0,1-.61-1.64c-.21-.19-.2-.6-.2-.89.23.06.32.35.56.4,0-.59-.74-.59-.64-1.27a3.12,3.12,0,0,1,.68.53C61.93,82,62,82.9,62.07,83.87Zm1.09-28.64a61.48,61.48,0,0,1-1.54,11.31c-.45,1.78-1,3.49-1.46,5.21a27.56,27.56,0,0,1-1.77,5c-.74,1.58-1.5,3.17-2.37,4.63a18.74,18.74,0,0,1-3.52,3.89,20.67,20.67,0,0,1-4.26,3.37c-.2.07,0-.11-.11-.24A6.91,6.91,0,0,1,45.22,90c-.22-.15.29-.55.28-.84-.56.2-.61.71-.91,1.08a2,2,0,0,0-.94.47c.15.15.45,0,.73,0-.87,2.15-1.74,4.29-2.48,6.52a4.68,4.68,0,0,0-1,.37c.68-2.54,1.85-4.76,2.7-7.2a4.54,4.54,0,0,0-1,1.73,25.27,25.27,0,0,0-2.17,5.78,10.54,10.54,0,0,0-1,.73c.83-2.58,1.85-5,2.65-7.65a13.16,13.16,0,0,0-1.53,3.46c-.44,1.19-.89,2.41-1.3,3.61-.71-1-.28-1.85,0-2.76.52-1.51,1.23-3.15,1.6-4.62-1.25,1.56-1.5,3.76-2.37,5.56-.53-.87.15-1.77.44-2.48s.48-1.24.65-1.81c-.84.64-1,2.1-1.63,3a2.11,2.11,0,0,1-.09-2.32c-.34.17-.28.58-.56.79a1.92,1.92,0,0,1-.05-2.12c.25-.22.91,0,.9-.4-.08-.24-.42-.11-.65-.12s.09-.23-.11-.29-.09.26-.31.28c-1.16-.16-2.38-.24-3.56-.37-.14-.08,0-.21-.09-.4-.28,0-.11.3-.34.34a.86.86,0,0,1-.55-.4c-.17,0,0,.25-.16.24,0-.12,0-.17,0-.31s-.16.21-.36.24a6.79,6.79,0,0,1-2.07-.9c-.4-.24-.71-.3-.86-.86-.07.06-.08.15,0,.28-.61-.22-1.11-.63-1.7-.88,1.21-1.48,1.62-3.46,2.53-5.13,2.42,1,4.38,3,7.72,2.53.85-.13,1.61-.33,2.6-.52.28,0-.23.39.07.56.29-.14.27-.48.47-.68,1.31-.37,2.77-.48,4.12-.9a11.21,11.21,0,0,0,3.94-2.47,17.11,17.11,0,0,0,4.67-7c2.54-6.54,5.36-13.4,7.92-19.72.06,0,0,.05,0,.05-.25,2.34-.1,4.55-.87,6.53-2,5.2-4,10.33-6.44,15.3a3.36,3.36,0,0,0-.55,1.31c.4,0,.47-.54.61-.81,1.08-2.14,2.28-4.35,3.28-6.64,1.14-2.61,2.17-5.31,3.15-8a49.14,49.14,0,0,1-5.92,18.15c3-3.14,4.47-7.15,5.66-11.49a79.84,79.84,0,0,0,1.71-10.26c.15-1.1.87-2,1-3.12-.37.19-.52.89-.75,1.31.13-1.91.22-4.23.15-6.48,0-1.35-.18-2.49.35-3.41A27.59,27.59,0,0,1,63.16,55.23Zm-.74-7.9c-.18-.3,0-.77-.15-1.17.25,0,.36.25.55.35C62.82,46.87,62.52,47,62.42,47.33Zm-.15-1.89a4.76,4.76,0,0,1,0-1.3c.53.16.42,1,.49,1.55C62.57,45.63,62.44,45.5,62.27,45.44Zm.24-1.77c-.13,0-.13-.2-.33-.09,0-.58-.28-1.37,0-1.81A10.31,10.31,0,0,1,62.51,43.67Zm-.81-3.94c.17.51.53,1.51.26,1.88C61.78,41.09,61.45,40.11,61.7,39.73Zm-.54-2.27c.19.53.65,1.65.35,2.11C61.35,38.91,60.9,38,61.16,37.46Zm-.69-2.66c.28.6.79,2,.44,2.51C60.69,36.48,60.1,35.41,60.47,34.8Zm-.29-1.34c.14.49.28,1-.11,1.17A54.9,54.9,0,0,0,58,28.54a3.22,3.22,0,0,1,.79.29C59.23,30.09,59.76,32.05,60.18,33.46ZM58.6,27.15c-.22-.15-.29-.53-.4-.85C58.43,26.44,58.47,26.85,58.6,27.15Zm-.14,1.07-.66-.17a9.6,9.6,0,0,1-.35-.91A1.37,1.37,0,0,1,58.46,28.22Zm-.52-2.64c-.32-.11-.62-.23-.72-.68C57.49,25.08,57.84,25.12,57.94,25.58Zm-2-1.91c0-.22-.18-.29-.22-.53.51.37,1,.67,1.54,1.07A7.34,7.34,0,0,0,56,23.67Zm.68-.72c-.38,0-.79-.5-1.27-.56a1.84,1.84,0,0,1-.22-.53A3.48,3.48,0,0,1,56.64,23Zm-.91-1.52c0,.16-.39,0-.41-.23-.31.05-.45-.18-.72-.2-.13-.31-.31-.54-.44-.84A5,5,0,0,1,55.73,21.43Zm-2-2.47c.38.38.89.56,1.21,1a2.6,2.6,0,0,0-1.08-.44A.64.64,0,0,1,53.69,19Zm-.07-.09s0,.05,0,.06,0,0,0,.06-.16-.19-.23-.31C53.46,18.67,53.48,18.87,53.62,18.87ZM53.27,18c-.19-.1-.4-.17-.5-.41C53.05,17.56,53.14,17.82,53.27,18Zm-.78,1.16c.2.15.28.48.46.68-.84,2-1.62,4.08-2.41,6.14-.42-.56.07-1.2.25-1.71C51.38,22.61,51.88,20.85,52.49,19.17ZM50,24.71c-.56-1-.11-1.58.15-2.43.44-1.44.91-3.13,1.38-4.41.35.13.49.6.76.88C51.44,20.68,50.82,22.75,50,24.71Zm2.09-8.06c-.36-.17-.58-.56-.86-.85A3.34,3.34,0,0,1,52.09,16.65Zm-.74.89a43.36,43.36,0,0,0-2,5.37c-.57-.73-.19-1.31.07-2,.44-1.22,1-2.73,1.3-3.82C51.05,17.07,51.13,17.42,51.35,17.54ZM48.8,21.38c-.85-.95-.09-2.11.22-3.07s.55-1.54.77-2.19a1.68,1.68,0,0,1,.77.66A38.36,38.36,0,0,0,48.8,21.38Zm1.53-5.9c-.28-.15-1-.51-1.13-.9C49.73,14.63,49.9,15.25,50.33,15.48ZM49.08,9a9,9,0,0,1,.05,1.45c-.13-.33-.14-1.06-.4-1.37Zm-.67-5.47A14.08,14.08,0,0,1,48.57,5c-.26.06-.41-.07-.64-.06a3,3,0,0,0-.36-1.17C47.74,3.66,48.14,3.66,48.41,3.57ZM44.88,1.48A5.57,5.57,0,0,0,45.32,3L45,3.07c-.1-.58-.27-1-.4-1.57C44.69,1.47,44.74,1.55,44.88,1.48Zm-1-.1c.27.18.24.72.3,1.13,0,.24.26.62,0,.73a9.65,9.65,0,0,1-.4-1.84ZM43.39,2a12.88,12.88,0,0,0,.23,1.31l-.4.08a8.27,8.27,0,0,0-.38-1.27C42.91,2,43.18,2.13,43.39,2ZM43.24,5.9c0,.11-.27.08-.38.13-.18-.48-.6-.57-.92-.84C42.36,5.19,42.8,5.73,43.24,5.9Zm-1-4.15.39,1.78-.5.11C41.71,3.11,41.29,1.27,42.24,1.75Zm.08,4.45-.5.11c-.26-.43-.7-.59-1-1C41.47,5.39,41.81,5.93,42.32,6.2Zm-5.73,0c0-.12.27-.08.39-.14a9.4,9.4,0,0,0,1.33,1.12C37.51,7.43,37.19,6.39,36.59,6.15Zm.67,1.15c0,.13-.31.09-.44.15C36.45,7,36,6.73,35.57,6.26l.35-.07A5.87,5.87,0,0,0,37.26,7.3Zm.41-1.44.1,0c.66.17,1.06.75,1.6,1.11l-.6.13C38.5,6.52,38,6.31,37.67,5.86Zm1-.12c.72-.23,1.05.71,1.64.89,0,.13-.34.1-.48.16A9.49,9.49,0,0,0,38.69,5.74Zm1.1-.18c0-.06.05-.06.09-.07.53.17.86.64,1.34.9-.07.14-.31.17-.53.22C40.57,6,40.13,5.84,39.79,5.56Zm1.33-3.21a8.17,8.17,0,0,0,.35,1.38c-.12.15-.42.12-.59.13-.16-.6-.53-.86-.57-1.64A.9.9,0,0,0,41.12,2.35ZM39.7,2.3c.35.35.17,1.14.46,1.61a1.62,1.62,0,0,1-.57,0,7.49,7.49,0,0,1-.29-1.09A.54.54,0,0,0,39.7,2.3ZM39,4l-.59.13c-.13-.48-.29-.92-.42-1.41C38.88,2.33,38.86,3.32,39,4ZM36.54,3c.38,0,.71.4,1.1.07.06.43.22.68.29,1.08-.83.16-1.61.25-2.45.43a4.75,4.75,0,0,1-.3-1.13C35.76,3.68,36,3.07,36.54,3Zm-.31,4.54-.35.08C35.47,7.23,35,7,34.62,6.42,35.27,6.58,35.8,7.29,36.23,7.58Zm-.91.15c-.12.14-.51.13-.73.21-.42-.41-.85-.81-1.26-1.24.12-.14.44,0,.69-.15A6.88,6.88,0,0,0,35.32,7.73Zm-.77-4.26c.28.19.23.89.38,1.27l-.35.08A1.14,1.14,0,0,1,34.55,3.47Zm-.65.62a3.16,3.16,0,0,0,.13.8l-.5.11c-.11-.44-.29-.75-.37-1.22C33.41,3.88,33.58,4.09,33.9,4.09Zm-1,.11c.06.3.12.6.19.89l-.3.07a5.23,5.23,0,0,1-.3-.92C32.62,4.21,32.8,4.14,32.89,4.2Zm-1-.1c.09.4.17.79.26,1.19l-.4.08a9.57,9.57,0,0,1-.37-1.21C31.59,4.13,31.82,4,31.93,4.1Zm.89,2.66A13.76,13.76,0,0,0,34,8.06c-1.16.25-2.49.49-3.83.78s-2.4.73-2.79-.12c1.29-.31,2.59-.8,3.73-1.07a26.27,26.27,0,0,0-4.34.63c-.14-.1-.23-.27-.39-.33C28.46,7.44,30.71,7.18,32.82,6.76ZM21.69,10.08a3.94,3.94,0,0,1,1-.28,1.82,1.82,0,0,1,.65.59l-1.14.25A4.82,4.82,0,0,0,21.69,10.08Zm.28.61c-2.35.63-4.89,1.15-7.48,1.69-.5.1-1,.22-1.11-.34,1.6-.39,3.72-.79,5.42-1.38a9.41,9.41,0,0,1,2.53-.56C21.61,10.14,21.77,10.45,22,10.69ZM23.3,9.62l.75-.16a6.5,6.5,0,0,1,.66.63l-.85.19C23.68,10.06,23.43,9.94,23.3,9.62Zm.54-1.11c.11-.14.48-.12.68-.2a1.18,1.18,0,0,1,.24.37l-.64.14A.93.93,0,0,0,23.84,8.51Zm.81.87c.08-.14.41-.11.59-.18.2.18.38.39.59.55a1.24,1.24,0,0,1-.58.22C25,9.79,24.87,9.55,24.65,9.38Zm.72-.78a2,2,0,0,1-.3-.4l.7-.16c.05.21.24.2.29.4Zm1.26.29c.18.21.59.42.65.59l-.85.19a4.37,4.37,0,0,0-.59-.55C26,9,26.39,9,26.63,8.89Zm4.31-4.57a5.65,5.65,0,0,0,.31,1.18l-.5.1c0-.36-.18-.21-.25-.2-.17-.27-.27-.66-.42-1C30.37,4.4,30.68,4.52,30.94,4.32Zm-1.31.23c.19.35.28.84.47,1.2-.28,0-.56.12-.84.18,0-.46-.5-.55-.55-1.08C28.86,4.65,29.31,4.64,29.63,4.55Zm-2.69.53c.27.28.2,1.11.62,1.17.45-.22-.09-.82-.2-1.15a1.21,1.21,0,0,1,1-.11c.12.36.26.69.38,1.06l-2.23.49a10,10,0,0,1-.43-1C26.53,5.65,26.6,5.19,26.94,5.08Zm-1.29.28c.22.33.29.88.52,1.19a26.51,26.51,0,0,1-2.62.62c-.09-.44-.19-.89-.29-1.34C24,6.05,24.62,5.46,25.65,5.36ZM23.52,9l-.79.17c-.07-.14-.32-.26-.25-.41a2.83,2.83,0,0,0,.76-.12C23.31,8.74,23.45,8.79,23.52,9Zm-.82-3a7.52,7.52,0,0,1,.35,1.38,2.61,2.61,0,0,1-.81.07,6.49,6.49,0,0,0-.32-1C22.35,6.33,22.39,6,22.7,5.9Zm-.46,3.38c-.39.13-.67.07-1,.18A1.14,1.14,0,0,1,20.94,9l.94-.2C22,9,22.16,9.07,22.24,9.28ZM21.8,7.5a2.07,2.07,0,0,1-.7.1c-.15-.43-.31-.85-.45-1.31C21.61,5.8,21.57,6.87,21.8,7.5Zm-1.5-.92c.24.2.26.75.4,1.11l-.65.14a7.89,7.89,0,0,1-.31-1C20,6.82,20.22,6.75,20.3,6.58Zm-.94.21c.06.44.23.69.29,1.13L19,8.07c-.12-.47-.3-.85-.4-1.37A.79.79,0,0,1,19.36,6.79Zm-1.1.45c.25.07.18.64.3.92l-.64.14c0-.33-.17-.49-.22-.79A.69.69,0,0,0,18.26,7.24Zm-1,.15c.08.33.15.66.22,1a1.28,1.28,0,0,0-.48.16c-.11-.48-.21-1-.32-1.44A1.18,1.18,0,0,1,17.3,7.39Zm-1,.28c.26.12.11.69.22,1l-.6.13a6,6,0,0,0-.12-.8C16,7.94,16.23,7.86,16.27,7.67Zm2.88,1.76c.64-.14,1.61-.59,1.79.08-2.75.59-5.2,1.36-7.89,2-.1-.18-.28-.23-.36-.44C14.89,10.6,16.78,10,19.15,9.43Zm-8.44,2.06c.44-.19.56.13.75.35C11,12,10.89,11.7,10.71,11.49Zm0,1.65c-.1.14-.45.11-.64.19-.09-.15-.42-.28-.36-.44C10.18,12.58,10.46,13,10.76,13.14Zm.33-.6c.24.07.35.3.56.4-.36.31-.63-.09-.83-.23C10.85,12.61,11,12.61,11.09,12.54Zm.37-1.17c.06-.13.38-.1.54-.17.11.15.29.22.35.44C11.86,11.86,11.71,11.54,11.46,11.37Zm1,1.44-.44.09c-.1-.18-.28-.23-.36-.44C12.08,12.21,12.3,12.59,12.5,12.81Zm0-.52c.09-.13.25,0,.45-.1a2,2,0,0,0,.39.38c0,.13-.3.09-.43.15A1.87,1.87,0,0,1,12.49,12.29Zm2.8-4.56c.22.36,0,.76.11,1.17l-.85.19c-.06-.51-.37-.59-.37-1A.63.63,0,0,1,15.29,7.73Zm-2.06.08c.45.21.61.87.84,1.43l-.9.2C12.92,9,12.08,7.88,13.23,7.81Zm-2.77.87a1.3,1.3,0,0,1,.94-.47.74.74,0,0,0,.85.34,9.21,9.21,0,0,0,.38,1l-1,.21A10.12,10.12,0,0,1,11,8.4c-.25.38.15,1.15.33,1.49l-1,.21A5.39,5.39,0,0,0,10.46,8.68ZM10.6,12c-.31.3-.6,0-.77-.19,0-.13.31-.09.44-.15A1.07,1.07,0,0,0,10.6,12ZM10,9c0,.42-.09.72,0,1.15-.21,0-.47.15-.61.08A5.21,5.21,0,0,0,9,8.83C9.41,8.53,9.61,9.08,10,9Zm-.31,4.34c-.09.14-.44.11-.63.19-.15-.16-.35-.22-.46-.43C9.06,12.88,9.37,13.15,9.66,13.38ZM8.73,12l.5-.11c.11.14.27.19.34.39l-.49.11C9,12.19,8.81,12.15,8.73,12Zm.2-3.17c-.32.33-.1,1,0,1.61-.19,0-.22.11-.38.13-.12-.39-.23-.8-.36-1.16C8.56,9.25,8.44,8.83,8.93,8.8Zm-1,3.81c-.14-.1-.23-.27-.39-.33.11-.15.48-.13.68-.2.06.2.27.16.3.4Zm.58,1c0,.13-.27.08-.39.14-.08-.17-.4-.3-.35-.44C8.05,13.13,8.29,13.52,8.52,13.62Zm-.84.19c0,.13-.31.08-.44.15-.14-.18-.34-.27-.47-.47C7.25,13.33,7.4,13.66,7.68,13.81ZM6.75,12.4,7,12.34c.1.16.27.2.35.39C7,12.88,6.91,12.59,6.75,12.4Zm.89-3.27c.17.47.3,1,.44,1.52-.17,0-.39.13-.51.06a6,6,0,0,0-.41-1.42C7.2,9.16,7.5,9.2,7.64,9.13Zm-.85.61a5.1,5.1,0,0,1,.35,1.12,2.4,2.4,0,0,0-.74.21c-.12-.49-.28-.93-.37-1.48C6.23,9.67,6.52,10,6.79,9.74ZM4.25,14.56c-.45.34-.73-.15-1-.25C3.66,14,3.89,14.53,4.25,14.56ZM3.14,13.29c.19-.23.37.12.55.14C3.5,13.66,3.27,13.38,3.14,13.29ZM4,13.05c.35-.15.43.1.62.18C4.37,13.45,4.07,13.24,4,13.05Zm1.17,1.31c-.38.34-.55-.25-.84-.28C4.61,13.87,4.83,14.36,5.14,14.36Zm0-.52c.39-.05.55.27.86.34C5.66,14.4,5.38,14,5.13,13.84Zm.64-1.12c0-.16.23-.14.38-.19.1.16.3.16.34.39C6.1,13.1,6,12.79,5.77,12.72Zm1,1.34c-.37.08-.44-.32-.71-.41A1,1,0,0,1,6.74,14.06ZM5.46,9.61c.3.31.18,1.05.4,1.58l-.25.05c-.34-.05-.38-.56-.52-.93A1.12,1.12,0,0,0,5.46,9.61Zm0,3.43c-.21.26-.38-.11-.55-.14C5.13,12.65,5.33,13,5.48,13ZM4.7,10.19A3.52,3.52,0,0,1,5,11.43c-.31-.23-.34-.93-.55-1.33C4.53,10.1,4.61,10.17,4.7,10.19Zm-.88,0c0,.54.3.73.41,1.16-.19.11-.33.5-.88.5L3,10.35Zm-1,3.55c-.35.16-.39-.18-.62-.22C2.38,13.27,2.65,13.57,2.77,13.73Zm-.26,1.2-.2.05c0-.08,0-.17-.05-.25S2.48,14.79,2.51,14.93Zm-.26,1.41c0-.06,0-.13,0-.15,4.94-.61,10-1.83,15.12-2.94,3.85-.84,7.67-1.63,11.38-2.64,1.2-.33,2.4-.7,3.58-1,1.36-.33,2.75-.49,4.1-.79,3.91-.85,8-1.15,12.11-2.17a3.4,3.4,0,0,1,.16,1.47,90.67,90.67,0,0,0-11.41,2L25.79,12.67c-3.79.82-7.65,1.82-11.49,2.66A99.07,99.07,0,0,0,3,18.16,9.48,9.48,0,0,1,2.25,16.34Zm1.31,4.09A6.89,6.89,0,0,1,3,19c11.74-2.51,23.26-5.37,35-7.69a11.62,11.62,0,0,0,0,1.76c-2.07.36-4.11.85-6.12,1.29s-4,.61-5.92,1C18.59,17,11.24,18.84,3.56,20.43Zm1.3,1.69c.16,0,.27,0,.46-.05a3.84,3.84,0,0,1,.36.7c-.89.17-1.18-.6-1.53-1.27A1.82,1.82,0,0,1,4.86,22.12Zm-.05-.72.29-.06a1.35,1.35,0,0,0,.16.48C5,21.92,5,21.57,4.81,21.4Zm.79-.17.3-.06c0,.2.13.45,0,.53S5.66,21.43,5.6,21.23ZM3.8,26.57a1,1,0,0,1-.15.76C3.58,27.17,3.77,26.8,3.8,26.57ZM3.52,39.84a1.14,1.14,0,0,1,0-.89A1.06,1.06,0,0,1,3.52,39.84Zm0-1.51c-.08-.46,0-1.16,0-1.76A4.3,4.3,0,0,1,3.51,38.33Zm0-10.08A2.42,2.42,0,0,1,3,29.82,3,3,0,0,1,3.49,28.25Zm-.22,4c-.07-.13,0-.51,0-.73C3.39,31.48,3.32,32.06,3.27,32.24Zm-.15-2.15c0,.48-.12,1.47-.52,1.68A2.73,2.73,0,0,1,3.12,30.09Zm-.11,5c.05,0,0,0,0-.06s0,.61,0,.53A2.46,2.46,0,0,0,3,35.11Zm-.17-2.92a2.19,2.19,0,0,1-.45,1.5C2.36,33.24,2.39,32.46,2.84,32.19Zm-.19,1.75a2.61,2.61,0,0,1-.41,1.91A2.57,2.57,0,0,1,2.65,33.94Zm0,1.89A2.68,2.68,0,0,1,2.29,38,2.41,2.41,0,0,1,2.6,35.83Zm0,2.17a4.13,4.13,0,0,1-.18,2.74A3.72,3.72,0,0,1,2.65,38Zm.17,3.86a3.68,3.68,0,0,1-.1,1.9A2.78,2.78,0,0,1,2.82,41.86ZM2.92,44a1.84,1.84,0,0,1,0,1.31A1.43,1.43,0,0,1,2.92,44Zm.23,2.76c-.17-.31-.32-1-.1-1.17A2.14,2.14,0,0,1,3.15,46.73Zm0-12.58a3.7,3.7,0,0,1,0-1C3.29,33.38,3.15,33.85,3.12,34.15Zm.12,13a2.24,2.24,0,0,1,.22,1A2.11,2.11,0,0,1,3.24,47.13Zm.33-6.84a2.64,2.64,0,0,1-.07,1.58A3,3,0,0,1,3.57,40.29Zm0,8.49c.06-.15.1.28.14.39S3.59,48.88,3.55,48.78Zm.16-5.45a1.31,1.31,0,0,1-.12-1C3.79,42.42,3.68,43.05,3.71,43.33Zm.1,2.58c.16.17.1.37.11.5C4,47,3.87,46.36,3.81,45.91ZM4,26.15c.11-.47.54-.74.74-1.15.13.32-.2,1-.45,1.25C4.21,26.22,4.2,26.06,4,26.15Zm1.1,17.92A82.35,82.35,0,0,1,5,29.54a24.6,24.6,0,0,1,1.1-5.45.27.27,0,0,1,.12-.18l.59-.13c-.29,1.9-.65,3.81-.92,5.77A9,9,0,0,1,5.41,32c0,.23.28.23.14.39-.08,1.33-.27,2.75-.34,4.18s.06,3-.12,4.24a18,18,0,0,1,.35,2.78C5.32,43.73,5.25,44.25,5.12,44.07Zm.06.76c.05-.15.27-.2.29-.37a2.88,2.88,0,0,1,0,1.88C5.22,45.91,5.33,45.34,5.18,44.83Zm.61,3.46a1.87,1.87,0,0,1-.08-1.54A1.91,1.91,0,0,1,5.79,48.29Zm.49,2.49A4.72,4.72,0,0,1,6,48.72,3.54,3.54,0,0,1,6.28,50.78Zm.66-7c.67-1.58,1.58-3.39,2.29-4.77.13,1.17.76,2.24.68,3.34a8,8,0,0,1-.77,1.73c-.75,1.74-1.39,3.58-2.25,5.17,0-.55-.3-1.07-.26-1.66a7,7,0,0,1,.77-1.73c.53-1.23,1-2.3,1.47-3.49a5.9,5.9,0,0,0,.62-1.7c-.28,0-.39.42-.49.63-.81,1.7-1.63,3.67-2.46,5.42A3.55,3.55,0,0,1,6.94,43.83Zm-.25,8.84c-.15-.36-.41-1.17-.22-1.46C6.6,51.4,6.87,52.4,6.69,52.67Zm.45,1.83c-.15-.31-.42-.92-.21-1.21A2.2,2.2,0,0,1,7.14,54.5Zm.64-6.12C8.55,46.6,9.35,44.65,10,43a5.67,5.67,0,0,1,.36,1.42,6.94,6.94,0,0,1-.77,1.73,55,55,0,0,1-2.32,5.09C6.86,50,7.36,49.33,7.78,48.38Zm-.43,6.85a1.43,1.43,0,0,1,.21.73A1.2,1.2,0,0,1,7.35,55.23Zm.11-3.09q1.58-3.42,3-7C11,46.24,10.33,47,10,47.85c-.76,1.78-1.49,3.71-2.29,5.23C7.59,52.77,7.53,52.45,7.46,52.14ZM7.87,54c.6-1.37,1.18-2.74,1.69-4.17.09-.16.16.11.25-.06A24.28,24.28,0,0,1,11,47.56a8.05,8.05,0,0,1-.7,1.77C9.55,51.07,8.82,53,8.08,54.76,7.93,54.63,8,54.25,7.87,54Zm.55,7.52c-.14-.07-.11-.4-.18-.58S8.5,61.41,8.42,61.55Zm-.18-6c1-2.39,2-4.83,2.93-7.29.73,1.06.05,2-.35,2.88-.78,1.77-1.59,3.73-2.37,5.36Zm.62,7.62a1.67,1.67,0,0,1-.21-1C8.85,62.32,9.06,62.89,8.86,63.12ZM10,57c.77-1.81,1.55-3.79,2.25-5.43.82.89,0,1.84-.4,2.69C11,56,10.26,58.09,9.43,59.51,8.94,58.57,9.62,57.81,10,57Zm-.5,7a1,1,0,0,1,.08,1.28C9.27,64.89,9.49,64.42,9.47,64Zm.36,2.1a1.38,1.38,0,0,1-.22-.52c.12,0,.21-.1.22-.2C10,65.46,9.77,65.9,9.83,66.13Zm1-6.56c.75-1.76,1.6-3.84,2.26-5.39.67.54.5,1,.17,1.74-.9,2.1-2,4.58-2.65,6.66a3.61,3.61,0,0,1-.53-1.24C10.06,60.9,10.63,60.07,10.84,59.57Zm-.65,8.67a4.91,4.91,0,0,1,.43.79A1.24,1.24,0,0,1,10.19,68.24Zm.47.26c-.37-.42-.06-.73.14-1C10.88,67.73,10.69,68.18,10.66,68.5Zm-.31-.71a4.52,4.52,0,0,1,0-1.77c.21.22.3.64.5.87A1.84,1.84,0,0,1,10.35,67.79Zm1.14-6.44c.75-2,1.57-4.15,2.3-5.91.79.89,0,1.86-.39,2.73-.69,1.63-1.3,3.13-2,4.7-.12.28-.16.67-.44.83C10.62,63,11.23,62.06,11.49,61.35Zm-.26,6.4c.54.51,0,1.12-.13,1.59C11,68.91,11.25,68.29,11.23,67.75Zm.23,2.76c-.57-.75,0-1.29.16-1.91a.09.09,0,0,1,.11,0C11.77,69.34,11.45,69.82,11.46,70.51Zm1.14,1.88c-.92-.78-.8-2-.63-3.14C12.88,70,12.7,71.33,12.6,72.39Zm1,1.4c-.79-.54-.31-1.52-.43-2.45C13.88,71.86,13.55,73,13.58,73.79Zm.41-1c.58.42.66,1.52.79,2.43C14,74.86,14,73.76,14,72.82Zm-1.61-5c.2-.19-.06-.44-.05-.71a7.89,7.89,0,0,1,.74-1.88c.73-1.8,1.33-4.12,2.14-5.67,0,0,0-.15.11-.18.67,1.62,1.7,4,2.53,5.84a10.34,10.34,0,0,1,.83,1.91A6.16,6.16,0,0,1,18,68.83c-.76,1.73-1.45,3.37-2.05,5.13a4.55,4.55,0,0,1-.48-.77c.5-1.86,1.26-3.55,1.9-5.31-.38.2-.47.73-.63,1.13a37.41,37.41,0,0,0-1.37,4C14.3,71.35,13.41,69.48,12.38,67.81Zm3,8.18c0-.25.14-.39,0-.72.51,0,.55.85.62,1.37C15.8,76.45,15.63,76.19,15.42,76Zm3.42-8.39c.34.33.47,1,.77,1.39-.87,2.19-1.81,4.34-2.63,6.56-.32-.29-.5-.76-.8-1.08C16.92,72.1,17.9,69.86,18.84,67.6ZM16.72,77c.13,0,.2.17.27.3C16.86,77.23,16.79,77.09,16.72,77Zm.23.83c.09-.13.33.06.48,0,.2.69.82.72.95,1.51C17.87,78.89,17.45,78.28,17,77.79Zm1.4-.25A5.17,5.17,0,0,1,18.9,76c.62-1.45,1.45-3.26,1.93-4.52.25.33.44.78.67,1.15-.92,1.84-1.69,3.78-2.5,5.7C18.84,78.1,18.41,77.85,18.35,77.54ZM19,83.79a1.43,1.43,0,0,1-.18-1.32C19.46,82.7,19.17,83.34,19,83.79Zm.45-.31c.41.39-.07.83-.09,1.22C19,84.35,19.48,83.86,19.49,83.48Zm.43,1c.63.47,0,1.13,0,1.66C19.41,85.59,19.76,85,19.92,84.48Zm.18,2.25a8.46,8.46,0,0,0,.4-1c.56.49-.06,1.06-.13,1.54C20.21,87.17,20.21,86.87,20.1,86.73Zm.91.11c.44.41-.15,1-.32,1.42C20.44,87.57,20.92,87.33,21,86.84Zm.17,2.46c-.49-.56.13-1.06.24-1.51C22,88.31,21.27,88.8,21.18,89.3Zm.62-.5c.65.54,0,1.15-.16,1.65C21.06,89.86,21.64,89.3,21.8,88.8Zm0,2.19c.17-.32.37-.62.52-.95.52.63-.17,1.12-.21,1.66C21.93,91.6,21.89,91.25,21.81,91Zm1,.36c.32.42-.2,1-.39,1.33C22.15,92,22.63,91.79,22.77,91.35Zm.34.86c.16.41-.37.76-.42,1.18C22.44,92.91,23.05,92.62,23.11,92.21Zm.29.82c.42.53-.27,1-.31,1.47C22.58,93.9,23.22,93.46,23.4,93Zm.37,1c.08,0,.05.15.14.13a10,10,0,0,0-.53,1.15C23,94.88,23.69,94.47,23.77,94Zm.29.82c.59.53-.16,1.18-.38,1.59C23.26,95.65,23.91,95.42,24.06,94.86Zm-.23,2.08c.19-.38.47-.7.65-1.08.62.72-.19,1.27-.31,1.89C24,97.59,24,97.15,23.83,96.94Zm1,.19c.54.76-.15,1.27-.32,1.84C24,98.18,24.66,97.68,24.86,97.13Zm-.23,2.29c.15-.36.47-.62.56-1,.48.58-.18,1.13-.39,1.54A1.65,1.65,0,0,0,24.63,99.42Zm.33,1c0-.47.5-.62.56-1,.48.7-.1,1.06-.22,1.61.35.13.37-.53.57-.49a1.53,1.53,0,0,1-.2,2C25.53,101.87,25,101.07,25,100.44Zm1.36,1.68c.5.58-.07,1-.32,1.42C25.5,103,26.16,102.55,26.32,102.12Zm.32,1.23c.6.42-.15,1-.28,1.36C25.88,104.09,26.41,103.75,26.64,103.35Zm.39,1.06c.42.38-.29.75-.4,1.08C26.25,105.06,27,104.8,27,104.41Zm.26.77c.51.56-.06,1.07-.37,1.39C26.52,105.82,27,105.6,27.29,105.18Zm.34,3.21a5.78,5.78,0,0,1-.51-1.4c0-.39.42-.44.5-.78a14.2,14.2,0,0,1,1,2.74c0,.39-.41.68-.54.89C27.92,109.45,27.82,108.92,27.63,108.39Zm1.18,1.09c.55.72,0,1.18-.2,1.71C28,110.56,28.51,109.92,28.81,109.48Zm.12,2.94c-.43-.8,0-1.13.33-1.58A1.1,1.1,0,0,1,28.93,112.42Zm.73-.21a1.57,1.57,0,0,1-.09,1.94A1.44,1.44,0,0,1,29.66,112.21Zm0,2.34c.11-.27.38-.44.47-.72.23.06.18.56.28.82a3,3,0,0,0-.48.68A2,2,0,0,1,29.65,114.55Zm.87.65c.06,0,.09,0,.11,0a3.18,3.18,0,0,1-.41,1C29.83,115.84,30.46,115.53,30.52,115.2Zm3.1,10.4c-1-2.39-2.07-5.15-3-7.94a6.22,6.22,0,0,1-.39-1.11c0-.37.34-.6.41-1A71,71,0,0,0,34,125,1,1,0,0,1,33.62,125.6Zm-.75-6.81A4.9,4.9,0,0,1,33.6,121,19.88,19.88,0,0,1,32.87,118.79Zm1,3.16c-.38-.85-.23-2-.62-3.09.37.77.62,1.74,1,2.49A1,1,0,0,1,33.87,122Zm.34,4.92c-.4-.36,0-.79.08-1.1C34.73,126.13,34.41,126.57,34.21,126.87Zm.12-5.17a11.7,11.7,0,0,1,.7,1.51,2,2,0,0,1-.52.74C34.14,123.24,33.7,122.21,34.33,121.7Zm.35,6.37c-.38-.39.06-.76.18-1.08.17.05.21.29.27.51C34.81,127.69,35,127.81,34.68,128.07Zm.16-3.31c.07-.36.34-.58.43-.92.17.08.17.44.33.55-.07.32-.34.52-.45.82C35,125.16,35,124.84,34.84,124.76Zm.69,4.11c-.09-.11-.22-.19-.32-.29a1,1,0,0,1,.3-.53C35.69,128.31,35.93,128.71,35.53,128.87Zm.26-2.66c-.42-.34-.1-.73.08-1,.1,0,.11,0,.13.13s-.22.14-.2.3.18-.11.36-.08C36.22,125.87,36,126,35.79,126.21Zm.33,3c.16,0,.2.27.29.41C36.26,129.47,36,129.35,36.12,129.16Zm.07-2.51c.06-.12.14-.23.19-.36a.82.82,0,0,1,.16.75C36.38,127,36.29,126.81,36.19,126.65Zm.37.49c.4-.23-.28-.91.06-1.16a4.5,4.5,0,0,0,.3.66C36.85,126.81,36.67,127.14,36.56,127.14Zm.54,1.75c-.09-.29-.48-.56-.33-.81.23.09.36.33.56.45A.37.37,0,0,1,37.1,128.89ZM37,127.66c0-.16.18-.25.22-.41a2.49,2.49,0,0,1,.55.61.42.42,0,0,1-.24.31A4.23,4.23,0,0,0,37,127.66Zm1.29,1.64c-.09.24-.34.38-.44.62C37.18,129.58,37.87,128.61,38.33,129.3Zm-.2,1c.07-.28.38-.4.48-.67.88.16,1.31,1,2,1.43A5.73,5.73,0,0,1,38.13,130.28Zm1.52-.9c.23,0,.57.39.92.42-.25.29.43.26.4.38C40.65,130.35,39.94,129.78,39.65,129.38Zm1.59,1.11c-.15-.13,0-.41.25-.32C41.43,130.29,41.4,130.44,41.24,130.49Zm0,.66c.12-.16.12-.18.33-.12,0-.72.51-.82,1.19-.73C42.53,130.75,41.91,131.82,41.29,131.15Zm1.83.54c-.25,0-.4-.13-.65-.12.41-.55.69-1.41,1.65-1.24A11.06,11.06,0,0,1,43.12,131.69Zm.43.06c.25-.5.73-.86,1-1.36a11,11,0,0,1,1.14,0C45.08,130.91,44.74,131.83,43.55,131.75Zm1.51,1.7a.85.85,0,0,1-.39-.12C44.75,133.19,45,133.29,45.06,133.45Zm-.07.85c.06-.11.23.16.39.12C45.29,134.58,45.08,134.37,45,134.3Zm0-2.71a10.54,10.54,0,0,0,1.09-1.23c.22-.08.23.16.4.18s.16-.19.37-.19C46.46,130.92,46.08,131.67,45,131.59Zm1.37,1.73c-.15.2-.41,0-.53,0C46,133.07,46.28,133.23,46.39,133.32Zm-.58.7c.19-.06.71.31.77.45C46.28,134.39,46.1,134.11,45.81,134ZM47,134c.34-.23.6.26.9.32C47.45,134.6,47.25,134,47,134Zm1-.12c.37-.26.63.22.94.26C48.49,134.46,48.24,134,48,133.86Zm1-.11c0-.12.28-.08.39-.13.09.21.32.22.41.43C49.29,134.2,49.18,133.86,48.92,133.75Zm1.29.19a2.16,2.16,0,0,1-.34-.39c.9-.21,1.72-.29,2.64-.53a1.11,1.11,0,0,0,.13.39Zm2.58-1.81,1.39-.3c-.13.35-1,.42-1.35.5C52.82,132.27,52.8,132.2,52.79,132.13Zm.39,1.11c0-.12,0-.23-.07-.35.65,0,1.35-.69,1.55,0A3.76,3.76,0,0,1,53.18,133.24Zm1.6-1.49c.12-.24.73-.25.24-.1C54.91,131.68,55,131.72,54.78,131.75Zm.48,1c-.06-.17-.18-.27-.21-.48.1,0,.34,0,.34-.12.19,0,.21.29.3.45A1,1,0,0,0,55.26,132.74Zm1-.38a5.11,5.11,0,0,1-.21-.47c.49-.26.88-.27.84.28C56.62,132.19,56.54,132.33,56.27,132.36Zm1.06-.39-.12-.54a2.92,2.92,0,0,0,.67-.25c.2,0,.21.3.27.51A4.38,4.38,0,0,1,57.33,132Zm3-1.74c-.56.36-1.1.74-1.63,1.13-.14-.07-.16-.33-.25-.46.58-.27,1.3-.45,1.81-.76C60.38,130.11,60.33,130.16,60.33,130.23Zm.06-.43c-.1,0-.07-.16-.18-.12a.21.21,0,0,1,.17-.14A.3.3,0,0,1,60.39,129.8Zm.09-2.47c0-.18,0-.42,0-.61.31-.09.53,0,.65.16C60.88,127,60.76,127.23,60.48,127.33Zm1.06-.85c-.1-.19-.27-.24-.4-.38s.28-.31.3-.54c.28,0,.35.39.58.5A1.24,1.24,0,0,1,61.54,126.48Zm.88-.72c-.16-.34-.51-.39-.68-.73,0-.11.23,0,.23-.15a3.32,3.32,0,0,1,.73.72C62.55,125.62,62.57,125.74,62.42,125.76Zm.72-.52c-.21-.36-1.72-.88-1-1.43.46.33.8.83,1.25,1.18C63.38,125.14,63.11,125.09,63.14,125.24Zm.76-1c.12.1.14.37-.21.47-.38-.52-.93-.77-1.32-1.28a2.12,2.12,0,0,0,.42-.71A8.18,8.18,0,0,1,64.28,124C64.23,124.22,64.11,124.27,63.9,124.19Zm.65-.6a8.54,8.54,0,0,0-1.5-1.39c0-.27.09-.43.12-.65.48.24.76.8,1.22,1.08-.14.17-.28-.22-.54-.09a6.15,6.15,0,0,1,.93.68A.39.39,0,0,1,64.55,123.59Zm.47-1.67c0,.18.2.13.26.26a.56.56,0,0,1-.21.46c-.54-.58-1.12-1.09-1.7-1.61a2.14,2.14,0,0,0,.3-1A11,11,0,0,1,65.39,122C65.29,122.15,65.16,121.85,65,121.92Zm.61-.5a18,18,0,0,0-1.84-2c0-.34,0-.65,0-1,.21.26.77.59.66.9.32,0,.56.52.8.81-.1,0-.12-.11-.23-.1C65.38,120.35,65.92,120.77,65.63,121.42Z"/><path class="cls-1" d="M46.48,103.24c.4-.33,1-.6,1.06-1.12-.08-.15-.35,0-.37,0a35.61,35.61,0,0,0-4.57,4.06,3.26,3.26,0,0,0,1.37-.87C44.84,104.59,45.66,103.9,46.48,103.24Z"/></g></g></svg>